<?xml version="1.0" encoding="utf-8"?>
<!-- Generator: Adobe Illustrator 24.3.0, SVG Export Plug-In . SVG Version: 6.00 Build 0)  -->
<svg version="1.1" id="Слой_1" xmlns="http://www.w3.org/2000/svg" xmlns:xlink="http://www.w3.org/1999/xlink" x="0px" y="0px"
	 viewBox="0 0 542 256" style="enable-background:new 0 0 542 256;" xml:space="preserve">
<style type="text/css">
	.st0{fill:#DBDEE5;}
	.st1{fill:none;stroke:#DBDEE5;stroke-width:2;}
	.st2{fill:#EEF3F5;}
	.st3{fill:#DE5846;}
	.st4{fill:none;}
	.st5{fill:#212225;}
	.st6{fill:none;stroke:#212225;stroke-width:2;}
	.st7{fill:none;stroke:#DBDEE5;stroke-width:2;stroke-linecap:round;stroke-dasharray:6,6;}
	.st8{fill:none;stroke:#212225;stroke-width:2;stroke-linecap:round;stroke-dasharray:6,6;}
	.st9{fill:none;stroke:#212225;stroke-width:2;stroke-linecap:round;}
	.st10{fill:none;stroke:#20262A;stroke-width:2;stroke-linecap:round;}
	.st11{fill:none;stroke:#DE5846;stroke-width:2;stroke-linecap:round;}
</style>
<g id="Launching_HTML_5_Games_big" transform="translate(-384.268 -439)">
	<g id="Сгруппировать_83">
		<path id="Прямоугольник_538_копия_7" class="st0" d="M798.3,522v-24h-38v10h-2v-10h-11v-2h11v-15h2v15h38v-15h2
			v15h41v2h-41v24H798.3z"/>
		<path id="Прямоугольник_538_копия_5" class="st0" d="M654.7,649v-4h-4v-2h4v-4h2v4h4v2h-4v4H654.7z M614.7,639
			v-21h-38v11h-2v-11h-15v-2h15v-38h-5v-2h5v-11h2v11h10v2h-10v38h38v-6h2v6h38v-11h2v11h14v2h-14v11h-2v-11h-38v21H614.7z"/>
		<path id="Прямоугольник_538_копия_6" class="st0" d="M798.3,629v-11h-38v11h-2v-11h-15v-2h15v-26h2v26h38v-11h2
			v11h14v2h-14v11H798.3z M838.3,622v-4h-4v-2h4v-4h2v4h4v2h-4v4H838.3z"/>
		<path id="Прямоугольник_скругл._углы_3" class="st1" d="M547,527h57 M681,595v46c0,5.5-4.5,10-10,10H481"
			/>
		<path id="Фигура_5" class="st1" d="M548,645c0,0-3.9-4.5-5-6c-1.8-2.6-4.8-4.1-8-4h-69c-3.2-0.1-6.2,1.4-8,4
			c-1.7,2.2-6.2,6.7-7,8s-1.5,4,1,4h92"/>
		<path id="Фигура_1010_копия" class="st2" d="M782.3,544h1.1c0,0-0.1,29.3-0.1,35s5.4,8,9,8l62,0v1c0,5.5-4.5,10-10,10
			h-62c-5.5,0-10-4.5-10-10v-34C772.3,548.5,776.7,544,782.3,544z"/>
		<g id="Группа_3" transform="translate(711.484 531)">
			<path id="Фигура_1008" class="st3" d="M30,8h-4c-1,0.1-1.9-0.7-2-1.7c0-0.1,0-0.2,0-0.3V1h2l4,6V8z"/>
			<g id="Прямоугольник_скругл._углы_977" transform="translate(-712 -531)">
				<path class="st4" d="M714,531h25l4,6v32c0,1.1-0.9,2-2,2h-27c-1.1,0-2-0.9-2-2v-36C712,531.9,712.9,531,714,531z"/>
				<path class="st5" d="M714,533v36l27,0v-31.4l-3.1-4.6L714,533L714,533 M714,531h25l4,6v32c0,1.1-0.9,2-2,2h-27c-1.1,0-2-0.9-2-2
					v-36C712,531.9,712.9,531,714,531z"/>
			</g>
			<path id="Прямоугольник_скругл._углы_978" class="st1" d="M31,7h4c1.1,0,2,0.9,2,2v36c0,1.1-0.9,2-2,2H8
				c-1.1,0-2-0.9-2-2v-5"/>
			<path id="Прямоугольник_скругл._углы_978_копия" class="st1" d="M37,13h4c1.1,0,2,0.9,2,2v36
				c0,1.1-0.9,2-2,2H14c-1.1,0-2-0.9-2-2v-5"/>
			<path id="Фигура_1007" class="st6" d="M25,0v6c0,0.7-0.3,1,1,1h4"/>
		</g>
		<g id="Группа_2" transform="translate(782.268 526)">
			<g id="Эллипс_4_копия_2">
				<path class="st4" d="M10,62C4.5,62,0,57.5,0,52V18C0,12.5,4.5,8,10,8h62c5.5,0,10,4.5,10,10v34c0,5.5-4.5,10-10,10H10z M20,2
					c0-1.1,0.9-2,2-2s2,0.9,2,2s-0.9,2-2,2S20,3.1,20,2z M12,2c0-1.1,0.9-2,2-2s2,0.9,2,2s-0.9,2-2,2S12,3.1,12,2z M4,2
					c0-1.1,0.9-2,2-2s2,0.9,2,2S7.1,4,6,4S4,3.1,4,2z"/>
				<path class="st0" d="M72,60c4.4,0,8-3.6,8-8V18c0-4.4-3.6-8-8-8H10c-4.4,0-8,3.6-8,8v34c0,4.4,3.6,8,8,8H72 M72,62H10
					C4.5,62,0,57.5,0,52V18C0,12.5,4.5,8,10,8h62c5.5,0,10,4.5,10,10v34C82,57.5,77.5,62,72,62z M22,4c-1.1,0-2-0.9-2-2
					c0-1.1,0.9-2,2-2c1.1,0,2,0.9,2,2C24,3.1,23.1,4,22,4z M14,4c-1.1,0-2-0.9-2-2c0-1.1,0.9-2,2-2c1.1,0,2,0.9,2,2
					C16,3.1,15.1,4,14,4z M6,4C4.9,4,4,3.1,4,2c0-1.1,0.9-2,2-2c1.1,0,2,0.9,2,2C8,3.1,7.1,4,6,4z"/>
			</g>
		</g>
		<g id="Группа_2_копия" transform="translate(515.804 503)">
			<path id="Фигура_1010" class="st2" d="M87,95c-5.5,0-10-4.5-10-10V51c0-5.5,4.5-10,10-10h1.1c0,0-0.1,29.3-0.1,35
				s5.4,8,9,8l62,0v1c0,5.5-4.5,10-10,10H87z M4,12C5.6,8,0,0,0,0s10.4,5,10,8c-2.1,0.2-5.7,4.3-6,4.3C3.9,12.3,3.9,12.2,4,12z"/>
			<g id="Эллипс_4_копия_2-2" transform="translate(87 31)">
				<path class="st4" d="M10,0h62c5.5,0,10,4.5,10,10v34c0,5.5-4.5,10-10,10H10C4.5,54,0,49.5,0,44V10C0,4.5,4.5,0,10,0z"/>
				<path class="st1" d="M10,1h62c5,0,9,4,9,9v34c0,5-4,9-9,9H10c-5,0-9-4-9-9V10C1,5,5,1,10,1z"/>
			</g>
		</g>
		<path id="Эллипс_4_копия_3" class="st7" d="M824.3,587v56c0,5.5-4.5,10-10,10h-67c-5.5,0-10-4.5-10-10v-58"/>
		<path id="Эллипс_4_копия_4" class="st8" d="M639.6,527v-21c0-5.5,4.5-10,10-10h67c5.5,0,10,4.5,10,10v25"/>
		<line id="Фигура_1009" class="st9" x1="613.7" y1="527" x2="676.7" y2="527"/>
		<g id="Группа_1" transform="translate(453 491)">
			<path id="Фигура_1" class="st10" d="M31,45c0,0,1.4,21,21,21c2.8-0.1,5.5-0.8,8-2c0.5-0.3,1.4-0.8,3,1s20.9,22,22,23
				s2.6,1.9,4,1s5.8-4.1,7-5s3.6-3.5,2-8S86.6,52.2,86,51c-0.4-1-0.4-2,0-3c0.2-0.7,0.7-2.3,1-3c0.7-1.2,0.7-2.8,0-4
				c-0.8-1.5-5.5-9.3-6-10s-1.3-2.4,0-3s3.1-1.5,4-2s2.3-2.1,1-3c-3.7-2-7.9-2.7-12-2c-0.4,0.1-1,0.1-2-1s-8.1-10-24-10
				C17.2,10,8,37,8,45v88c0,1.7,0.7,3,3,3h71c2.5,0,4-0.6,4-3v-9c0-18-7.2-30.1-12-36S58.9,77.7,55,71"/>
			<path id="Фигура_2" class="st10" d="M71,132v-5c0-14.1-4.7-25.2-15-35S36,73.5,32,50.4"/>
			<path id="Фигура_6" class="st10" d="M74.7,21c0,0-4.7,0.1-6.1,3.7"/>
			<path id="Фигура_3" class="st11" d="M75,15c0,0,4.6-2.4,6-3s1.4-2.8-2-3S65.1,0,49,0C24.4,0,0,16.5,0,47v36
				c0,12.4,4,20,4,20"/>
			<g id="Фигура_4" transform="translate(-453 -491)">
				<path class="st4" d="M528,544c1.5,1,4.1-2.4,5-3s0.9-1.8-1-3s-5.8-4.1-7-5s-3,1.7-2,3S526.5,543,528,544z"/>
				<path class="st3" d="M528.8,542c0.1-0.1,0.3-0.2,0.4-0.3c0.4-0.3,0.9-0.8,1.3-1.2c0.2-0.2,0.5-0.4,0.7-0.6
					c-0.1-0.1-0.2-0.1-0.3-0.2c-1.5-1-4.1-2.9-5.8-4.1c0.3,0.6,0.7,1.3,1.2,2.1c0.5,1,1.1,2.1,1.7,3
					C528.3,541.4,528.6,541.8,528.8,542 M528.6,544.2c-0.2,0-0.4-0.1-0.6-0.2c-1.5-1-4-6.7-5-8c-0.9-1.1,0.4-3.2,1.5-3.2
					c0.2,0,0.4,0.1,0.5,0.2c1.2,0.9,5.1,3.8,7,5c1.9,1.2,1.9,2.4,1,3C532.2,541.5,530.1,544.2,528.6,544.2z"/>
			</g>
		</g>
		<g id="Группа_4" transform="translate(617.658 550)">
			<path id="Прямоугольник_скругл._углы_979_копия_5" class="st0" d="M45.5,21c-0.8,0-1.5-0.7-1.5-1.5
				s0.7-1.5,1.5-1.5h4c0.8,0,1.5,0.7,1.5,1.5S50.3,21,49.5,21H45.5z M28.5,21c-0.8,0-1.5-0.7-1.5-1.5s0.7-1.5,1.5-1.5h11
				c0.8,0,1.5,0.7,1.5,1.5S40.3,21,39.5,21H28.5z M18.5,21c-0.8,0-1.5-0.7-1.5-1.5s0.7-1.5,1.5-1.5h4c0.8,0,1.5,0.7,1.5,1.5
				S23.3,21,22.5,21H18.5z M1.5,21C0.7,21,0,20.3,0,19.5S0.7,18,1.5,18h11c0.8,0,1.5,0.7,1.5,1.5S13.3,21,12.5,21H1.5z M39.5,15
				c-0.8,0-1.5-0.7-1.5-1.5s0.7-1.5,1.5-1.5h10c0.8,0,1.5,0.7,1.5,1.5S50.3,15,49.5,15H39.5z M28.5,15c-0.8,0-1.5-0.7-1.5-1.5
				s0.7-1.5,1.5-1.5h5c0.8,0,1.5,0.7,1.5,1.5S34.3,15,33.5,15H28.5z M14.5,15c-0.8,0-1.5-0.7-1.5-1.5s0.7-1.5,1.5-1.5h8
				c0.8,0,1.5,0.7,1.5,1.5S23.3,15,22.5,15H14.5z M1.5,15C0.7,15,0,14.3,0,13.5S0.7,12,1.5,12h7c0.8,0,1.5,0.7,1.5,1.5
				S9.3,15,8.5,15H1.5z M47.5,9C46.7,9,46,8.3,46,7.5S46.7,6,47.5,6h6C54.3,6,55,6.7,55,7.5S54.3,9,53.5,9H47.5z M32.5,9
				C31.7,9,31,8.3,31,7.5S31.7,6,32.5,6h9C42.3,6,43,6.7,43,7.5S42.3,9,41.5,9H32.5z M7.5,9C6.7,9,6,8.3,6,7.5S6.7,6,7.5,6h19
				C27.3,6,28,6.7,28,7.5S27.3,9,26.5,9H7.5z M0,7.5C0,6.7,0.7,6,1.5,6S3,6.7,3,7.5S2.3,9,1.5,9S0,8.3,0,7.5z M45.5,3
				C44.7,3,44,2.3,44,1.5S44.7,0,45.5,0h4C50.3,0,51,0.7,51,1.5S50.3,3,49.5,3H45.5z M28.5,3C27.7,3,27,2.3,27,1.5S27.7,0,28.5,0h11
				C40.3,0,41,0.7,41,1.5S40.3,3,39.5,3H28.5z M18.5,3C17.7,3,17,2.3,17,1.5S17.7,0,18.5,0h4C23.3,0,24,0.7,24,1.5S23.3,3,22.5,3
				H18.5z M1.5,3C0.7,3,0,2.3,0,1.5S0.7,0,1.5,0h11C13.3,0,14,0.7,14,1.5S13.3,3,12.5,3H1.5z"/>
		</g>
		<g id="Эллипс_4" transform="translate(806.268 544)">
			<circle class="st4" cx="17" cy="17" r="17"/>
			<circle class="st1" cx="17" cy="17" r="16"/>
		</g>
		<path id="check_копия_6" class="st0" d="M829.1,556l-6.6,6.6l-3.1-3.1l-2.2,2.2l5.2,5.3l8.8-8.8L829.1,556z"/>
	</g>
	<g id="шьфп_копия_5" transform="translate(-611.732 168)">
		<path id="Прямоугольник_1_копия_15" class="st0" d="M1195,332v-4h-4v-2h4v-4h2v4h4v2h-4v4H1195z M1168,332v-4
			h-11v-2h11v-38h-38v7h-2v-7h-38v9h-2v-9h-38v38h21v2h-21v4h-2v-4h-36v-2h36v-38h-38v10h-2v-10h-5v-2h5v-15h2v15h38v-15h2v15h38v-8
			h2v8h38v-13h2v13h38v-5h2v5h21v2h-21v38h11v2h-11v4H1168z M1008,318v-4h-4v-2h4v-4h2v4h4v2h-4v4H1008z"/>
		<path id="Прямоугольник_1_копия_16" class="st0" d="M1091,527v-21h-38v6h-2v-6h-38v15h-2v-15h-15v-2h15v-38h-8
			v-2h8v-38h-13v-2h13v-18h2v18h7v2h-7v38h9v2h-9v38h38v-11h2v11h38v-1h2v1h14v2h-14v21H1091z M1117,510v-4h-4v-2h4v-4h2v4h4v2h-4v4
			H1117z M1035,430v-4h-4v-2h4v-4h2v4h4v2h-4v4H1035z"/>
		<path id="Прямоугольник_1_копия_23" class="st0" d="M1490,382v-12h-7v-2h7v-38h-38v11h-2v-11h-54v-2h54v-11h2
			v11h38v-21h2v21h5v2h-5v38h3v2h-3v12H1490z M1450,307v-4h-4v-2h4v-4h2v4h4v2h-4v4H1450z"/>
		<path id="Прямоугольник_1_копия_22" class="st0" d="M1484,527v-21h-38v11h-2v-11h-34v-2h34v-11h2v11h38v-38h-7
			v-2h7v-12h2v12h38v-4h2v4h10v2h-10v9h-2v-9h-38v38h5v2h-5v21H1484z M1460,470v-4h-4v-2h4v-4h2v4h4v2h-4v4H1460z"/>
		<path id="Прямоугольник_1_копия_27" class="st0" d="M1524,454v-4h-4v-2h4v-4h2v4h4v2h-4v4H1524z M1524,433v-7
			h-18v-2h18v-38h-9v-2h9v-10h2v10h4v2h-4v38h12v2h-12v7H1524z"/>
	</g>
</g>
</svg>
