<?xml version="1.0" encoding="utf-8"?>
<!-- Generator: Adobe Illustrator 24.3.0, SVG Export Plug-In . SVG Version: 6.00 Build 0)  -->
<svg version="1.1" id="Слой_1" xmlns="http://www.w3.org/2000/svg" xmlns:xlink="http://www.w3.org/1999/xlink" x="0px" y="0px"
	 viewBox="0 0 415 173" style="enable-background:new 0 0 415 173;" xml:space="preserve">
<style type="text/css">
	.st0{fill:#FEB8AE;}
	.st1{fill:none;stroke:#B01E20;stroke-width:2;}
	.st2{fill:#B01E20;}
	.st3{fill:#DE5846;}
	.st4{fill:none;}
	.st5{fill:#212225;}
	.st6{fill:none;stroke:#212225;stroke-width:2;}
	.st7{fill:none;stroke:#B01E20;stroke-width:2;stroke-linecap:round;stroke-dasharray:6,6;}
	.st8{fill:none;stroke:#212225;stroke-width:2;stroke-linecap:round;stroke-dasharray:6,6;}
	.st9{fill:none;stroke:#212225;stroke-width:2;stroke-linecap:round;}
	.st10{fill:none;stroke:#20262A;stroke-width:2;stroke-linecap:round;}
	.st11{fill:none;stroke:#B01E20;stroke-width:2;stroke-linecap:round;}
</style>
<g id="Launching_HTML_5_Games_-_red" transform="translate(-449.259 -481)">
	<path id="Прямоугольник_538_копия_7" class="st0" d="M798.3,522v-24h-38v10h-2v-10h-11v-2h11v-15h2v15h38v-15h2
		v15h41v2h-41v24H798.3z"/>
	<path id="Прямоугольник_538_копия_5" class="st0" d="M654.7,649v-4h-4v-2h4v-4h2v4h4v2h-4v4H654.7z M614.7,639
		v-21h-38v11h-2v-11h-15v-2h15v-38h-5v-2h5v-11h2v11h10v2h-10v38h38v-6h2v6h38v-11h2v11h14v2h-14v11h-2v-11h-38v21H614.7z"/>
	<path id="Прямоугольник_538_копия_6" class="st0" d="M798.3,629v-11h-38v11h-2v-11h-15v-2h15v-26h2v26h38v-11h2
		v11h14v2h-14v11H798.3z M838.3,622v-4h-4v-2h4v-4h2v4h4v2h-4v4H838.3z"/>
	<path id="Прямоугольник_скругл._углы_3" class="st1" d="M547,527h57 M681,595v46c0,5.5-4.5,10-10,10H481"/>
	<path id="Фигура_5" class="st1" d="M548,645c0,0-3.9-4.5-5-6c-1.8-2.6-4.8-4.1-8-4h-69c-3.2-0.1-6.2,1.4-8,4
		c-1.7,2.2-6.2,6.7-7,8s-1.5,4,1,4h92"/>
	<path id="Фигура_1010_копия" class="st2" d="M782.3,544h1.1c0,0-0.1,29.3-0.1,35s5.4,8,9,8h62v1c0,5.5-4.5,10-10,10h-62
		c-5.5,0-10-4.5-10-10v-34C772.3,548.5,776.7,544,782.3,544C782.3,544,782.3,544,782.3,544z"/>
	<g id="Группа_3" transform="translate(711.485 531)">
		<path id="Фигура_1008" class="st3" d="M30,8h-4c-1,0.1-1.9-0.7-2-1.7V1h2l4,6V8z"/>
		<g id="Прямоугольник_скругл._углы_977" transform="translate(-712 -531)">
			<path id="Контур_454" class="st4" d="M714,531h25l4,6v32c0,1.1-0.9,2-2,2h-27c-1.1,0-2-0.9-2-2v-36
				C712,531.9,712.9,531,714,531z"/>
			<path id="Контур_455" class="st5" d="M714,533v36h27v-31.4l-3.1-4.6H714 M714,531h25l4,6v32c0,1.1-0.9,2-2,2h-27
				c-1.1,0-2-0.9-2-2v-36C712,531.9,712.9,531,714,531z"/>
		</g>
		<path id="Прямоугольник_скругл._углы_978" class="st1" d="M31,7h4c1.1,0,2,0.9,2,2v36c0,1.1-0.9,2-2,2H8
			c-1.1,0-2-0.9-2-2v-5"/>
		<path id="Прямоугольник_скругл._углы_978_копия" class="st1" d="M37,13h4c1.1,0,2,0.9,2,2v36
			c0,1.1-0.9,2-2,2H14c-1.1,0-2-0.9-2-2v-5"/>
		<path id="Фигура_1007" class="st6" d="M25,0v6c0,0.7-0.3,1,1,1h4"/>
	</g>
	<g id="Группа_2" transform="translate(782.268 526)">
		<g id="Эллипс_4_копия_2">
			<path id="Контур_456" class="st4" d="M10,62C4.5,62,0,57.5,0,52V18C0,12.5,4.5,8,10,8h62c5.5,0,10,4.5,10,10v34
				c0,5.5-4.5,10-10,10H10z M20,2c0-1.1,0.9-2,2-2s2,0.9,2,2s-0.9,2-2,2C20.9,4,20,3.1,20,2z M12,2c0-1.1,0.9-2,2-2s2,0.9,2,2
				s-0.9,2-2,2C12.9,4,12,3.1,12,2z M4,2c0-1.1,0.9-2,2-2s2,0.9,2,2S7.1,4,6,4C4.9,4,4,3.1,4,2z"/>
			<path id="Контур_457" class="st2" d="M72,60c4.4,0,8-3.6,8-8V18c0-4.4-3.6-8-8-8H10c-4.4,0-8,3.6-8,8v34c0,4.4,3.6,8,8,8
				H72 M72,62H10C4.5,62,0,57.5,0,52V18C0,12.5,4.5,8,10,8h62c5.5,0,10,4.5,10,10v34C82,57.5,77.5,62,72,62z M22,4c-1.1,0-2-0.9-2-2
				s0.9-2,2-2s2,0.9,2,2C24,3.1,23.1,4,22,4z M14,4c-1.1,0-2-0.9-2-2s0.9-2,2-2s2,0.9,2,2C16,3.1,15.1,4,14,4z M6,4C4.9,4,4,3.1,4,2
				s0.9-2,2-2s2,0.9,2,2C8,3.1,7.1,4,6,4z"/>
		</g>
	</g>
	<g id="Группа_2_копия" transform="translate(515.804 503)">
		<path id="Фигура_1010" class="st2" d="M87,95c-5.5,0-10-4.5-10-10V51c0-5.5,4.5-10,10-10h1.1c0,0-0.1,29.3-0.1,35s5.4,8,9,8
			h62v1c0,5.5-4.5,10-10,10H87z M4,12C5.6,8,0,0,0,0s10.4,5,10,8c-2.1,0.2-5.7,4.3-6,4.3C3.9,12.3,3.9,12.2,4,12z"/>
		<g id="Эллипс_4_копия_2-2" transform="translate(87 31)">
			<path id="Контур_458" class="st4" d="M10,0h62c5.5,0,10,4.5,10,10v34c0,5.5-4.5,10-10,10H10C4.5,54,0,49.5,0,44V10
				C0,4.5,4.5,0,10,0z"/>
			<path id="Контур_459" class="st6" d="M10,1h62c5,0,9,4,9,8.9c0,0,0,0,0,0.1v34c0,5-4,9-8.9,9c0,0,0,0-0.1,0H10
				c-5,0-9-4-9-8.9c0,0,0,0,0-0.1V10C1,5,5,1,10,1C10,1,10,1,10,1z"/>
		</g>
	</g>
	<path id="Эллипс_4_копия_3" class="st7" d="M824.3,587v56c0,5.5-4.5,10-10,10h-67c-5.5,0-10-4.5-10-10v-58"/>
	<path id="Эллипс_4_копия_4" class="st8" d="M639.6,527v-21c0-5.5,4.5-10,10-10h67c5.5,0,10,4.5,10,10v25"/>
	<line id="Фигура_1009" class="st9" x1="613.7" y1="527" x2="676.7" y2="527"/>
	<g id="Группа_1" transform="translate(453 491)">
		<path id="Фигура_1" class="st10" d="M31,45c0,0,1.4,21,21,21c2.8-0.1,5.5-0.8,8-2c0.5-0.3,1.4-0.8,3,1
			c1.6,1.8,20.9,22,22,23s2.6,1.9,4,1s5.8-4.1,7-5s3.6-3.5,2-8S86.6,52.2,86,51c-0.4-1-0.4-2,0-3c0.2-0.7,0.7-2.3,1-3
			c0.7-1.2,0.7-2.8,0-4c-0.8-1.5-5.5-9.3-6-10s-1.3-2.4,0-3s3.1-1.5,4-2s2.3-2.1,1-3c-3.7-2-7.9-2.7-12-2c-0.4,0.1-1,0.1-2-1
			s-8.1-10-24-10C17.2,10,8,37,8,45v88c0,1.7,0.7,3,3,3h71c2.5,0,4-0.6,4-3v-9c0-18-7.2-30.1-12-36S58.9,77.7,55,71"/>
		<path id="Фигура_2" class="st10" d="M71,132v-5c0-14.1-4.7-25.2-15-35S36,73.5,32,50.4"/>
		<path id="Фигура_6" class="st10" d="M74.7,21c0,0-4.7,0.1-6.1,3.7"/>
		<path id="Фигура_3" class="st11" d="M75,15c0,0,4.6-2.4,6-3s1.4-2.8-2-3S65.1,0,49,0C24.4,0,0,16.5,0,47v36
			c0,12.4,4,20,4,20"/>
		<g id="Фигура_4" transform="translate(-453 -491)">
			<path id="Контур_460" class="st4" d="M528,544c1.5,1,4.1-2.4,5-3s0.9-1.8-1-3s-5.8-4.1-7-5s-3,1.7-2,3S526.5,543,528,544z"
				/>
			<path id="Контур_461" class="st3" d="M528.8,542c0.1-0.1,0.3-0.2,0.4-0.3c0.5-0.4,0.9-0.8,1.3-1.2c0.2-0.2,0.5-0.4,0.7-0.6
				c-0.1-0.1-0.2-0.1-0.3-0.2c-1.5-1-4.1-2.9-5.8-4.1c0.3,0.6,0.7,1.3,1.2,2.1c0.5,1,1.1,2,1.7,3C528.2,541.2,528.5,541.6,528.8,542
				 M528.6,544.2c-0.2,0-0.4-0.1-0.6-0.2c-1.5-1-4-6.7-5-8c-0.9-1.1,0.4-3.2,1.5-3.2c0.2,0,0.4,0.1,0.5,0.2c1.2,0.9,5.1,3.8,7,5
				s1.9,2.4,1,3C532.2,541.5,530.1,544.2,528.6,544.2L528.6,544.2z"/>
		</g>
	</g>
	<g id="Группа_4" transform="translate(617.659 550)">
		<path id="Прямоугольник_скругл._углы_979_копия_5" class="st5" d="M45.5,21c-0.8,0-1.5-0.7-1.5-1.5
			s0.7-1.5,1.5-1.5h4c0.8,0,1.5,0.7,1.5,1.5S50.3,21,49.5,21H45.5z M28.5,21c-0.8,0-1.5-0.7-1.5-1.5s0.7-1.5,1.5-1.5h11
			c0.8,0,1.5,0.7,1.5,1.5S40.3,21,39.5,21H28.5z M18.5,21c-0.8,0-1.5-0.7-1.5-1.5s0.7-1.5,1.5-1.5h4c0.8,0,1.5,0.7,1.5,1.5
			S23.3,21,22.5,21H18.5z M1.5,21C0.7,21,0,20.3,0,19.5S0.7,18,1.5,18h11c0.8,0,1.5,0.7,1.5,1.5S13.3,21,12.5,21H1.5z M39.5,15
			c-0.8,0-1.5-0.7-1.5-1.5s0.7-1.5,1.5-1.5h10c0.8,0,1.5,0.7,1.5,1.5S50.3,15,49.5,15H39.5z M28.5,15c-0.8,0-1.5-0.7-1.5-1.5
			s0.7-1.5,1.5-1.5h5c0.8,0,1.5,0.7,1.5,1.5S34.3,15,33.5,15H28.5z M14.5,15c-0.8,0-1.5-0.7-1.5-1.5s0.7-1.5,1.5-1.5h8
			c0.8,0,1.5,0.7,1.5,1.5S23.3,15,22.5,15H14.5z M1.5,15C0.7,15,0,14.3,0,13.5S0.7,12,1.5,12h7c0.8,0,1.5,0.7,1.5,1.5S9.3,15,8.5,15
			H1.5z M47.5,9C46.7,9,46,8.3,46,7.5C46,6.7,46.7,6,47.5,6h6C54.3,6,55,6.7,55,7.5C55,8.3,54.3,9,53.5,9H47.5z M32.5,9
			C31.7,9,31,8.3,31,7.5C31,6.7,31.7,6,32.5,6h9C42.3,6,43,6.7,43,7.5C43,8.3,42.3,9,41.5,9H32.5z M7.5,9C6.7,9,6,8.3,6,7.5
			S6.7,6,7.5,6h19C27.3,6,28,6.7,28,7.5C28,8.3,27.3,9,26.5,9H7.5z M0,7.5C0,6.7,0.7,6,1.5,6C2.3,6,3,6.7,3,7.5S2.3,9,1.5,9
			C0.7,9,0,8.3,0,7.5z M45.5,3C44.7,3,44,2.3,44,1.5C44,0.7,44.7,0,45.5,0h4C50.3,0,51,0.7,51,1.5C51,2.3,50.3,3,49.5,3H45.5z
			 M28.5,3C27.7,3,27,2.3,27,1.5C27,0.7,27.7,0,28.5,0h11C40.3,0,41,0.7,41,1.5C41,2.3,40.3,3,39.5,3H28.5z M18.5,3
			C17.7,3,17,2.3,17,1.5C17,0.7,17.7,0,18.5,0h4C23.3,0,24,0.7,24,1.5C24,2.3,23.3,3,22.5,3H18.5z M1.5,3C0.7,3,0,2.3,0,1.5
			C0,0.7,0.7,0,1.5,0h11C13.3,0,14,0.7,14,1.5C14,2.3,13.3,3,12.5,3H1.5z"/>
	</g>
	<g id="Эллипс_4" transform="translate(806.268 544)">
		<circle id="Эллипс_53" class="st4" cx="17" cy="17" r="17"/>
		<circle id="Эллипс_54" class="st6" cx="17" cy="17" r="16"/>
	</g>
	<path id="check_копия_6" class="st5" d="M829.1,556l-6.6,6.6l-3.1-3.1l-2.2,2.2l5.2,5.3l8.8-8.8L829.1,556z"/>
</g>
</svg>
