<?xml version="1.0" encoding="utf-8"?>
<!-- Generator: Adobe Illustrator 24.3.0, SVG Export Plug-In . SVG Version: 6.00 Build 0)  -->
<svg version="1.1" id="Слой_1" xmlns="http://www.w3.org/2000/svg" xmlns:xlink="http://www.w3.org/1999/xlink" x="0px" y="0px"
	 viewBox="0 0 542 256" style="enable-background:new 0 0 542 256;" xml:space="preserve">
<style type="text/css">
	.st0{fill:#DBDEE5;}
	.st1{fill:#EEF3F5;}
	.st2{fill:none;}
	.st3{fill:none;stroke:#DE5846;stroke-width:2;}
	.st4{fill:none;stroke:#DBDEE5;stroke-width:2;}
	.st5{fill:none;stroke:#212225;stroke-width:2;stroke-linecap:round;}
	.st6{fill:none;stroke:#212225;stroke-width:2;}
	.st7{fill:none;stroke:#DBDEE5;stroke-width:2;stroke-linecap:round;}
	.st8{fill:none;stroke:#DBDEE5;stroke-width:2;stroke-linecap:round;stroke-dasharray:6,6;}
	.st9{fill:none;stroke:#212225;stroke-width:2;stroke-linecap:round;stroke-dasharray:6,6;}
</style>
<g id="ARK_Messenger_Tutorial_big" transform="translate(-384.268 -439)">
	<g id="шьфп_копия_5" transform="translate(-611.732 168)">
		<path id="Прямоугольник_1_копия_15" class="st0" d="M1195,332v-4h-4v-2h4v-4h2v4h4v2h-4v4H1195z M1168,332v-4
			h-11v-2h11v-38h-38v7h-2v-7h-38v9h-2v-9h-38v38h21v2h-21v4h-2v-4h-36v-2h36v-38h-38v10h-2v-10h-5v-2h5v-15h2v15h38v-15h2v15h38v-8
			h2v8h38v-13h2v13h38v-5h2v5h21v2h-21v38h11v2h-11v4H1168z M1008,318v-4h-4v-2h4v-4h2v4h4v2h-4v4H1008z"/>
		<path id="Прямоугольник_1_копия_16" class="st0" d="M1091,527v-21h-38v6h-2v-6h-38v15h-2v-15h-15v-2h15v-38h-8
			v-2h8v-38h-13v-2h13v-18h2v18h7v2h-7v38h9v2h-9v38h38v-11h2v11h38v-1h2v1h14v2h-14v21H1091z M1117,510v-4h-4v-2h4v-4h2v4h4v2h-4v4
			H1117z M1035,430v-4h-4v-2h4v-4h2v4h4v2h-4v4H1035z"/>
		<path id="Прямоугольник_1_копия_23" class="st0" d="M1490,382v-12h-7v-2h7v-38h-38v11h-2v-11h-54v-2h54v-11h2
			v11h38v-21h2v21h5v2h-5v38h3v2h-3v12H1490z M1450,307v-4h-4v-2h4v-4h2v4h4v2h-4v4H1450z"/>
		<path id="Прямоугольник_1_копия_22" class="st0" d="M1484,527v-21h-38v11h-2v-11h-34v-2h34v-11h2v11h38v-38h-7
			v-2h7v-12h2v12h38v-4h2v4h10v2h-10v9h-2v-9h-38v38h5v2h-5v21H1484z M1460,470v-4h-4v-2h4v-4h2v4h4v2h-4v4H1460z"/>
		<path id="Прямоугольник_1_копия_27" class="st0" d="M1524,454v-4h-4v-2h4v-4h2v4h4v2h-4v4H1524z M1524,433v-7
			h-18v-2h18v-38h-9v-2h9v-10h2v10h4v2h-4v38h12v2h-12v7H1524z"/>
	</g>
	<g id="ARK_Messenger_Tutorial" transform="translate(-620.732 24)">
		<path id="Прямоугольник_861_копия_14" class="st0" d="M1174.7,648v-11.8H1162v-1.8h12.7v-4.5h1.8v4.5h34.5v-3.6
			h1.8v3.6h10.9v1.8h-10.9v3.6h-1.8v-3.6h-34.5V648H1174.7z M1236.5,639.8v-3.6h-3.6v-1.8h3.6v-3.6h1.8v3.6h3.6v1.8h-3.6v3.6H1236.5
			z"/>
		<path id="Прямоугольник_861_копия_13" class="st0" d="M1334.5,557v-12.8H1320v-1.8h14.5v-34.6h-11.8v-1.8h11.8
			v-5.5h1.8v5.5h34.5V495h1.8v10.9h6.4v1.8h-6.4v7.3h-1.8v-7.3h-34.5v34.6h16.3v1.8h-16.3V557H1334.5z"/>
		<path id="Фигура_1010_копия_2" class="st1" d="M1394.2,536.1h1c0,0-0.1,26.7-0.1,31.9s4.9,7.3,8.2,7.3l56.4,0v0.9
			c0,5-4.1,9.1-9.1,9.1h-56.4c-5,0-9.1-4.1-9.1-9.1v-30.9C1385.1,540.1,1389.2,536.1,1394.2,536.1z"/>
		<g id="Группа_2_копия_2" transform="translate(1367.69 519.713)">
			<g id="Эллипс_4_копия_2" transform="translate(27.311 0.288)">
				<path class="st2" d="M10,56C4.5,56,0,51.5,0,46V17.2c0-5.5,4.5-10,10-10h55c5.5,0,10,4.5,10,10V46c0,5.5-4.5,10-10,10H10z
					 M18.3,1.8c0-1,0.8-1.8,1.8-1.8S22,0.8,22,1.8s-0.8,1.8-1.8,1.8S18.3,2.8,18.3,1.8z M11,1.8c0-1,0.8-1.8,1.8-1.8
					s1.8,0.8,1.8,1.8s-0.8,1.8-1.8,1.8S11,2.8,11,1.8z M3.7,1.8c0-1,0.8-1.8,1.8-1.8s1.8,0.8,1.8,1.8S6.5,3.6,5.5,3.6
					S3.7,2.8,3.7,1.8z"/>
				<path class="st0" d="M65,54c4.4,0,8-3.6,8-8V17.2c0-4.4-3.6-8-8-8H10c-4.4,0-8,3.6-8,8V46c0,4.4,3.6,8,8,8H65 M65,56H10
					C4.5,56,0,51.5,0,46V17.2c0-5.5,4.5-10,10-10h55c5.5,0,10,4.5,10,10V46C75,51.5,70.5,56,65,56z M20.1,3.6c-1,0-1.8-0.8-1.8-1.8
					c0-1,0.8-1.8,1.8-1.8c1,0,1.8,0.8,1.8,1.8C22,2.8,21.1,3.6,20.1,3.6z M12.8,3.6c-1,0-1.8-0.8-1.8-1.8c0-1,0.8-1.8,1.8-1.8
					c1,0,1.8,0.8,1.8,1.8C14.6,2.8,13.8,3.6,12.8,3.6z M5.5,3.6c-1,0-1.8-0.8-1.8-1.8c0-1,0.8-1.8,1.8-1.8c1,0,1.8,0.8,1.8,1.8
					C7.3,2.8,6.5,3.6,5.5,3.6z"/>
			</g>
		</g>
		<g id="Группа_4_копия" transform="translate(1407.994 542.52)">
			<path id="Прямоугольник_скругл._углы_979_копия_5" class="st0" d="M41.4,19.5
				c-0.7,0-1.4-0.6-1.4-1.4s0.6-1.4,1.4-1.4H45c0.7,0,1.4,0.6,1.4,1.4s-0.6,1.4-1.4,1.4H41.4z M25.9,19.5c-0.7,0-1.4-0.6-1.4-1.4
				s0.6-1.4,1.4-1.4h10c0.7,0,1.4,0.6,1.4,1.4s-0.6,1.4-1.4,1.4H25.9z M16.8,19.5c-0.7,0-1.4-0.6-1.4-1.4s0.6-1.4,1.4-1.4h3.6
				c0.7,0,1.4,0.6,1.4,1.4s-0.6,1.4-1.4,1.4l0,0H16.8z M1.4,19.5c-0.7,0-1.4-0.6-1.4-1.4s0.6-1.4,1.4-1.4h10c0.7,0,1.4,0.6,1.4,1.4
				s-0.6,1.4-1.4,1.4H1.4z M35.9,14c-0.7,0-1.4-0.6-1.4-1.4c0-0.7,0.6-1.4,1.4-1.4c0,0,0,0,0,0H45c0.7,0,1.4,0.6,1.4,1.4
				c0,0.7-0.6,1.4-1.4,1.4c0,0,0,0,0,0H35.9z M25.9,14c-0.7,0-1.4-0.6-1.4-1.4s0.6-1.4,1.4-1.4c0,0,0,0,0,0h4.6
				c0.7,0,1.4,0.6,1.4,1.4S31.2,14,30.5,14c0,0,0,0,0,0H25.9z M13.2,14c-0.7,0-1.4-0.6-1.4-1.4c0-0.7,0.6-1.4,1.4-1.4h7.3
				c0.7,0,1.4,0.6,1.4,1.4c0,0.7-0.6,1.4-1.4,1.4H13.2z M1.4,14C0.6,14,0,13.4,0,12.7c0-0.7,0.6-1.4,1.4-1.4h6.4
				c0.7,0,1.4,0.6,1.4,1.4S8.5,14,7.7,14c0,0,0,0,0,0H1.4z M43.2,8.6c-0.7,0-1.4-0.6-1.4-1.4c0-0.7,0.6-1.4,1.4-1.4c0,0,0,0,0,0h5.5
				c0.7,0,1.4,0.6,1.4,1.4c0,0.7-0.6,1.4-1.4,1.4c0,0,0,0,0,0H43.2z M29.5,8.6c-0.7,0-1.4-0.6-1.4-1.4s0.6-1.4,1.4-1.4c0,0,0,0,0,0
				h8.2c0.7,0,1.4,0.6,1.4,1.4c0,0.7-0.6,1.4-1.4,1.4c0,0,0,0,0,0H29.5z M6.8,8.6C6.1,8.6,5.5,8,5.5,7.3s0.6-1.4,1.4-1.4
				c0,0,0,0,0,0h17.3c0.7,0,1.4,0.6,1.4,1.4s-0.6,1.4-1.4,1.4c0,0,0,0,0,0H6.8z M0,7.3c0-0.8,0.6-1.4,1.4-1.4c0.8,0,1.4,0.6,1.4,1.4
				c0,0.8-0.6,1.4-1.4,1.4c0,0,0,0,0,0C0.6,8.6,0,8,0,7.3z M41.4,3.2c-0.7,0-1.4-0.6-1.4-1.4s0.6-1.4,1.4-1.4c0,0,0,0,0,0H45
				c0.7,0,1.4,0.6,1.4,1.4S45.8,3.2,45,3.2c0,0,0,0,0,0H41.4z M25.9,3.2c-0.7,0-1.4-0.6-1.4-1.4s0.6-1.4,1.4-1.4h10
				c0.7,0,1.4,0.6,1.4,1.4s-0.6,1.4-1.4,1.4c0,0,0,0,0,0H25.9z M16.8,3.2c-0.7,0-1.4-0.6-1.4-1.4c0-0.7,0.6-1.4,1.4-1.4h3.6
				c0.7,0,1.4,0.6,1.4,1.4c0,0.7-0.6,1.4-1.4,1.4H16.8z M1.4,3.2C0.6,3.2,0,2.6,0,1.8c0-0.7,0.6-1.4,1.4-1.4h10
				c0.7,0,1.4,0.6,1.4,1.4c0,0.7-0.6,1.4-1.4,1.4H1.4z"/>
		</g>
		<g id="Группа_5" transform="translate(1056 489.651)">
			<path id="Эллипс_5" class="st3" d="M32.6,11.1c32.8-21,76.5-11.4,97.5,21.4s11.4,76.5-21.4,97.5s-76.5,11.4-97.5-21.4
				c-17.6-27.5-14-63.5,8.6-87"/>
			<g id="Эллипс_5_копия_2" transform="translate(17 7.348)">
				<circle class="st2" cx="9" cy="9" r="9"/>
				<circle class="st3" cx="9" cy="9" r="8"/>
			</g>
			<path id="Эллипс_5_копия" class="st1" d="M14.6,71c0,26.1,19.4,55.5,57.3,55.5c19.9,0,28-8.3,40.4-18.4
				c-18.2,25.6-53.8,31.5-79.3,13.3C7.4,103.2,1.4,67.6,19.7,42.1c3.3-4.7,7.4-8.9,12-12.3C25,38.2,14.6,48.4,14.6,71z"/>
			<g id="Эллипс_5_копия_9" transform="translate(13 14.348)">
				<ellipse class="st2" cx="57" cy="56.5" rx="57" ry="56.5"/>
				<ellipse class="st4" cx="57" cy="56.5" rx="56" ry="55.5"/>
			</g>
			<g id="Эллипс_5_копия_3" transform="translate(32 14.348)">
				<ellipse class="st2" cx="38.5" cy="56.5" rx="38.5" ry="56.5"/>
				<ellipse class="st4" cx="38.5" cy="56.5" rx="37.5" ry="55.5"/>
			</g>
			<g id="Эллипс_5_копия_4" transform="translate(50 14.348)">
				<ellipse class="st2" cx="20.5" cy="56.5" rx="20.5" ry="56.5"/>
				<ellipse class="st4" cx="20.5" cy="56.5" rx="19.5" ry="55.5"/>
			</g>
			<g id="Эллипс_5_копия_5" transform="translate(13 32.348)">
				<ellipse class="st2" cx="57" cy="38.5" rx="57" ry="38.5"/>
				<ellipse class="st4" cx="57" cy="38.5" rx="56" ry="37.5"/>
			</g>
			<g id="Эллипс_5_копия_5-2" transform="translate(13 50.348)">
				<ellipse class="st2" cx="57" cy="20.5" rx="57" ry="20.5"/>
				<ellipse class="st4" cx="57" cy="20.5" rx="56" ry="19.5"/>
			</g>
			<line id="Фигура_1011" class="st4" x1="14" y1="70.3" x2="126" y2="70.3"/>
			<line id="Фигура_1011_копия" class="st4" x1="72" y1="15.3" x2="72" y2="127.3"/>
		</g>
		<g id="Группа_7" transform="translate(1179.536 496.021)">
			<path id="Эллипс_5_копия_6" class="st5" d="M8.8,8.8c14.4,14.8,22.4,34.7,22.4,55.4c0.2,20.4-7.6,40-21.8,54.6"/>
			<path id="Эллипс_5_копия_7" class="st5" d="M8.9,8.9c-3.5-3.7,0-9.4,7.2-1.9c9.6,10,16.5,22.4,20,35.8
				c1.6,6.2,4.7,8.1,11.5,8.1h69.2c6.2,0,7.3-4.7,7.3-7.3V8.2c0-4.6-1.2-8.2-8.2-8.2H98.5c-4.6,0-5.5,3.6-5.5,7.3"/>
			<g id="Эллипс_6" transform="translate(0.464 117.979)">
				<ellipse class="st2" cx="4.5" cy="4" rx="4.5" ry="4"/>
				<ellipse class="st6" cx="4.5" cy="4" rx="5.5" ry="5"/>
			</g>
			<path id="Эллипс_5_копия_8" class="st7" d="M16.6,121.3c9.7-10,16.6-22.4,20-35.8c1.6-6.2,4.7-8.1,11.6-8.1H154
				c6.2,0,7.3,4.7,7.3,7.3v35.5c0,4.6-1.2,8.2-8.2,8.2h-21.9c-4.6,0-5.5-3.6-5.5-7.3"/>
			<g id="Группа_6" transform="translate(68.419 7.537)">
				<g id="Прямоугольник_скругл._углы_979" transform="translate(0.045 0.442)">
					<path class="st2" d="M6,0h36c3.3,0,6,2.7,6,6v24c0,3.3-2.7,6-6,6H6c-3.3,0-6-2.7-6-6V6C0,2.7,2.7,0,6,0z"/>
					<path class="st6" d="M6,1h36c2.8,0,5,2.2,5,5v24c0,2.8-2.2,5-5,5H6c-2.8,0-5-2.2-5-5V6C1,3.2,3.2,1,6,1z"/>
				</g>
				<path id="Фигура_1012" class="st6" d="M5.5,0.7c0,0,16.4,14.7,17.3,15.5c1.1,0.7,2.5,0.7,3.6,0
					c0.8-0.7,16.4-15.5,16.4-15.5"/>
			</g>
			<g id="Группа_6_копия" transform="translate(102.629 84.509)">
				<g id="Прямоугольник_скругл._углы_979-2" transform="translate(-0.164 0.47)">
					<path class="st2" d="M6,0h37c3.3,0,6,2.7,6,6v24c0,3.3-2.7,6-6,6H6c-3.3,0-6-2.7-6-6V6C0,2.7,2.7,0,6,0z"/>
					<path class="st4" d="M6,1h37c2.8,0,5,2.2,5,5v24c0,2.8-2.2,5-5,5H6c-2.8,0-5-2.2-5-5V6C1,3.2,3.2,1,6,1z"/>
				</g>
				<path id="Фигура_1012-2" class="st4" d="M5.9,1c0,0,16.4,14.7,17.3,15.5c1.1,0.7,2.5,0.7,3.6,0C27.6,15.8,43.2,1,43.2,1"
					/>
			</g>
		</g>
		<path id="Прямоугольник_скругл._углы_980" class="st8" d="M1431.3,575.2v48.2c0,5-4.1,9.1-9.1,9.1h-148.7
			c-5,0-9.1-4.1-9.1-9.1v-17.3c0-5,4.1-9.1,9.1-9.1h9.1"/>
		<path id="Прямоугольник_скругл._углы_981" class="st9" d="M1248,527h-8.2c-5,0-9.1-4.1-9.1-9.1v-20
			c0-5,4.1-9.1,9.1-9.1h183.3c5,0,9.1,4.1,9.1,9.1v23.7"/>
		<line id="Фигура_1013" class="st6" x1="1421" y1="522" x2="1443" y2="522"/>
	</g>
</g>
</svg>
