<svg xmlns="http://www.w3.org/2000/svg" viewBox="0 0 40 40" xml:space="preserve"><path d="M8.2 31.5H1.7l9.5-18.7H.2V8h16.9v4.4L8.2 31.5zm31.6-8.3c0 1.2-.2 2.3-.5 3.3-.4 1.1-.9 2-1.5 2.8-.7.8-1.5 1.4-2.4 1.9-1 .5-2.1.7-3.3.7-1.1 0-2.1-.2-3.1-.7s-1.7-1.1-2.2-2h-.1v2.2h-5V11.2L27 8v8.7h.1c.5-.6 1.1-1.1 1.9-1.5.8-.5 1.9-.7 3.1-.7 1.2 0 2.3.2 3.2.7 1 .5 1.8 1.1 2.4 1.9.7.8 1.2 1.7 1.5 2.8.5 1 .6 2.1.6 3.3zm-5.2 0c0-.5-.1-1.1-.3-1.6s-.4-1-.7-1.3c-.3-.4-.7-.7-1.2-1-.5-.2-1-.4-1.7-.4-.6 0-1.2.1-1.6.4-.5.2-.9.6-1.3 1-.3.4-.6.9-.8 1.4-.2.5-.3 1-.3 1.6 0 .5.1 1.1.3 1.6.2.5.5 1 .8 1.4.4.4.8.7 1.3 1 .5.2 1 .4 1.6.4s1.2-.1 1.7-.4c.5-.2.9-.6 1.2-1s.6-.9.7-1.4c.3-.7.3-1.2.3-1.7z" fill="#637282"/></svg>