<svg version="1.1" id="Layer_1" xmlns="http://www.w3.org/2000/svg" x="0" y="0" viewBox="0 0 24 42.7" xml:space="preserve"><style>.st0{fill:#637282}</style><g id="abra_hover" transform="translate(-18.539 51.885)"><path id="Path_74" class="st0" d="M29.9-50.8c-2.2.1-4 1.6-4.7 3.7-.5 1.6-.4 3.3.3 4.8.3.6.8 1.2 1.3 1.6.6.4 1.2.7 1.9.9 1.6.4 3.3.2 4.8-.5.7-.4 1.3-1 1.7-1.7 1-1.9 1-4.2.1-6.2-.3-.5-.7-1-1.2-1.4-.6-.4-1.2-.8-1.9-1-.6-.1-1.2-.2-1.8-.2.1-.1-.2-.1-.5 0z"/><path id="Path_75" class="st0" d="M29.1-36.9c-2.8.5-5.3 2.1-6.8 4.4-1.2 1.8-2 3.8-2.3 6-.6 2.6-1 5.3-1.3 7.9-.1 2.1-.2 4.2 0 6.3.3 1.8.9 3.1 1.9 3.6.6.3 1.2.4 1.8.4.9 0 1.8-.3 2.5-.8 1-.8 1.8-1.8 2.4-2.9.2-.4.5-.7.8-1 .6-.7 1.5-1.1 2.5-1 .9-.1 1.9.3 2.5 1 .3.3.6.7.8 1 .6 1.2 1.4 2.2 2.4 2.9.7.5 1.6.8 2.5.8 1.3.1 2.5-.6 3-1.7.6-1.3.9-2.8.8-4.2.1-3.3-.3-6.6-.9-9.8-.8-4-1.1-5.4-2-7-.5-1.1-1.2-2-2-2.9-1.4-1.5-3.2-2.5-5.2-2.9-1.2-.2-2.3-.2-3.4-.1z"/></g></svg>