<svg viewBox="0 0 258 249" xmlns="http://www.w3.org/2000/svg"><path fill-rule="evenodd" clip-rule="evenodd" d="M.395 248.816 76.648 38.808C86.324 14.288 104.364.41 128.346.008V0c.179 0 .357 0 .536.002l.535-.002v.009c23.982.4 42.021 14.28 51.698 38.8l76.253 210.007-47.218-16.508-65.14-179.397c-3.965-9.923-8.541-13.495-16.128-13.652-7.588.157-12.165 3.73-16.129 13.652l-65.14 179.397L.396 248.816Zm161.665-79.967c0 18.344-14.654 33.214-32.731 33.214-18.078 0-32.732-14.87-32.732-33.214 0-18.343 14.654-33.214 32.732-33.214 18.077 0 32.731 14.871 32.731 33.214Z" fill="#637282"/></svg>