<svg xmlns="http://www.w3.org/2000/svg" viewBox="0 0 110 110" style="enable-background:new 0 0 110 110" xml:space="preserve"><g transform="translate(-520 -586)"><g transform="translate(520 586)"><circle cx="55" cy="55" r="55" style="fill:none"/><circle cx="55" cy="55" r="53" style="fill:none;stroke:#637282;stroke-width:4"/></g><circle cx="575" cy="641" r="45" style="fill:#637282"/><path d="M576 669v-8h-4v8h-5v-8h-11v-6h8v-30h-8v-6h11v-9h5v9h10.2c1.8 0 3.6.2 5.4.7 1.5.4 2.8 1.1 4 2.1 1.1.9 2 2 2.5 3.3.6 1.4.9 2.9.9 4.4 0 1.1-.2 2.2-.6 3.2-.7 2-2.1 3.7-4 4.7-.9.5-1.9.9-3 1v.5c1.3.1 2.6.4 3.8 1 1.1.5 2.1 1.3 3 2.2.8.9 1.5 1.9 2 3.1.5 1.2.7 2.5.7 3.8 0 1.7-.3 3.4-1 5-.6 1.5-1.6 2.8-2.9 3.8-1.3 1.1-2.9 1.9-4.5 2.4-1.9.6-3.9.9-6 .8H581v8h-5zm-4-14h7.5c2 .1 3.9-.4 5.6-1.5 1.3-1.1 2-2.8 1.9-4.5.1-1.7-.6-3.4-2-4.4-1.7-1.1-3.7-1.6-5.7-1.5H572V655zm0-19h6.6c1.9.1 3.9-.4 5.5-1.4 1.3-1 2-2.5 1.9-4.1.1-1.5-.6-3-1.7-4.1-1.4-1.1-3.2-1.6-4.9-1.5H572V636zm4-17v-9h5v9h-5z" style="fill:#fff"/></g></svg>