<svg xmlns="http://www.w3.org/2000/svg" viewBox="0 0 162.2 178.3" style="enable-background:new 0 0 162.2 178.3" xml:space="preserve"><path d="M1254.2 643.1c6.7-3.6 51.9-29.9 56.4-32.4s13.7-10.4 13.7-22.2v-64.9c0-5.9-1.5-14.9-10.2-20.5s-51.8-30.2-59.8-34.2-29-4.5-29 17.1v75.1c0 9.3 8.2 17.1 17.1 17.1s20.5-5.6 20.5-22.2c0-12.1-10.3-15.7-15.4-17.1s-9.5-2.9-12-3.4-5.1-2-5.1-6.8v-10.2c0-2.6-.2-7.3 6.8-5.1s18.9 5.6 23.9 6.8 25.6 11 25.6 35.9c.1 24.4-19.6 44.3-44 44.4h-.4c-24.5 0-41-20.2-41-39.3v-44.4c0-8.8-11.6-18.8-18.8-18.8s-20.5 12.9-20.5 22.2v66.6c0 9.6 4 18.2 13.7 23.9s48.7 27.3 54.6 30.7 17.3 5.3 23.9 1.7z" style="fill:#637282" transform="translate(-1162 -466.733)"/></svg>