<svg version="1.1" id="binance-logo" xmlns="http://www.w3.org/2000/svg" x="0" y="0" viewBox="0 0 50 50" style="enable-background:new 0 0 50 50" xml:space="preserve"><style>.st0{fill:#637282}</style><path id="Path_113" class="st0" d="m15.4 21.1 9.6-9.6 9.6 9.6 5.6-5.6L25 .4 9.9 15.5l5.5 5.6z"/><path id="Path_114" class="st0" d="M.4 25 6 19.4l5.6 5.6L6 30.6.4 25z"/><path id="Path_115" class="st0" d="m15.4 28.9 9.6 9.6 9.6-9.6 5.6 5.6L25 49.6 9.9 34.5l5.5-5.6z"/><path id="Path_116" class="st0" d="m38.5 25 5.6-5.6 5.6 5.6-5.6 5.6-5.6-5.6z"/><path id="Path_117" class="st0" d="M30.7 25 25 19.3l-4.2 4.2-.5.5-1 1 5.6 5.6 5.8-5.6z"/></svg>