<svg version="1.1" id="Слой_1" xmlns="http://www.w3.org/2000/svg" x="0" y="0" viewBox="0 0 131.7 98.4" style="enable-background:new 0 0 131.7 98.4" xml:space="preserve"><style>.st0{fill:#637282}</style><g id="bitexen" transform="translate(-86 -823.592)"><path id="Фигура_15" class="st0" d="M99 922s56.6-56.7 64-64 21-9.2 28-2 8.7 19.5 3 26-8 9.1-10 11-5.7 5.2-10.8.9c-1.8-1.5-3-2.6-3-2.6L154 903s8.8 8.7 12.9 13.2 12.7 7.3 19.1 1.8 10.6-9.7 20-20 20.7-37.2 0-55-44.1-12-57 1-57.2 57.1-59 59-3.1 7.1 0 10 9 9 9 9z"/><g id="Фигура_16"><path id="Фигура_16-2" class="st0" d="M86 834s5.1-5.2 8-8 7.8-3.6 11 0 67 67 67 67l-13 15-73-74z"/><path id="Gradient_Overlay" d="M86 834s5.1-5.2 8-8 7.8-3.6 11 0 67 67 67 67l-13 15-73-74z" style="opacity:.9;fill:#637282;enable-background:new"/></g></g></svg>