<svg width="200" height="200" viewBox="0 0 200 200" fill="none" xmlns="http://www.w3.org/2000/svg">
<path fill-rule="evenodd" clip-rule="evenodd" d="M70 0C31.3401 0 0 31.3401 0 70V130C0 168.66 31.3401 200 70 200H130C168.66 200 200 168.66 200 130V70C200 31.3401 168.66 0 130 0H70ZM57.341 68.3521C39.6046 68.3521 35.8422 56.1173 36.1781 50H16.0231C15.5192 62.896 23.0775 88.688 57.341 88.688V112C57.341 135.954 75.0751 156.446 99.0228 157C123.502 157.566 142.682 136.485 142.682 112V88.688C176.945 88.688 184.504 62.896 184 50H163.845C164.181 56.1173 160.418 68.3521 142.682 68.3521V50H122.023V68.3521H77.9999V50H57.341V68.3521ZM78.0228 87H122.023V114C122.023 126.15 112.173 136 100.023 136C87.8727 136 78.0228 126.15 78.0228 114V87Z" fill="#667280"/>
</svg>
