<svg width="200" height="200" viewBox="0 0 200 200" fill="none" xmlns="http://www.w3.org/2000/svg">
<path d="M25.0162 80.632C21.6482 88.4 25.2962 97.48 33.0642 100.76C35.2162 101.696 37.5602 102.072 39.9922 101.976H45.4242L60.8722 47.952H34.4722L25.0162 80.632Z" fill="#4B596B"/>
<path d="M170.888 68.84C163.776 54.608 151.32 47.776 133.72 47.776H100.952L85.5999 102.08H108.912C112.656 101.52 116.312 103.488 117.808 106.952C119.496 112.192 119.304 117.904 117.344 123.152C115.848 129.52 112.76 135.416 108.352 140.288C105.072 143.752 100.584 145.72 95.8079 145.624C91.8719 146.088 88.1279 143.848 86.6319 140.192C85.1359 134.576 85.5119 128.584 87.6639 123.152L116.224 22.408C118.096 17.072 117.352 11.264 114.168 6.58404C110.984 2.18404 105.744 -0.247961 100.312 0.0320388H68.5759L30.9199 132.688C10.3199 205.248 83.2559 199.912 83.2559 199.912C83.2559 199.912 149.64 201.408 171.544 124.448C177.912 101.792 177.72 83.064 170.888 68.84Z" fill="#667280"/>
<path d="M171.544 124.168C178.008 101.696 177.816 83.064 170.888 68.928C163.776 54.792 151.32 48.048 133.72 48.048H109L93.6479 102.072H108.816C112.56 101.512 116.208 103.48 117.712 106.848C119.4 112.088 119.208 117.712 117.248 122.856" fill="url(#paint0_linear_9358_31832)"/>
<defs>
<linearGradient id="paint0_linear_9358_31832" x1="148.507" y1="111.896" x2="130.173" y2="81.9358" gradientUnits="userSpaceOnUse">
<stop stop-color="#4B596B" stop-opacity="0"/>
<stop offset="1" stop-color="#4B596B"/>
</linearGradient>
</defs>
</svg>
