<svg width="200" height="200" viewBox="0 0 200 200" fill="none" xmlns="http://www.w3.org/2000/svg">
<path d="M6.46304 137.656C0.228626 112.469 25.4156 101.995 37.3857 121.446C49.0233 138.57 69.5553 172.818 117.685 172.818C153.994 172.818 181.193 153.367 190.254 143.641C169.057 181.795 134.293 200 97.9842 200C52.5977 200 14.4431 164.09 6.46304 137.656Z" fill="#667280"/>
<path d="M193.434 62.3442C199.668 87.5312 174.481 98.005 162.511 78.5536C150.874 61.4298 130.342 27.182 82.2119 27.182C45.9027 27.182 18.704 46.6334 9.64336 56.3591C30.8404 18.2045 65.6035 -3.17425e-06 101.913 0C147.299 3.96782e-06 185.454 35.9102 193.434 62.3442Z" fill="#667280"/>
<path d="M99.4805 165.337C118.682 164.921 164.468 152.519 193.994 106.234C200.727 156.11 123.919 172.627 99.4805 165.337Z" fill="#667280"/>
<path d="M100.416 34.6633C81.2144 35.0789 35.4289 47.4813 5.90271 93.7656C-0.830458 43.8902 75.9775 27.3733 100.416 34.6633Z" fill="#667280"/>
<path fill-rule="evenodd" clip-rule="evenodd" d="M146.363 99.7506C146.363 125.643 125.373 146.633 99.4805 146.633C73.5878 146.633 52.5977 125.643 52.5977 99.7506C52.5977 73.858 73.5878 52.8678 99.4805 52.8678C125.373 52.8678 146.363 73.858 146.363 99.7506ZM78.7506 70.871H71.7997V80.9662H78.7506L78.5012 118.036H71.5503V128.131H78.5012V132.17H87.6864V128.131H102.333V132.17H112.015V128.131C116.731 128.131 126.413 122.327 126.413 111.222C126.413 103.741 121.675 99.5012 121.675 99.5012C121.675 99.5012 126.663 95.5112 126.663 87.7805C126.663 76.6758 116.981 70.871 112.264 70.871V66.8329H102.582V70.871H87.9358V66.8329H78.7506V70.871ZM89.0067 80.798H110.702C114.697 80.798 117.934 84.0358 117.934 88.0299C117.934 92.024 114.697 95.2618 110.702 95.2618H89.0067V80.798ZM89.0067 104.239H110.702C114.697 104.239 117.934 107.477 117.934 111.471C117.934 115.465 114.697 118.703 110.702 118.703H89.0067V104.239Z" fill="#667280"/>
</svg>
