<svg version="1.1" id="Layer_1" xmlns="http://www.w3.org/2000/svg" x="0" y="0" viewBox="0 0 48 48" style="enable-background:new 0 0 48 48" xml:space="preserve"><style>.st0{fill:#637282}</style><path class="st0" d="M24.7 31.8v-.4.4zm3.2-8h.3c1 0 1.9-.8 1.9-1.9v-1.8c0-1-.8-1.9-1.9-1.9h-1.8v-2.9h-1.7v2.9h-2.2v-2.9h-1.7v2.9h-2.6c-.2 0-.4.2-.4.4v10.6c0 .2.2.4.4.4h2.6v2.6h1.7v-2.6h2.2v2.6h1.7v-2.6h1.5c1.3 0 2.3-1 2.3-2.3V26c.1-1.2-1-2.2-2.3-2.2zm-7.6-3.7h6.6c.5 0 .9.4.9.9v1c0 .5-.4.9-.9.9h-6.6v-2.8zm7.6 6.7c0 .6-.4 1-1 1h-6.6v-3h6.6c.6 0 1 .4 1 1v1z"/><path class="st0" d="M24 0v1.7c12.3 0 22.3 10 22.3 22.3S36.3 46.3 24 46.3 1.7 36.3 1.7 24H0c0 13.3 10.7 24 24 24s24-10.7 24-24S37.3 0 24 0z"/><path class="st0" d="M40.9 24c0 9.3-7.6 16.9-16.9 16.9S7.1 33.3 7.1 24 14.6 7.2 23.9 7.1V5.3c-10.3.1-18.6 8.5-18.6 18.8.1 10.3 8.5 18.6 18.8 18.6 10.3-.1 18.6-8.4 18.6-18.7h-1.8z"/><path class="st0" d="M24 10c-3.7 0-7.3 1.5-9.9 4.1l1.2 1.2c4.9-4.7 12.7-4.4 17.4.5 4.5 4.7 4.5 12.1 0 16.9l1.2 1.2c5.5-5.5 5.5-14.3 0-19.8-2.6-2.6-6.2-4.1-9.9-4.1zm9.9 23.9-1.2-1.2M15.3 15.3l-1.2-1.2"/></svg>