<svg viewBox="0 0 289 287" xmlns="http://www.w3.org/2000/svg"><path d="M46.109 287h143.783a45.984 45.984 0 0 0 17.948-3.621 46.24 46.24 0 0 0 20.286-16.696 45.805 45.805 0 0 0 6.937-16.477 46.35 46.35 0 0 0 .937-9.287V150s-9.503 3-15.773 3-15.773-3-15.773-3v105.845H31.547V85.136H135.5s-3-9.488-3-15.568 3-15.568 3-15.568H46.109c-3.121 0-6.235.313-9.293.936a45.892 45.892 0 0 0-8.655 2.685A46.237 46.237 0 0 0 7.874 74.317 45.815 45.815 0 0 0 .937 90.794 46.396 46.396 0 0 0 0 100.081v140.838c0 3.119.313 6.231.937 9.287a45.836 45.836 0 0 0 2.686 8.651 46.222 46.222 0 0 0 16.706 20.274 45.876 45.876 0 0 0 16.487 6.933c3.058.623 6.172.937 9.293.936Z" fill="#637282"/><path d="M218.5 0C206.073 0 196 10.073 196 22.5v25h-25c-12.427 0-22.5 10.073-22.5 22.5s10.073 22.5 22.5 22.5h25v25c0 12.427 10.073 22.5 22.5 22.5s22.5-10.073 22.5-22.5v-25h25c12.427 0 22.5-10.073 22.5-22.5S278.427 47.5 266 47.5h-25v-25C241 10.073 230.927 0 218.5 0Z" fill="#637282"/></svg>