<svg version="1.1" id="Слой_1" xmlns="http://www.w3.org/2000/svg" x="0" y="0" viewBox="0 0 62.4 66.1" style="enable-background:new 0 0 62.4 66.1" xml:space="preserve"><style>.st0{fill:#637282}</style><g id="Group_91" transform="translate(-692.8 -183.7)"><path id="Path_83" class="st0" d="M735.9 185.8c-2-.5-4-.7-6-.7h-.4l-26.1 26.1-6.2 6.2v.4c0 2 .2 4 .7 6l31.9-31.9 6.1-6.1z"/><path id="Path_84" class="st0" d="m753.1 198.8-6.2 6.2-36 36c1.6.9 3.3 1.6 5 2.1L749 210l6.2-6.2c-.5-1.7-1.2-3.4-2.1-5z"/><path id="Path_85" class="st0" d="m743.7 198.9-6.2 6.2-37.5 37.5c1.2 1.2 2.6 2.2 4 3.1l6.2-6.2 30.3-30.3 6.2-6.2c-.9-1.5-1.9-2.8-3-4.1z"/><path id="Path_86" class="st0" d="M749.5 183.7 713 220.3l-6.2 6.2c.9 1.4 2 2.8 3.1 4l6.2-6.2 37.5-37.5c-1.3-1.1-2.7-2.2-4.1-3.1z"/><path id="Path_87" class="st0" d="M737.2 193.9c-1.6-.9-3.3-1.6-5-2.1L726 198l-27 26.9-6.2 6.2c.5 1.7 1.2 3.4 2.1 5l6.2-6.2 36.1-36z"/><path id="Path_88" class="st0" d="m698 214.4 23.7-23.7c-12.5 1.3-22.4 11.2-23.7 23.7z"/><path id="Path_89" class="st0" d="m750.2 211.1-6.2 6.2-25.6 25.6-6.2 6.2c2 .5 4 .7 6 .7h.4l6.2-6.2 26.1-26.1v-.4c0-2-.3-4-.7-6z"/></g></svg>