<svg width="200" height="200" viewBox="0 0 200 200" fill="none" xmlns="http://www.w3.org/2000/svg">
<path d="M105.965 0.156982H63.8932V40.3454H103.454C130.455 40.3454 130.455 81.1617 105.965 81.1617H63.8932V121.978H116.013C143.014 121.978 145.526 161.538 116.013 161.538H63.8932V199.843H121.664C150.549 199.843 176.923 171.586 176.923 136.421C176.923 109.294 161.852 92.4647 154.317 88.0691C157.457 83.4641 163.736 73.8775 163.736 49.7645C163.736 19.6232 131.711 0.156982 105.965 0.156982Z" fill="#667280"/>
<path d="M23.0769 121.978L63.8932 121.978V161.538H23.0769V121.978Z" fill="#667280"/>
<path d="M63.8932 40.3454V81.1617H23.0769V40.3454L63.8932 40.3454Z" fill="#667280"/>
</svg>
