<svg xmlns="http://www.w3.org/2000/svg" viewBox="0 0 42.9 42.9" style="enable-background:new 0 0 42.9 42.9" xml:space="preserve"><path d="M20.3 34.9c-.3.3-.7.6-1 .9-.7.5-1.5 1-2.2 1.4-.8.4-1.6.7-2.4 1-.8.3-1.7.5-2.5.7-.4.1-.9.2-1.3.2l-.6.1h-.6l-.6.1h-2c-1.3 0-2.6-.1-3.8-.2.1-.2.3-.4.4-.6.4-.6.8-1.3 1.1-2 .6-1.4 1.1-2.8 1.5-4.2.4-1.4.8-2.7 1.3-4.1.5-1.3 1.1-2.7 1.8-3.9-.5.5-.9 1.1-1.3 1.7-.4.6-.8 1.2-1.1 1.9-.7 1.3-1.3 2.6-1.8 4-.5 1.3-1 2.7-1.7 3.9-.6 1.2-1.4 2.3-2.3 3.4L0 40.5l1.5.2c1.8.3 3.6.4 5.5.4.5 0 .9 0 1.4-.1l.6-.1.7-.1c.5-.1.9-.2 1.4-.2.5-.1.9-.2 1.4-.3.4-.1.9-.3 1.3-.4.4-.2.9-.3 1.3-.5.8-.4 1.7-.8 2.4-1.4.8-.5 1.5-1.1 2.1-1.8s1.2-1.4 1.6-2.2l-.9.9m10.1-24.4c.5-.5 1.2-.8 1.9-.8s1.4.3 1.9.8c1.1 1.1 1.1 2.8 0 3.8-1.1 1.1-2.8 1.1-3.8 0-.5-.5-.8-1.2-.8-1.9s.3-1.4.8-1.9m1.9 6.3c1.1 0 2.2-.4 3.1-1.3 1.7-1.7 1.7-4.5 0-6.2s-4.5-1.7-6.2 0c-.8.8-1.3 1.9-1.3 3.1s.5 2.3 1.3 3.1c.9.9 2 1.3 3.1 1.3m1.3 6.3c-6.3 5.5-8.9 6-11.4 4.8l2.8-3.6c.4-.5.7-1.1.9-1.8l1.1-4.8-4.8 1.1c-.6.2-1.3.5-1.8.9l-3.6 2.8c-1.2-2.6-.7-5.2 4.8-11.5C26.8 5.1 37.8 3.7 41 3.4c-.1 3.4-1.5 14.5-7.4 19.7zm-4.2 8.5c-.1.3-.2.5-.4.6-.7.5-1.7 1.1-2.6 1.6v-.2c.4-1.7.4-3 0-4 1.2-.4 2.5-1 3.9-2-.3 1.5-.7 3.1-.9 4zm-9.8-3.1c-.4.5-1 .7-1.6.7h-1.4l4.9-5.9-5.9 4.9v-1.4c0-.6.2-1.2.7-1.6l5.2-4.1c.3-.3.7-.5 1.1-.6l2.1-.5-.5 2.1c-.1.4-.3.8-.6 1.1l-4 5.3zm-8.5-10.2h-.2c.5-.9 1.2-1.9 1.6-2.6.2-.2.4-.4.6-.4.9-.2 2.5-.6 3.9-.9-1 1.5-1.7 2.7-2 3.9-.9-.5-2.2-.5-3.9 0zM42 1.9c-.6 0-15 .7-21.5 8.2-.7.8-1.3 1.5-1.8 2.2-1 .3-4.3 1.2-5.8 1.5-.7.1-1.3.5-1.7 1.1-1 1.5-2.8 4.5-2.8 4.6L7 21.6l2.3-1c1.5-.7 4.1-1.3 5-.8.1.1.3.2.3.7 0 1.1.3 2.1.9 3.2l-.3.3c-.9.7-1.4 1.8-1.3 2.9V31h4c1.1.1 2.2-.4 2.9-1.3l.2-.3c1.1.5 2.1.8 3.2.9.4 0 .6.2.7.3.6.9-.1 3.5-.8 5l-1 2.3 2.2-1.3c.1-.1 3.1-1.8 4.6-2.8.6-.4 1-1 1.1-1.7.3-1.5 1.2-4.8 1.5-5.8.7-.5 1.4-1.2 2.2-1.8 7.5-6.6 8.1-21 8.2-21.6V2l-.9-.1z" style="fill-rule:evenodd;clip-rule:evenodd;fill:#637282"/></svg>