<svg version="1.1" id="Слой_1" xmlns="http://www.w3.org/2000/svg" x="0" y="0" viewBox="0 0 164.6 104.6" style="enable-background:new 0 0 164.6 104.6" xml:space="preserve"><style>.st0{fill:#637282}</style><g id="change_now" transform="translate(-1503.431 -1459.876)"><path id="change" class="st0" d="m1615.1 1507.2 2.5-3.9c2 2.3 4.5 3.2 7.8 3.2 3.5 0 7.3-1.6 7.3-6.7v-5c-1.9 2.5-4.8 4-7.9 4.1-6.3 0-10.9-4.5-10.9-12.6 0-7.9 4.6-12.6 10.9-12.6 3.1 0 6.1 1.5 7.9 4v-3.4h5.3v25.3c0 8.9-6.6 11.3-12.6 11.3-4.2-.1-7.3-1-10.3-3.7zm4.3-20.9c0 4.7 2.7 7.9 6.9 7.9 2.5 0 4.8-1.3 6.3-3.3v-9.2c-1.5-2-3.8-3.3-6.3-3.3-4.2 0-6.9 3.1-6.9 7.9zm24 .2c0-7.1 5.2-12.9 12.5-12.9 7.4 0 12.1 5.7 12.1 13.4v1.3h-19c.4 4 3.8 7 7.8 6.8 2.6 0 5.1-1 7-2.7l2.4 3.5c-2.8 2.4-6.3 3.7-10 3.6-7.3 0-12.8-5.2-12.8-13zm5.6-2h13.9c0-3.6-3-6.6-6.6-6.5h-.3c-3.8-.1-6.9 2.8-7 6.5zm-91.3 6.8c0-5.7 4.5-8 8.6-8 3.3 0 6.2 1.1 7.9 3.2v-3.7c0-2.9-2.3-4.6-5.8-4.6-2.8 0-5.4 1.1-7.3 3.1l-2.2-3.7c2.8-2.6 6.5-4.1 10.3-4 5.5 0 10.2 2.3 10.2 8.9v16.3h-5.3v-2.6c-2.1 2.2-5 3.4-7.9 3.3-3.9 0-8.5-2.7-8.5-8.2zm5.4.1c0 2.6 2.2 4.4 5.2 4.4 2.2.1 4.4-.8 5.9-2.5v-3.7c-1.4-1.7-3.6-2.7-5.9-2.5-2.9-.1-5.2 1.6-5.2 4.3zm-59.7-4.9c0-7.4 5.2-12.9 12.7-12.9 4.8 0 7.7 2 9.4 4.4l-3.5 3.3c-1.3-1.9-3.4-3-5.7-2.9-4.5 0-7.4 3.4-7.4 8.2s3 8.2 7.4 8.2c2.3 0 4.4-1 5.7-2.9l3.5 3.3c-1.7 2.3-4.6 4.4-9.4 4.4-7.4-.1-12.7-5.6-12.7-13.1zm99.7 12.4v-15.4c0-3.8-1.9-5.1-4.9-5.1-2.5.1-4.8 1.3-6.3 3.3v17.2h-5.3v-24.6h5.3v3.4c2.2-2.5 5.3-3.9 8.7-4 5.3 0 7.9 2.9 7.9 7.9v17.3h-5.4zm-56.2 0v-15.5c0-3.8-2-5-5-5-2.5.1-4.8 1.3-6.3 3.3v17.2h-5.3v-39h5.3v17.7c2.2-2.5 5.4-3.9 8.7-4 5.3 0 7.9 2.8 7.9 7.8v17.4l-5.3.1z"/><path id="NOW" class="st0" d="M1553.8 1540.1c0-14 10-24.3 24.1-24.3s24.1 10.3 24.1 24.3-10 24.3-24.1 24.3-24.1-10.3-24.1-24.3zm8.5 0c0 9.7 6.1 17 15.6 17s15.6-7.3 15.6-17-6.1-17-15.6-17-15.6 7.2-15.6 17zm82.2 23.5-9.2-34.7-9.1 34.7h-8.8l-13.5-47.1h9.2l9.2 36.3 9.7-36.3h6.6l9.7 36.3 9.1-36.3h9.2l-13.4 47.1h-8.7zm-106.6 0-24.6-33.6v33.6h-8.3v-47.1h8.5l24.1 32.7v-32.7h8.3v47.1h-8z"/></g></svg>