<svg viewBox="0 0 327 340" fill="none" xmlns="http://www.w3.org/2000/svg"><g clip-path="url(#a)"><path d="M172.15 141.788a27.48 27.48 0 0 1 15.407 6.674c5.748 5.039 72.676 81.158 83.174 93.801a123.873 123.873 0 0 1-61.097 44.262 123.85 123.85 0 0 1-75.436.607 123.877 123.877 0 0 1-61.8-43.274 123.921 123.921 0 0 1-4.57-143.673 123.883 123.883 0 0 1 58.926-47.115 123.851 123.851 0 0 1 75.323-4.19 123.874 123.874 0 0 1 63.785 40.29C255.255 101.395 243 113.5 243 113.5l31.784 33.074S312.704 103.513 320 96c1.5-2.5 1.928-2.5-1.248-8.246a169.988 169.988 0 0 0-83.468-74.72 169.94 169.94 0 0 0-111.825-6.547 169.975 169.975 0 0 0-91.614 64.469 170.038 170.038 0 0 0 10.498 211.306 169.966 169.966 0 0 0 97.553 55.066 169.941 169.941 0 0 0 110.625-17.604 169.997 169.997 0 0 0 75.651-82.628c1.401-3.266 1.836-1.92-5.574-8.045-7.41-6.124-90.442-95.285-103.083-107.045-16.456-15.342-31.277-16.995-48.058-16.995a64.098 64.098 0 0 0-31.209 8.105 64.129 64.129 0 0 0-32.851 53.084 64.137 64.137 0 0 0 27.843 55.874 64.098 64.098 0 0 0 62.153 5.721 64.107 64.107 0 0 0 20.37-14.295L191.901 185a27.481 27.481 0 0 1-26.148 11.378 27.479 27.479 0 0 1-23.263-21.943 27.496 27.496 0 0 1 1.954-16.68 27.479 27.479 0 0 1 27.706-15.967Z" fill="#637282"/></g><defs><clipPath id="a"><path fill="#fff" d="M0 0h327v340H0z"/></clipPath></defs></svg>