<svg version="1.1" id="Layer_1" xmlns="http://www.w3.org/2000/svg" x="0" y="0" viewBox="0 0 2000.8 2000.8" style="enable-background:new 0 0 2000.8 2000.8" xml:space="preserve"><style>.st0{fill:#637282}.st1{fill:#3c4249}.st2{fill:#c5c8ca}.st13{fill:#fff}.st22{fill:#b39d57}.st26{fill:#606149}.st27{fill:#c9ad5b}.st29{fill:#b29c57}.st32{fill:#8e8251}.st35{fill:#4b5246}.st37{fill:#5c5e49}.st38{fill:#61624a}</style><path class="st0" d="M2000.5 987.7v28c-1.1 4.3-.2 8.6-.5 12.9v13.5c.1 39.5-3.8 78.7-10.1 117.7-8.8 54.9-22 108.7-39.8 161.3-13 38.4-28.1 75.9-45.8 112.4-20.6 42.7-43.9 83.8-70.2 123.2-21.9 32.7-45.6 64-71.2 94-16 18.8-32.7 36.9-50 54.5-16.4 16.8-33.6 32.8-51.3 48.2-27.6 24.1-56.4 46.8-86.4 67.9-28.3 19.8-57.4 38.1-87.6 55-60.1 33.6-123.1 60.6-188.8 81.1-43.9 13.7-88.7 24.3-134.1 31.8-26.9 4.5-54 8.2-81.2 9.7-13.8.8-27.6 1.3-41.4 1.2h-6.4c-2 .1-3.8-.1-5.2-1.7-3.7-6.5-5.8-13.8-8.5-20.8-28.2-71.5-64.4-138.6-108.1-201.8-22.1-32-46.1-62.4-71.8-91.5-18.1-20.5-36.8-40.4-56.5-59.3-39.7-37.9-82.1-72.6-127.3-103.7-41.7-28.7-85.3-54-130.8-76.1-34.8-16.9-70.6-31.5-107.1-44.2-45.1-15.6-91-28-137.9-36.9-29.3-5.6-58.7-10-88.4-12.8-19.2-1.8-38.5-3-57.7-4-23.8-1.2-47.6-.5-71.4-.6-1.4 0-2.7 0-3.9-.7-2.2-1.7-3-4.3-3.9-6.8-18.6-52.3-33-105.8-42.7-160.5-4.7-26.6-8.4-53.2-11-80.1-2-20.1-2.3-40.2-2.8-60.3-.6-20.7-.5-41.3-.3-62 .2-19 .2-38 1.6-56.9 1.7-23.7 4.6-47.4 8.2-70.9 6.8-43.6 16.1-86.7 28.5-129.1 12.6-42.9 27.8-84.8 46.1-125.6 24.3-54.1 52.7-105.9 86-154.9 22.7-33.4 47.2-65.3 73.8-95.7 16.7-19.1 33.7-37.8 51.8-55.5 31.2-30.6 64-59.2 98.9-85.6 45.2-34.3 92.9-64.6 143.3-90.8 40.7-21.2 82.6-39.6 125.8-55 46.5-16.6 94-29.6 142.4-39.1 28.4-5.6 57-9.8 85.8-12.9C916.8 1.7 941 1 965.3.4c21.2-.5 42.3-.5 63.5-.3 18 .2 36 .1 53.9 1.6 32.2 2.6 64.2 6.8 96 12.5 50.5 8.9 99.8 21.9 148.3 38.4 23.5 8 46.7 16.9 69.4 26.8 2 .9 4.1 1.5 5.6 3.2 2.1 4.1-1.1 5.8-3.6 7.5-11 7.5-21.8 15.4-32.2 23.7-15.4 12.2-30.3 25-44.7 38.4-49.8 45.9-91.7 98.4-128.5 155-31.9 49-61.6 99.4-89.6 150.7-18.7 34.4-36.9 69.1-54 104.3-7.7 15.9-15.5 31.7-22.6 47.9-1.5 3.3-2.6 6.9-5.7 9.3-1.6.8-3.3.6-4.9 0-19.9-7.7-40.2-6.4-60.5-2.3-21.9 4.3-42.6 12.2-62.8 21.4-24.4 11.2-47.6 24.6-69.9 39.6-14.7 9.8-26.9 22.4-38.2 35.7-46.5 54.5-83.6 115.3-118.1 177.9-14.1 25.5-27.4 51.5-37.8 78.8-2.2 5.8-4 11.6-3.9 17.9.1 7.1 3.3 12.3 9.2 16.2 6.6 4.3 14.1 6.3 21.7 6.9 19.6 1.4 38.9 0 57.6-6.8 7.8-2.8 13.6-8.4 19.1-14.2 18.4-19.5 34.5-41 50.1-62.8 19.3-26.9 38.2-54.2 56-82.1 4.2-6.6 10-10.4 17.4-12.5 17.9-5.1 36.3-6.5 54.6-9.1 7.9-1.1 15.8-2.7 23.7-3.3 2.2-.2 4.3-.7 6.1 1.2.8 1.4.8 2.9.4 4.3-1.7 5.8-2.5 11.9-4.7 17.6-1.9 2.8-4.5 2.3-7.1 1.3-14.3-5.5-28.6-1.2-37.9 13.3-10.7 16.6-21.7 33.1-32.3 49.8-8.9 14.1-5.1 31.3 8.7 40.8 6.7 4.6 13.8 8.7 20.5 13.3 2 1.4 4.2 2.7 4.8 5.5.2 2.5-1.2 4.5-2.4 6.4-26 40.2-49.1 82.1-70 125.1-25.7 52.7-49.1 106.5-68.9 161.8-15.1 42.1-28.4 84.6-36.6 128.6-3.9 20.9-5.4 41.9-4.4 63.1.5 9.9 2.8 19.4 7.8 28.2 5.9 10.3 14.8 15.3 26.6 15.7 14.6.5 27.8-4.4 40.8-10.4 21.6-9.9 41.1-23.3 60.1-37.4 22.1-16.4 42.8-34.4 63.2-52.9 20.5-18.6 40.3-37.9 59.5-57.8 30.8-32.1 60.5-65.2 88.6-99.6 27.6-33.8 54.3-68.4 78.3-104.8 1.3-1.9 2.5-3.9 4.8-4.9 2.7-.8 4.8.7 7 1.9 3.6 2 7 4.6 10.7 6.4 13.1 6.4 27.7 3 36.6-8.6 5.2-6.8 9.4-14.1 14.1-21.2 6.7-10.3 13.6-20.6 20.1-31 8.6-13.9 7.7-25.9-3.2-38.4-1.5-1.8-3.2-3.4-2.9-6.1 5.3-6.3 10.9-12.3 19.3-14.5 1.8 1 2.4 2.7 2.9 4.5 6.5 24.3 15.2 48 19.9 72.7 1.9 10.1.5 19.3-5.5 28.5-29.2 45.2-57.8 90.8-81.4 139.3-4.2 8.7-8 17.6-10.4 27-2.8 11 .2 21.5 3 32 4.2 15.3 9.6 30.2 20 42.7 6 7.2 13.2 12.5 23.3 10.5 6.8-1.3 11.9-5.8 16.8-10.4 14.6-14 27.5-29.5 40.1-45.2 37.5-46.7 71.9-95.5 102.5-147 15.8-26.7 30.6-53.9 41.1-83.2 5-13.9 7.1-28.4 9.1-42.9 2.3-17.2 3.5-34.4 4.2-51.7 1.1-27.8-.7-55.2-7.8-82.1-4.6-17.5-11.9-33.6-25-46.5-1-.9-1.8-2-2.1-3.3-.3-3.2 1.7-5.3 3.6-7.4 42.9-48.6 83.9-98.8 122.9-150.5 37.7-49.8 74-100.7 106.4-154.1 27.9-46 51.3-94.1 69.4-144.8 10.3-28.9 18.7-58.3 25.1-88.4.6-2.8.5-6.3 4.6-6.8 2.8.7 4.5 2.8 6.3 4.7 18.9 20.2 37 41.1 54.2 62.7 32.9 41.4 62.5 85.1 88.4 131.2 25.9 46.3 48.4 94.2 66.9 143.9 20 54 35.1 109.3 45.5 165.9 5.1 27.8 9.1 55.8 11.6 84 1.7 18.7 1.9 37.5 2.3 56.3v19.4c.4 3.1-.5 6.3.6 9.3z"/><path class="st1" d="M940.7 1999.6c-1.6.2-3-.3-4.3-1-3.6-.7-7.1-.7-10.7 0-1.5-.3-2.9-.7-4.4-1-2.6-.6-5.1-.7-7.7 0-1.1-.3-2.2-.7-3.3-1-2.6-.6-5.1-.6-7.7 0-1.1-.3-2.2-.7-3.4-1-2.2-.6-4.4-.6-6.6 0-.9 0-1.7-.3-2.2-1.1-2.3-.5-4.5-.6-6.8.1-1.1-.3-2.2-.7-3.3-1-1.6-.7-3.2-.7-4.7 0-.8-.3-1.6-.7-2.3-1-1.9-.6-3.8-.6-5.6 0-.8-.3-1.6-.7-2.4-1-1.6-.6-3.2-.7-4.8.1-.7-.4-1.4-.7-2.1-1.1-1.6-.6-3.2-.6-4.8 0-.8-.3-1.6-.6-2.3-1-1.5-.7-3.1-.6-4.7 0-15.3-3.1-30.7-5.4-46-8.5-23.5-4.8-46.7-10.4-69.7-16.8-43.8-12.1-86.6-27.3-128.3-45.5-41.9-18.2-82.4-39.1-121.4-62.8-38.1-23.2-74.5-49-109.2-77-32.8-26.5-63.7-55-93-85.3-24.1-24.9-46.6-51.1-67.9-78.4-24.4-31.3-46.8-63.9-67.4-97.7-19.2-31.6-36.3-64.3-51.9-97.9-10.4-22.3-20-45-28.5-68.1-.7-2-1.8-3.9-1.7-6.2 30.3-1.6 60.6-.9 90.9.8 44.6 2.5 88.9 8 132.7 16.7 170.5 33.6 322.2 106.3 454.6 218.6 132.9 112.7 229.8 251.1 291.2 414.2.2.6.4 1.3.6 1.9.9 2.8-1 2.6-2.7 2.6h-9.9c-3.8.3-7.7-.6-11.5.5h-17c-9.7-.8-19.3-.8-29 0h-4c-1.1-1.2-2.7-.9-4.1-1.1-4.3-.7-8.5-.6-12.7 0z"/><path class="st2" d="M961.5 2000.7c3.8-2 7.9-1 11.8-.9 5.7.2 11.6-1.2 17.2.9h-29z"/><path d="M1018.6 1999.9c3.1-.1 6.2-.1 9.3-.2 1.6 0 3.4.3 3.7-2.1.9 1.6 2.2 2.3 4 2.3.4.2.5.4.3.6-.1.2-.3.2-.4.2h-17c-.7-.3-.6-.6.1-.8z" style="fill:#9da4a8"/><path d="M1999.6 1028.8c0-4.4-.9-8.8.9-13.1v13c-.2.5-.5.5-.9.1z" style="fill:#5a676d"/><path d="M1018.6 1999.9c0 .3-.1.6-.1.8h-11c3.6-1.8 7.4-.8 11.1-.8z" style="fill:#b7bbbd"/><path d="M2000.5 987.7c-1.8-2.9-.8-6-.9-9.1.3-.5.6-.4.9.1v9z" style="fill:#4a5960"/><path d="M2000.5 978.7c-.3 0-.6-.1-.9-.1v-8c.3-.5.6-.5.9.1v8z" style="fill:#6e797f"/><path d="M1999.6 1028.8c.3 0 .6-.1.9-.1v8c-.2.5-.5.6-.8.1 0-2.7-.1-5.3-.1-8z" style="fill:#9ca3a7"/><path d="M1035.5 2000.7c0-.3 0-.5.1-.8h7c0 .3-.1.6 0 .9-2.4-.1-4.8-.1-7.1-.1z" style="fill:#cbcfd1"/><path d="M2000.5 970.7c-.3 0-.6-.1-.9-.1v-6c.3-.5.6-.5.8.1.1 2 .1 4 .1 6z" style="fill:#9ea6a9"/><path d="M1999.7 1036.8c.3 0 .6 0 .8-.1v6l-.4.1h-.4v-6z" style="fill:#caced1"/><path d="m2000.5 964.7-.4-.1h-.4v-6c.3-.1.6-.1.8.1v6z" style="fill:#caced0"/><path class="st13" d="M1401.1 83.9c2.7.8 4.5-1 6.3-2.3 18.7-12.6 38.4-23.3 58.3-33.8 2 1.3 3.4 3 4.7 5 11.9 18.5 25.4 35.8 40.3 52 32.6 35.4 70.8 63 114 83.7 32.5 15.6 66.6 25.9 102.2 31.4 2.6.4 5.4.4 7.4 2.5-1.2 18.7-2.5 37.3-5.3 55.8-1.5 9.5-3.1 19-4.8 28.4-.2 1.4-.3 2.6.3 3.8-2.6 2-2 5.1-2.5 7.7-16 74.8-44.3 144.8-81.9 211.1-32.8 57.7-71.3 111.6-110.8 164.7-41.9 56.3-86.3 110.5-132.5 163.2-1.2 1.4-2.3 2.9-3.4 4.3-.2 2.3-1.6 3.9-3 5.6-10.1 11.9-20.7 23.5-31.3 35-25.7 27.8-51.4 55.3-78.4 81.5-11 10.7-22.1 21.1-33.5 31.5-1.6 1.5-3.3 2.9-5.7 2.7-6.3 4.9-12.5 9.7-18.8 14.6-2.8 2-4.7-.4-6.6-1.6-14-9-28-18-41.9-27.2-6.1-4.2-12.7-7.8-18.7-12.4-7.3-4.7-14.7-9.3-22-14.2-1.8-1.2-3.7-2.2-4.7-4.2-.8-3.3 1.3-5.8 2.7-8.3 11.2-19.7 22.1-39.6 31.9-60 12.8-26.8 24.8-53.9 32.4-82.7 2.6-9.8 4.8-19.7 4.7-30 0-1 0-2-.1-3-1.2-13.8-9.1-18.8-22-13.7-14 5.6-25.6 14.9-36.7 24.7-36 32.1-65.8 69.6-94.5 108.2-2 2.7-3.5 6.2-7.5 6.8-3.3-.2-5.7-2.5-8.3-4.2-6.6-4.1-13.1-8.4-19.5-12.7-14.1-8.8-28-18-41.9-27.1-10.5-6.8-21-13.5-31.4-20.5-2.1-1.4-4.9-2.5-4.7-5.9 1.8-7.7 3.6-15.3 5.4-23-1.6-3.6.2-6.9 1.3-10.1 4.8-15.2 10.3-30.2 15.8-45.2 17.2-46.7 36.5-92.5 57-137.9 1.6-3.4 2.6-7.3 6.2-9.4 13.5-28.2 26.7-56.5 40.8-84.4 44-87 91.6-172.1 146.7-252.6 52.3-75.9 115.1-142 191.7-194.4 1.1-.7 3.5-.9 2.3-3.4z"/><path class="st1" d="M1241.6 1017.7c15.9-14.9 31.9-29.7 47.3-45.1 34.6-34.5 67.9-70.1 100.2-106.7 1.3-1.5 2.8-2.8 4.2-4.3 15.1 12.4 22.8 29.3 28 47.5 7.7 27.2 9.3 55 8.6 83.1-.7 25-3.2 49.9-7.6 74.5-4.4 24.9-15.2 47.5-27 69.6-39.8 74.9-88.7 143.6-143.4 208.3-7.6 9-15.6 17.8-24.8 25.3-12.7 10.4-24.5 9.9-35.8-2s-17-26.9-21.7-42.3c-2.2-7.2-3.7-14.5-4.7-21.9-1-6.9-.1-13.6 2.2-20.2 8.3-23.7 20.6-45.5 32.9-67.2 18.3-32.5 37.8-64.3 58.4-95.5 5.4-8.2 6.3-16.2 4.6-25.1-3.6-20.1-10.5-39.2-16-58.8-1.7-6.4-3.6-12.8-5.4-19.2zm-221.8-398.6c-10.4 23.8-21 47.4-31.1 71.4-17.9 42.7-34.9 85.7-48.6 129.9-.1.5-.5.9-.7 1.3-27.4 4.6-55.3 6.1-82.3 12.9-7.6 1.9-13.2 5.8-17.7 12.6C811.3 890.3 782.5 933 750 973c-5.5 6.7-11.3 13.1-17.2 19.5-7.9 8.7-17.4 14.7-29.2 17.2-19.2 4.1-38.4 6.2-57.9 2-3.8-.8-7.3-2.2-10.7-4-10.3-5.5-14.5-14.5-12.1-25.9 2.5-11.6 7.3-22.5 12.3-33.2C672.7 869.7 717.5 795.2 771 726c27-34.9 61.4-59.6 100.1-79.3 28.2-14.3 57-26.8 88.3-32.4 20.6-3.7 40.9-4.2 60.4 4.8z"/><path class="st13" d="M1140.6 1129.4c-49.8 75.3-107.5 144.2-170 209.2-41.7 43.4-85.4 84.7-134.6 119.8-21 15-42.8 28.8-67.7 36.7-7.2 2.3-14.5 3.7-22.1 3.7-15.4-.1-25.9-7.3-32-21.3-5.4-12.3-6.4-25.4-6.3-38.7.1-27.8 5.4-55 12-81.8 16.4-66.6 40.8-130.4 68.3-193.1C818 1096 851.5 1030 891.6 967.5c1.2-1.1 2.6-.7 3.7 0 7.5 4.5 15 8.9 21.9 14.4.5.4.8 1 1.1 1.6 1 3.1-.9 5.4-2.4 7.8-19.8 30.7-37.8 62.4-53.8 95.3-19.8 40.9-36.7 82.8-47.3 127.2-5.7 23.8-8.7 47.8-7.3 72.3.8 14 4.1 27.3 12.7 38.9 9.8 13.2 23.6 17.5 39.2 16.2 22.5-2 42.2-11.7 61-23.4 22.3-13.9 42.5-30.4 61.8-48.2 48.5-44.9 89.1-96.2 125.6-151 1.9-2.8 3.3-6.4 7.3-7.1 2.1-.1 3.8.9 5.5 2 5.4 3.5 10.8 7.1 16.3 10.6 1.9 1.2 4.1 2.4 3.7 5.3z"/><path class="st1" d="M917.4 983.9c-8.6-5.4-17.1-10.8-25.7-16.3-7.5-6.1-16-10.8-24-16.1-17.2-11.3-21-29.3-9.8-46.6 10.3-15.9 21-31.6 30.9-47.8 10.5-17 29.4-20.3 42.7-13 .7.4 1.6.3 2.4.5 4.9 4.6 10.9 7.6 16.4 11.3 19.5 12.8 39.1 25.4 58.6 38.1 1.2.8 2.4 1.8 3.5 2.7 2.4 3.3-.1 5.7-1.8 8-7.5 10.8-15 21.6-22.3 32.5-13 19.4-25.2 39.2-37.2 59.1-1.3 2.1-2.3 4.5-4.4 5.9-2.3 1-4.2 0-6-1.2-6.7-4.2-13.2-8.8-19.9-13-1.6-1-2.2-2.7-3.4-4.1zm223.2 145.5c-7.9-6.4-16.7-11.3-25.1-16.8-3.1-.5-5.9-1.7-8.4-3.6-5.1-3.7-10.5-6.7-15.7-10.2-1.9-1.3-4-2.4-4.5-5 0-2.5 1.5-4.4 2.8-6.3 21.2-29.9 41.1-60.6 60-92 1.6-2.6 2.7-6 6.8-5.7 20.4 13.2 40.8 26.3 61.2 39.5 1.7 1.1 3.4 1.9 5.1 2.9 1.9 1.9 3.8 3.7 5.6 5.7 9.5 10.4 10.9 25.5 3 37.9-11.1 17.4-22.2 34.8-33.7 51.9-10.6 15.8-28.6 19.2-44.6 9-4.1-2.5-7.9-5.6-12.5-7.3z"/><path class="st13" d="M1341.4 1657.6c-8.3.5-16.5 1.7-24.6 3.8-20.2 5.5-29.8 19.8-33.3 39.4-1.1 6.6-1.9 13.2-2.1 19.8-.1.2-.3.5-.4.7-.1-.2-.3-.5-.4-.7-.4-9.3-1.5-18.5-4-27.6-4.7-17.4-16-27.9-33.2-32.2-8.4-2.1-16.9-3.3-25.6-3.3-.4-1.7.9-1.2 1.7-1.3 1.7-.2 3.5.3 5.2-.3 5.9-.1 11.6-1.2 17.2-2.5 21.6-4.9 33-19.1 36.5-40.4 1-6.2 1.7-12.4 2.6-19.9.9 8.4 1.4 15.6 3 22.5 5.4 23.5 17.7 35.1 41.5 39 3.3.5 6.6.8 9.9 1.3 1.8 1.3 4.7-1.3 6 1.7zm-949.9-516.8c7.5-.4 14.9-1.3 22.2-3.1 21.4-5.1 32.9-17.7 36.7-40.6 1.1-6.7 1.6-13.5 2.3-20.3.1-.3.2-.5.3-.8.1.3.2.5.3.8.3 8.2 1.2 16.2 2.9 24.3 4.5 21.7 18.2 33.6 39.5 37.5 6 1.1 12.1 1.7 18.2 2.8-16.3 2.2-33.1 3.1-45.6 15.9-12.3 12.6-13.4 29.2-15.6 45.5-.4-2.7-.7-5.5-1.1-8.2-.4-3-.7-6-1.2-8.9-2.7-14.6-8.1-27.5-21.8-35.2-8.3-4.6-17.4-6.6-26.7-7.7-3.5-.4-6.9-.8-10.4-1.1-.7-.3-.6-.6 0-.9zm-96-280.2c-8.5.6-16.9 1.6-25.1 3.8-20.7 5.5-30.5 20.1-33.8 40.1-.9 5.4-1.4 10.8-2.6 16.3-.7-5.2-1.2-10.4-2.2-15.6-5.1-27.8-19.3-40.8-47.3-43.5-4.1-.4-8.1-.9-12.2-1.6 16.4-2.1 33.2-3 45.9-15.4 12.6-12.4 13.9-28.9 16.3-45.3.3 2.3.7 4.5 1 6.8s.5 4.6.9 6.9c5 29.5 18.9 42.4 48.8 45.5 3.5.4 7 .7 10.4 1.1.6.3.5.6-.1.9zm453.9-283.9c-1-6.4-1.3-12.8-2.8-19.2-5.2-23.2-17.8-35.2-41.4-38.8-5.6-.9-11.2-1.4-16.8-2.1-.7-.3-.7-.5 0-.8 10-.7 19.8-1.9 29.3-5.2 18.5-6.5 26.4-20.9 29.6-39 .5-2.9.8-5.9 1.3-8.9.9-2-.2-4.2.7-6.1-.1-.3 0-.6.1-.9.3-.7.6-.6.8.1.5 6.8 1.3 13.5 2.7 20.2 4.5 21.9 18.3 33.9 39.9 37.6 5.9 1 11.8 1.7 17.8 2.9-5.1.7-10.1 1.3-15.2 2-27 4.1-41.1 18.8-44 46.1-.4 4-.8 7.9-1.2 11.9-.1.8-.4.9-.8.2zm266.9-444c.9 5.4 1.5 10.9 2.6 16.2 4.7 21.7 18.9 33.1 40.2 36.7 6.2 1 12.4 1.7 19.3 2.6-7.4 1-14.2 1.5-20.8 2.8-24.1 4.9-36.3 18-40 42.7-.5 3.3-.9 6.6-1.3 9.9-.6.6.3 2.4-1.6 1.9-.6-6.5-1.6-12.8-3-19.2-5-21.3-19.2-32.2-40-35.7-6.7-1.1-13.5-1.7-21.4-2.7 9.1-.7 17-1.5 24.8-3.1 21.1-4.4 33.4-17.4 37.4-38.4 1-5.2 1.5-10.5 2.3-15.8 1.8-.3.9 1.6 1.5 2.1zM436.7 467.6c-.4-8.3-1.6-16.5-3.8-24.6-4.7-17.6-16.2-28.1-33.7-32.3-7.4-1.8-15-2.8-22.6-3.2-.7-.2-.8-.5-.1-.9 1.9-1.1 4.1.1 6.1-.8 4.9-.8 9.9-1.3 14.7-2.3 21.3-4.5 33.3-17.9 37.2-39 1.2-6.5 2.2-13.1 2.2-19.7.1-.3.2-.5.3-.8.2.2.3.4.5.6 1.3 2.2-.1 4.8.9 7.1.4 6.5 1.6 12.8 3.2 19.1 5.6 20.7 20.4 30.4 40.5 33.7 3.1.5 6.2.8 9.4 1.2 1.8 1.3 4.6-1.2 5.9 1.7-8.5.6-16.8 1.7-25 4-20.6 5.9-29.7 20.9-32.8 40.8-.8 5.1-1.3 10.2-2 15.3-.4.9-.7.8-.9.1zm1407.6 773.2c.7 6.5 1.6 12.9 3.1 19.2 4.9 19.9 18.1 30.7 37.6 34.6 5.7 1.1 11.5 2.1 17.3 2.3.2 2.6-2.3.5-2.9 1.6-8.1.7-16.1 2.1-23.9 4.7-17.1 5.8-25.5 18.7-29 35.6-1.1 5.2-1.5 10.5-2.3 15.8-1.1.6-1.3-.3-1.7-.9-.7-7.1-1.8-14.1-3.8-21-5.8-20.7-21.1-29.6-40.8-32.8-4.1-.7-8.3-.8-12.4-1.2-.7-.4-1.7-.6-1-1.7 8-.4 15.9-1.8 23.6-3.9 18.4-5.1 28.2-17.9 32-35.9 1.1-5 1.6-10.2 2.3-15.3.6-.8.8-1.7 1.9-1.1zM1797.4 689c.1 8.7 1.4 17.2 3.6 25.6 5.1 19 18 29.2 36.7 33 5.2 1.1 10.5 1.6 15.8 2.3.7.5.7 1.1 0 1.6-8.3.8-16.4 2-24.3 4.7-17.5 5.9-26.1 19-29.5 36.2-1.1 5.4-1.5 10.8-2.3 16.2-2.5.1-.6-2.2-1.6-2.9-.8-6.9-1.9-13.8-3.9-20.5-4.9-16.3-15.9-26.1-32.1-30.4-6.3-1.7-12.7-2.6-19.2-3.2-.6-.6-.6-1.1 0-1.7 7.6-.8 15.1-1.9 22.4-4.3 14.5-4.7 24.1-14.2 28.6-28.8 2.3-7.5 3.8-15.1 4-23 1.2-1.3-.9-3.9 1.8-4.8z"/><path d="M1797.4 689c-.6 1.6-1.2 3.3-1.7 4.9-1.1-5.7 1.4-11.1 1.7-16.7V689z" style="fill:#5b5d48"/><path d="M1862.4 749.8c3.6-.1 7.2-.4 11.6 1.8h-11.6c-.5-.6-.5-1.2 0-1.8z" style="fill:#3d4844"/><path class="st13" d="M1224.7 1655.9c-2.3.6-4.6 1.1-6.9 1.7h-9.7c5.6-.3 10.9-2.8 16.6-1.7z"/><path d="M1014.6 124.9v-10.7c.2 4.6 2.6 9 1.7 13.7-2.1-.1-.8-2.2-1.7-3z" style="fill:#525747"/><path d="M1016.4 247.6c.8 4.7-1.2 9.1-1.7 13.7v-9.8c1.1-1.1-1-3.6 1.7-3.9z" style="fill:#5b5e49"/><path d="M1844.4 1363.6v7.6c-2.9-2.7-1.6-5.3-1.8-7.7.6-.4 1.2-.4 1.8.1z" style="fill:#444c45"/><path d="M1795.7 805.7c.5 1 1.1 2 1.6 2.9v8c-1.6-4.5-1.9-7.7-1.6-10.9z" style="fill:#c7ab5b"/><path d="M1784.7 1296.8c.3.6.6 1.1 1 1.7-3.1.6-6-.5-9-.9-.2-.1-.5-.3-.7-.4.2-.1.5-.2.7-.4h8z" style="fill:#837a4f"/><path d="M1842.7 1235.8c-.2-2-.6-4.1 1.1-6.6 1 2.6.8 4.6.6 6.6-.6.5-1.2.5-1.7 0z" style="fill:#716d4c"/><path class="st22" d="M497.4 407.5c-2-.6-4-1.1-5.9-1.7 4-.5 7.9.7 11.9 1 .2.1.5.2.7.4-.2.1-.5.2-.7.3h-6z"/><path d="M1341.4 1657.6c-2-.6-4-1.1-5.9-1.7 4.1-.6 8 .7 12 1 .2.1.5.3.7.4-.2.1-.5.2-.7.4-2.1-.1-4.1-.1-6.1-.1z" style="fill:#a59355"/><path d="M1899.4 1298.5c1-.5 2-1.1 2.9-1.6h7c.8.2.8.4.1.8-1.5 1.2-3.5-.1-5.1.9-1.6 0-3.2-.1-4.9-.1z" style="fill:#9d8d54"/><path class="st13" d="M1014.6 124.9c.6 1 1.1 2 1.7 3v4.8c-.5-.6-1.1-1.3-1.6-1.9 0-2-.1-3.9-.1-5.9z"/><path d="M1842.7 1235.8h1.7v5c-.6.3-1.1.6-1.7.9-.1-1.9 0-3.9 0-5.9z" style="fill:#b8a058"/><path class="st26" d="M518.8 1141.4c2.2-1 4.6-.7 7 0h-7z"/><path class="st22" d="M1842.6 1353.6c.6.3 1.1.6 1.7.9v5c-1.1.7-1.3-.3-1.7-.9v-5z"/><path class="st27" d="M1016.4 247.6c-.6 1.3-1.2 2.6-1.7 3.9v-5.9c.5-.6 1.1-1.3 1.6-1.9 0 1.3 0 2.6.1 3.9z"/><path d="M822.9 516c-2.3.8-4.7 1-7.1 0h7.1z" style="fill:#5f6049"/><path class="st29" d="M1853.4 751.5v-1.6h5c.7.5.7 1.1 0 1.6h-5z"/><path d="M233.8 788.3c.7 2 .9 4.1.3 6.7-1.3-2.5-.2-4.6-.3-6.7z" style="fill:#6a684b"/><path d="M1087.8 188c-1.8.8-3.9.8-6 0h6z" style="fill:#64644a"/><path class="st32" d="M437.5 344.7c-.2.1-.5.1-.8.1v-7.4h.8v7.3z"/><path d="M234.1 927c.4 2.2.7 4.3-.3 7-.3-2.9-.6-5 .3-7z" style="fill:#5a5c48"/><path class="st26" d="M161.1 860.2c2.1-.5 4.2-.9 6.8 0-2.7.9-4.8.4-6.8 0z"/><path d="M1280.7 1589.1v-5.8h.5v6.2c-.2-.1-.4-.3-.5-.4z" style="fill:#555948"/><path class="st35" d="M1909.5 1297.7c0-.3-.1-.6-.1-.8 2.6-.2 5.2-.5 7.7.8h-7.6z"/><path d="M1842.6 1358.6c.6.3 1.1.6 1.7.9 0 1.4.1 2.7.1 4.1h-1.8v-5z" style="fill:#736e4d"/><path class="st37" d="M750.4 582.5v8.2c-1.2-3.7-.9-5.9-.7-8.2.2-.4.4-.4.7 0z"/><path class="st38" d="M1733.6 751.6c-1.2-.1-3.1.7-3.1-.9s2-.8 3.1-.9c.5.6.5 1.2 0 1.8z"/><path d="M1733.6 751.6v-1.7h4c.5.6.5 1.2 0 1.7h-4z" style="fill:#948652"/><path d="M1858.4 751.5v-1.6c1.3 0 2.7-.1 4-.1v1.8c-1.3 0-2.7-.1-4-.1z" style="fill:#726e4c"/><path d="M300.3 859.9c2.3-.3 4.6-.5 7.1.3-2.6.8-4.9.6-7.1.3v-.6zm86.4 281.6c-2.3.3-4.6.5-7.1-.3 2.6-.8 4.9-.6 7.1-.3v.6z" style="fill:#62634a"/><path class="st37" d="M453.2 1214.2c-1.2-1.6-.5-3.4-.9-5.9 2 2.5.7 4.2.9 5.9z"/><path class="st38" d="M1347.4 1657.6v-.8c2.3-.1 4.5-.4 7 .4-2.5.8-4.8.5-7 .4z"/><path d="M1776.6 1296.8c0 .3-.1.5 0 .8-2.2 0-4.5.5-7-.4 2.5-.9 4.8-.5 7-.4z" style="fill:#4c5346"/><path d="M940.8 188.4c2.8-.8 4.6-.9 7-.3-2.4 1-4.1.5-7 .3z" style="fill:#5d5f49"/><path d="M1280.6 1720.6c.3.1.5.1.8 0v6.7h-.8v-6.7z" style="fill:#7e774e"/><path d="M370.7 407.5c-2.3.2-4.5.5-7.1-.3 2.6-.8 4.8-.6 7.1-.3v.6z" style="fill:#5e6049"/><path d="M503.4 407.5v-.7h6.7c-2.2 1.1-4.5.9-6.7.7z" style="fill:#69674b"/><path d="M749.7 449.9c-.2-2.3-.5-4.6.3-7.1.8 2.6.6 4.9.3 7.1h-.6z" style="fill:#5a5d48"/><path d="M437.3 473.5v8.2c-1.2-3.6-.9-5.9-.7-8.2h.7z" style="fill:#545847"/><path d="M683.7 516.5c-2.3.2-4.6.5-7.1-.3 2.6-.8 4.8-.6 7.1-.3v.6z" style="fill:#63634a"/><path class="st32" d="M438.3 351.8c-1.2-2.2-1.2-4.6-.9-7.1 1.6 2.2 1.1 4.7.9 7.1z"/><path d="M453.3 1076.9h-.6v-7.1c.9 3.2.9 5.1.6 7.1z" style="fill:#81794f"/><path d="M370.7 407.5v-.6c1.9-.1 3.9-.1 5.8-.2.1.3.1.6.1.9-2-.1-4-.1-5.9-.1z" style="fill:#b09a57"/><path class="st13" d="M382.6 405.9c-1.9 1.2-4 1.1-6.1.8 1.9-1.2 4-1 6.1-.8z"/><path d="M1737.6 751.6v-1.7h3v1.7c-1-.1-2 0-3 0z" style="fill:#c2a85a"/><path d="M750.4 582.5h-.8c-.1-1.9-.1-3.9-.2-5.8.3-.1.6-.1.9-.1 0 2 .1 4 .1 5.9z" style="fill:#b59e57"/><path class="st29" d="M437.3 473.5h-.6v-5.9c.3 0 .6 0 .8.1 0 2-.1 3.9-.2 5.8z"/><path d="M749.4 456.6c.3 2.1.5 4.2-.7 6.1-.2-2.1-.3-4.2.7-6.1zm.3-6.7h.6v5.9h-.4l-.4-.1c.1-1.9.1-3.9.2-5.8z" style="fill:#bfa659"/><path class="st27" d="M300.3 859.9v.6h-4.9v-.8c1.7.1 3.3.2 4.9.2z"/><path class="st35" d="M1904.4 1298.6c1.6-1 3.3-1 5.1-.9-1.5 1.4-3.3 1-5.1.9z"/><path d="M683.7 516.5v-.6h4.9v.8c-1.7-.1-3.3-.1-4.9-.2z" style="fill:#cbae5b"/><path class="st27" d="M386.7 1141.5v-.6c1.6 0 3.2 0 4.8-.1v.8c-1.6 0-3.2-.1-4.8-.1z"/><path class="st1" d="M1734.4 222.5c-12.5-.5-24.7-3.4-36.8-6.4-98.1-24.5-174.8-79.1-229.9-163.9-.9-1.4-2.2-2.6-2-4.4 28.9-14 58.6-26.2 89.7-34.5 29.7-8 59.7-13.4 90.6-12.5 7.8.2 15.6 1.3 23.3 2.8 9.6 2 17.1 6.9 22.9 14.8 11.3 15.5 18.5 33.1 24.3 51.2 13.8 43.4 18.7 88.1 18.3 133.4-.2 6.5-.3 13-.4 19.5z"/><path class="st2" d="M940.7 1999.6c4.2-1.5 8.5-1.5 12.7 0h-12.7z"/><path d="M925.7 1998.6c3.6-1.5 7.1-1.5 10.7 0h-10.7z" style="fill:#bbbfc2"/><path d="M902.7 1996.6c2.6-1.4 5.1-1.4 7.7 0h-7.7z" style="fill:#cacdce"/><path d="M913.6 1997.6c2.6-1.5 5.1-1.4 7.7 0h-7.7z" style="fill:#bfc3c5"/><path d="M883.7 1994.6c2.2-1.5 4.5-1.3 6.8-.1-2.3.1-4.6.1-6.8.1z" style="fill:#bcc0c2"/><path d="M892.7 1995.6c2.2-1.4 4.4-1.4 6.6 0h-6.6zm-25-3c1.9-1.4 3.7-1.3 5.6 0h-5.6z" style="fill:#bdc1c4"/><path d="M846.7 1989.6c1.6-1.3 3.1-1.3 4.7 0h-4.7z" style="fill:#b8bcbf"/><path d="M860.6 1991.7c1.6-1.4 3.2-1.3 4.8-.1-1.7 0-3.3 0-4.8.1z" style="fill:#c4c7c9"/><path d="M875.6 1993.6c1.6-1.3 3.2-1.3 4.7 0h-4.7z" style="fill:#c7cacc"/><path d="M853.7 1990.6c1.6-1.3 3.2-1.2 4.8 0h-4.8z" style="fill:#c1c5c7"/><path class="st0" d="M355.5 1435.7c12.7.5 24.5 4.7 35.8 10 19.3 9.1 35.7 22 47 40.4 11.5 18.6 15.8 38.4 6.4 59.3-8 17.8-22.7 27.6-40.8 33.2-4.4 1.4-9.1 2.1-13.6 3.1-9.2-.5-18-2.3-26.5-5.9-24-9.9-43.6-25-56.6-47.7-8.9-15.5-12.7-32.2-7.4-49.9 7-23.4 24.1-35.8 46.8-41.8 2.9-.8 6 .4 8.9-.7zm210.9 241.1c38.2 2 70.3 15.8 92 48.5 16.3 24.4 13.6 54.6-7 73.9-9.9 9.3-22.1 14.7-35 18.4-19.4.9-37-4.9-53.6-14.2-18.7-10.5-34-24.5-42.5-44.8-16.9-40 10.6-75 43.3-81.1.9-.1 1.9-.2 2.8-.7zm57.9-146c16.9 10.7 30.1 24.6 36.3 44.1 3.8 12.1 4.2 23.9-1.1 36-7 16-26.2 23-41.7 20.4-4.2-.7-8.6-1.1-12.4-3.4-3.7-3.3-8-5.7-11.6-9.2-13-13-20.4-28.5-22.1-46.7-2.7-27.6 23.2-49.2 49.7-41.5 1 .2 1.9.4 2.9.3z"/><path class="st0" d="M355.5 1435.7c-6.8 2.4-14 3.8-20.8 6.6-27.5 11.4-41.3 40.5-32.4 69.2 7.9 25.3 25.5 42.3 47.6 55.2 11.2 6.6 23.4 11.1 36.4 13.1 1.4.2 2.7 1.1 4.1 1.7-22.6 2.9-44.1-1.2-64.5-11-25.5-12.3-45.7-30.2-54.6-57.9-11-34.4 7.6-64.7 43.7-74.8 13.3-3.7 26.8-4.1 40.5-2.1zm210.9 241.1c-6.7 4-14.4 5.7-21.2 9.9-28.9 17.8-35.3 49.9-20.4 76.8 16.4 29.5 43.1 44.8 75.4 51.3 5.3 1.1 10.9.9 16.1 2.8-37.4 7.8-71.1-.4-100.8-24-17.2-13.7-28.4-31.4-29.8-53.9-.8-13.6 3.7-26 12.7-36.4 13.9-16.1 32.2-23.5 53-25.7 2.2-1.1 4.8.3 7.1-.9 2.6.1 5.3.1 7.9.1zm57.9-146c-3.9 1.5-7.8-.2-11.6-.3-25.2-.6-41.7 20.2-38.4 44.7 2.8 20.7 13.3 36.4 29.3 49.1 1.9 1.5 2.1 1.7 1.9 3.4-28-11.1-46.1-30.7-49.9-61.2-3.7-29.1 17.1-47.7 46.3-43.6 7.9 1.3 15.3 4.1 22.4 7.9z"/><path d="M558.5 1676.8c-2.2 1.5-4.7.8-7.1.9 2.3-1.6 4.8-.9 7.1-.9z" style="fill:#cbcbcb"/><path class="st1" d="M1583.2 402.2c-.6 86.6-70.7 156.2-156.9 155.8-86.4-.5-156.2-70.9-155.7-156.9.6-86.7 70.9-156.1 157.6-155.5 85.9.6 155.7 71.1 155 156.6zm-543.7 511.7c2.7-.8 3.5-3.4 5-5.4 26.4-35.8 54.2-70.6 86.4-101.4 11.8-11.3 24.2-22 38.5-30 4.7-2.6 9.5-4.8 14.9-5.6 9.3-1.5 15 2.4 17.2 11.6 1.9 8.3 1 16.6-.6 24.8-5.3 28.2-16.1 54.5-27.9 80.5-12.2 27-26.1 53.2-40.8 78.9-1 1.7-2.4 3.2-2.5 5.3.5 2.6-.9 4.5-2.1 6.5-18.5 31.2-38.2 61.6-59.1 91.2-1.9 2.7-3.7 5.5-5.5 8.3-8.6 10.6-16.4 21.8-24.8 32.6-22 28.3-45.6 55.2-71.8 79.7-11.4 10.7-23.7 20.5-37.9 27.4-3.3 1.6-6.7 2.8-10.4 3.5-10.4 1.9-17.6-2.7-20-13.1-1.8-7.6-1.1-15.3 0-22.8 2.6-17.4 8.2-33.9 14.5-50.3 14.8-38.9 33.9-75.6 54.5-111.7 1.2-2 2.4-4 3.8-5.9 6.6-12.5 14.3-24.4 21.7-36.3 13.6-21.7 27.7-43 42.7-63.8 1.2-1.5 2.2-3.3 4.2-4z"/><path class="st0" d="M1039.5 913.9c-1.3 5-5.1 8.5-7.9 12.5-19 26.8-36.4 54.6-53.6 82.6-2 3.2-3.8 6.6-5.6 10-1.7.8-3.2.3-4.7-.6-6.2-4.1-12.6-7.8-18.6-12.1-1.5-1-3-2.1-2.7-4.3 2.5-6.9 7-12.8 10.7-19.1 12-19.8 24.4-39.3 37.5-58.3 5.1-7.4 10.3-14.7 15.4-22.1 1.2-1.7 2.7-3.4 2.5-5.8 9.4 5.1 18.1 11.3 27 17.2zm23 163.7c-.7-3.5 2.3-5.3 3.9-7.5 21.9-31 42.3-62.9 61.7-95.5.4-.7 1-1.3 1.5-1.9 9.2 5.3 18.1 11.2 26.8 17.3-2.9 1.5-3.9 4.5-5.4 7-15.4 25.8-31.7 51-48.6 75.8-4.9 7.1-10 14-15 21-1.7 1.1-3.2.3-4.6-.6-5.8-3.8-11.7-7.4-17.5-11.2-1.4-1.1-2.9-2.3-2.8-4.4z"/><path class="st13" d="M1062.5 1077.6c8.3 5.4 16.7 10.8 25 16.1 9.3 6.3 18.7 12.6 28 18.9-2.1.4-2.8 2.2-3.8 3.7-18.7 29-39.1 56.6-61 83.3-10.4 12.7-21.3 25.1-32.6 37.1-7.2 7.6-14.3 15.3-21.9 22.6-24.1 23.2-49.3 45.1-78.2 62.3-15.4 9.2-31.4 16.7-49.1 20.4-15.6 3.2-30.6 2.1-43.5-8.4-10.4-8.5-15.6-20.2-18-33.1-4.4-24.4-2.4-48.7 2.4-72.8 8.1-41 22.5-80 39.5-118.1 18.8-42.2 41.2-82.4 66.2-121.2.9-1.4 2-2.7 1.8-4.5 7.9 5.1 15.8 10.1 23.8 15.2 1.7 1.1 3.5 1.9 5.2 2.8 8.3 6.3 17.2 11.5 25.9 17-22.4 38.5-43 77.8-58.7 119.6-7.1 19-13.7 38.3-14.6 58.9-.2 5.1.1 10.3 2.3 15.1 2.9 6.3 8.2 9.1 15.1 7.8 13.9-2.7 24.9-10.9 35.5-19.5 24.2-19.8 45.2-42.7 65.2-66.7 14.5-17.4 28.4-35.2 41.6-53.6 1.1-1.4 2-2.8 3.9-2.9z"/><path class="st0" d="M1423.8 308.1c48.9-1.5 92.5 34.5 96.5 86.6 4 52.8-35.4 97.4-88.2 100.8-49.7 3.2-95.3-36.4-98.5-85.6-3.6-55 34.6-98.2 90.2-101.8z"/></svg>