<svg version="1.1" id="Layer_1" xmlns="http://www.w3.org/2000/svg" x="0" y="0" viewBox="0 0 55.3 55.3" style="enable-background:new 0 0 55.3 55.3" xml:space="preserve"><style>.st0{fill:#3c4249}.st1{fill:#637282}.st2{opacity:.2;enable-background:new}</style><path class="st0" d="M12.8 38.3c1-2.7 3-4.9 5.6-6.3l4.4 2.5c1.8 1 1.4 3.8-.2 4.7l-9 5.1c-.5.3-1.2.1-1.4-.4-.1-.1-.1-.2-.1-.4-.2-1.7.1-3.5.7-5.2z"/><path class="st1" d="M26.9 26.6c0-1.5-.8-2.9-2.1-3.8L0 8.7c.3 8.1 4.7 15.4 11.7 19.5l11.1 6.3c1.8 1 1.4 3.8-.2 4.7l2.8-1.6c.9-.5 1.4-1.4 1.4-2.4V32l.1-5.4z"/><path class="st2" d="m22.8 34.6-4.4-2.5s2.8 2.4 3.9 3.6c1 1.2.4 3.6.4 3.6 1.5-.9 1.9-3.7.1-4.7z"/><path class="st0" d="M42.5 16.9c-1 2.7-3 4.9-5.6 6.3l-4.4-2.5c-1.8-1-1.4-3.8.2-4.7l9-5.1c.5-.3 1.2-.1 1.4.4.1.1.1.3.1.4.2 1.8-.1 3.6-.7 5.2z"/><path class="st1" d="M28.4 28.7c0 1.5.8 2.9 2.1 3.8l24.8 14.1C55 38.5 50.6 31.2 43.6 27l-11.1-6.3c-1.8-1-1.4-3.8.2-4.7l-2.8 1.6c-.9.5-1.4 1.4-1.4 2.4v3.2c0 .1-.1 5.5-.1 5.5z"/><path class="st2" d="m32.5 20.7 4.4 2.5s-2.8-2.4-3.9-3.6c-1-1.2-.3-3.6-.3-3.6-1.6.9-2 3.7-.2 4.7z"/></svg>