<svg version="1.1" id="Слой_1" xmlns="http://www.w3.org/2000/svg" x="0" y="0" viewBox="0 0 30.9 35" style="enable-background:new 0 0 30.9 35" xml:space="preserve"><style>.st0{fill:#637282}</style><path class="st0" d="M15.7 11.8c1.9 0 3.6 1 4.7 2.6.3.4.7.4 1 .2s.4-.7.2-1c-1.3-2.1-3.5-3.3-5.9-3.3-3.9 0-7 3.2-7 7.1 0 3.8 3.1 7 7 7 2.4 0 4.5-1.1 5.9-3.3.1-.2.2-.8-.2-1-.4-.2-.8 0-1 .2-1.2 1.8-2.8 2.6-4.7 2.6-3 0-5.5-2.4-5.5-5.5 0-3 2.4-5.6 5.5-5.6z"/><path class="st0" d="M29.5 7.7 16.9.4c-.9-.5-2-.5-2.9 0L1.4 7.7C.5 8.2 0 9.2 0 10.2v7.5c0 .4.3.7.7.7h5c.9 0 1-.5 1-1 0-4.9 4-8.9 8.9-8.9 2.8 0 5.4 1.2 7.1 3.6.3.4.7.3 1 .1.3-.3.4-.8.2-1-2-2.6-5-4.2-8.3-4.2-5.5 0-10.1 4.3-10.3 9.9H1.5v-6.8c0-.5.2-1 .7-1.2l12.5-7.3c.4-.2 1-.2 1.4 0L28.7 9c.4.2.7.7.7 1.2v14.5c0 .5-.3 1-.7 1.2l-12.5 7.3c-.4.2-1 .2-1.4 0L2.2 25.9c-.5-.2-.7-.7-.7-1.2V21c0-.4-.3-.7-.7-.7-.5-.1-.8.3-.8.7v3.7c0 1 .6 2 1.4 2.6L14 34.5c.4.2.9.4 1.4.4s1-.1 1.5-.4l12.5-7.2c.9-.6 1.5-1.5 1.5-2.6V10.2c0-1-.5-2-1.4-2.5z"/><path class="st0" d="M6.4 20.2c-.4.2-.5.6-.4.9 1.4 3.8 5.3 6.7 9.7 6.7 3.3 0 6.3-1.6 8.3-4.2.2-.3.1-.8-.2-1-.4-.2-.7-.1-1 .1-1.7 2.2-4.3 3.5-7.1 3.5-3.7 0-6.8-2.1-8.2-5.6-.2-.4-.7-.5-1.1-.4z"/></svg>