<svg xmlns="http://www.w3.org/2000/svg" viewBox="0 0 37.5 43.3" style="enable-background:new 0 0 37.5 43.3" xml:space="preserve"><path d="M18.7 0 0 10.8v21.6l18.7 10.8 18.7-10.8V10.8L18.7 0zm-8.3 13.3c.3-4.1.7-4.5 4.7-4.5 1.3 0 2.6-.1 3.9-.1 1.5.2 3.1.2 4.6.1 1.1-.1 2.2.2 3.2.9.4 2.3.9 4.5 1.3 6.8-5.8.1-11.7.1-17.5.2-1.3-1.2.2-2.3-.2-3.4zm7 18.3c-.3.2-.5.4-.8.6-3.6 3.3-4.2 3.3-6.8-.6-1.3-2.8-2.8-5.4-4.6-7.9-1.4-2.2 1-1.9 1.7-2.4 1.1-.8 1.9-2.8 4.1-1.5 2.1 1.3 3.8 2.4 3.2 5.3-.3 1.5.6 2.4 1.6 3.3.9.9 2.2 1.6 1.6 3.2zM16 26.2c-1.4-.8-.2-2.8-.2-4.2-.1-1.5-1.2-2.6-1.2-4.1 0-.2 0-.4.1-.5h8.7c.1.2.2.4.2.6 0 .7-.6 1.3-.5 2-.6.8-.9 1.8-.9 2.8.1 1.2.3 2.3.6 3.4-.6.1-1.3.2-1.9.2-1.7.1-3.6.5-4.9-.2zm16-1.5c-1.1 1.9-2.1 3.8-3.1 5.7-.4.5-.7 1-1.1 1.6-.7 1.1-1 2.7-2.9 2.5-1.7-.3-3.2-1.4-3.9-3-1.2-2.1 1.6-2.5 2.1-4v-.1c.9-1.3.4-2.7.4-4.1 0-1 0-1.9 1.3-2.2.8-.9 1.8-1.4 3-1.5 1.5 0 2.9 1.1 4.2 2.3 1.2 1 .5 1.9 0 2.8z" style="fill:#637282"/></svg>