<svg viewBox="0 0 263 263" fill="none" xmlns="http://www.w3.org/2000/svg"><path d="M43.41 33.867a131.5 131.5 0 0 1 176.958.707L191.884 65.64a89.35 89.35 0 0 0-120.24-.481L43.41 33.867Z" fill="#637282"/><path d="M77.739 72.86a81 81 0 0 1 109.001.436L175.359 85.71a64.16 64.16 0 0 0-86.339-.345L77.74 72.861ZM33.717 219.424a131.498 131.498 0 0 1 1.008-176.957l31.018 28.536a89.353 89.353 0 0 0-.685 120.24l-31.341 28.181Z" fill="#637282"/><path d="M71.768 187.159a81.001 81.001 0 0 1 .622-109l12.599 11.59a63.88 63.88 0 0 0-.49 85.963l-12.73 11.447Zm148.255 41.583a131.5 131.5 0 0 1-176.96.077l28.345-31.192a89.354 89.354 0 0 0 120.242-.053l28.373 31.168Z" fill="#637282"/><path d="M186.527 192.898a81 81 0 0 1-109.002.048l11.53-12.688a63.855 63.855 0 0 0 85.932-.037l11.54 12.677Z" fill="#637282"/></svg>