<svg viewBox="0 0 132 32" xmlns="http://www.w3.org/2000/svg"><path d="M98.325 22.984V7.594h1.8v15.781c0 1.172-.94 2.188-2.113 2.188h-1.33a2.185 2.185 0 0 1-2.19-2.188V7.594h1.799v15.39c0 .547.391.938.86.938h.314c.39 0 .86-.39.86-.938ZM75.166 7.437c1.174.079 2.191 1.094 2.191 2.266v13.672c0 1.172-.939 2.188-2.19 2.266h-1.41c-1.25 0-2.19-1.016-2.268-2.266V9.703a2.269 2.269 0 0 1 2.269-2.265h1.408Zm.313 15.547V10.016c0-.547-.391-1.016-.939-1.016h-.234c-.548 0-.94.469-.94 1.016v12.968c0 .547.392.938.94 1.016h.313c.469 0 .86-.469.86-1.016Zm10.954-15.39c1.252 0 2.19 1.015 2.19 2.265v13.36c0 1.25-1.017 2.187-2.19 2.265H82.99V7.594h3.443Zm.47 2.734a.928.928 0 0 0-.783-.937h-1.33v14.218h1.173c.47.078.861-.312.94-.78v-12.5Zm-20.5-2.734L63.9 16.5l2.582 8.906h-1.8l-1.643-5.703-1.643 5.703h-1.8l2.426-8.906-2.504-8.906h1.8l1.643 5.703 1.643-5.703h1.8ZM54.667 23.609l-.469 1.485c-.078.156-.235.312-.47.312h-4.616V7.594h5.555l-.469 1.484c-.078.156-.235.313-.47.313h-2.816v5.703h2.973l-.47 1.484c-.078.235-.234.313-.469.313h-2.112v6.64h3.833v.078Zm53.438-9.53 2.113 4.062c.469.859.782 1.875.782 2.812v2.266a2.269 2.269 0 0 1-2.269 2.265h-1.174c-1.173-.078-2.19-1.093-2.19-2.265V20.64c0-.235.156-.391.313-.47l1.486-.39v3.125c0 .547.391.938.939.938.548 0 .939-.39.939-.938v-2.031a5.524 5.524 0 0 0-.782-2.422l-2.113-4.062c-.469-.86-.782-1.875-.782-2.813V9.781c0-1.25.939-2.344 2.269-2.344h1.173c1.252.079 2.191 1.172 2.113 2.344v1.406c0 .235-.157.391-.313.47l-1.487.39v-2.031c0-.547-.391-.938-.939-.938-.547 0-.86.39-.86.938v1.718c.078.86.313 1.641.782 2.344ZM32.526 16.5l7.51 7.5h-2.66c-.469 0-.86-.156-1.173-.469L29.24 16.5l6.963-6.953c.313-.313.782-.469 1.173-.469h2.66l-7.51 7.422ZM18.834 9.547c-.313-.313-.783-.469-1.174-.469H15l7.511 7.422L15 24h2.66c.47 0 .86-.156 1.174-.469l6.963-6.953c0-.078-6.963-7.031-6.963-7.031Zm8.684 8.672-6.963 6.953c-.313.312-.47.781-.47 1.172V29l7.512-7.5 7.51 7.5v-2.656c0-.469-.156-.86-.469-1.172l-7.12-6.953Zm0-3.438 6.964-6.953c.313-.312.47-.781.47-1.172V4l-7.434 7.5-7.51-7.5v2.656c0 .469.156.86.469 1.172l7.041 6.953Z" fill="#637282"/></svg>