<svg width="200" height="200" viewBox="0 0 200 200" fill="none" xmlns="http://www.w3.org/2000/svg">
<path d="M200 100C200 119.778 194.135 139.112 183.147 155.557C172.159 172.002 156.541 184.819 138.268 192.388C119.996 199.957 99.8891 201.937 80.491 198.079C61.0929 194.22 43.2746 184.696 29.2893 170.711C15.3041 156.725 5.77999 138.907 1.92147 119.509C-1.93705 100.111 0.0432836 80.0043 7.61205 61.7317C15.1808 43.459 27.9981 27.8412 44.443 16.853C60.8879 5.8649 80.2219 -2.35852e-07 100 0L100 46.1789C89.3552 46.1789 78.9494 49.3355 70.0986 55.2494C61.2478 61.1634 54.3494 69.5691 50.2758 79.4036C46.2022 89.2381 45.1364 100.06 47.2131 110.5C49.2898 120.94 54.4157 130.53 61.9428 138.057C69.4698 145.584 79.0598 150.71 89.5 152.787C99.9403 154.864 110.762 153.798 120.596 149.724C130.431 145.651 138.837 138.752 144.751 129.901C150.665 121.051 153.821 110.645 153.821 100H200Z" fill="#667280"/>
<rect x="100" y="44.4445" width="55.5556" height="55.5556" fill="#667280"/>
</svg>
