<svg version="1.1" id="Layer_1" xmlns="http://www.w3.org/2000/svg" x="0" y="0" viewBox="0 0 50 50" style="enable-background:new 0 0 50 50" xml:space="preserve"><style>.st1{fill:#637282;display:none}</style><path d="M15.3 50.1H1.2c.1-.7.1-1.5.4-2.1C9.5 35 17.5 22 25.3 8.9c2.4-4 5.3-7.1 9.6-8.8h13c.4 1.9-.2 3.5-1.2 5.1-6 9.9-11.9 19.9-18.1 29.7-3.6 5.7-6 12.6-13.3 15.2zm17.4 0c5.1-9.9 10.7-19.4 17.4-28.3v19.6c-1.6 4.2-4.6 7-8.7 8.7h-8.7zM16.4.1c.5 1.9-.4 3.4-1.4 5-4.2 6.8-8.3 13.7-12.5 20.6-.5.9-.7 2.5-2.4 1.6V8.8C1.7 4.6 4.6 1.7 8.8.1h7.6z" style="fill:#637282"/></svg>