<svg version="1.1" id="Слой_1" xmlns="http://www.w3.org/2000/svg" x="0" y="0" viewBox="0 0 442 442" style="enable-background:new 0 0 442 442" xml:space="preserve"><g id="GRAVIEX" transform="translate(-1318 -2573)"><g id="Эллипс_4" transform="translate(1318 2573)"><circle fill="none" cx="221" cy="221" r="221"/><circle cx="221" cy="221" r="211" style="fill:none;stroke:#637282;stroke-width:20"/></g><g id="Эллипс_3"><path fill="none" d="M1454 2913.5c0-13.9 11.3-25.1 25.1-25.1s25.1 11.3 25.1 25.1c0 13.9-11.3 25.1-25.1 25.1s-25.1-11.3-25.1-25.1zm85-25.5c27.6 0 50-22.4 50-50v-89c0-27.6-22.4-50-50-50s-50 22.4-50 50 22.4 50 50 50c3.5 0 7.9-.1 10.1-1 37.2-14.7 51.3 39.9 11.5 48.7-3.2.7-6.4 1.1-9.6 1.5-4 .5-7.9.8-11.9.8-55.2 0-100-44.8-100-100s44.8-100 100-100 100 44.8 100 100v89c0 55.2-44.8 100-100 100-39.5 0-38.5-50-.1-50z"/><path d="M1479.1 2923.6c5.6 0 10.1-4.5 10.1-10.1s-4.5-10.1-10.1-10.1-10.1 4.5-10.1 10.1c0 5.5 4.5 10.1 10.1 10.1m59.9-.6c46.9 0 85-38.2 85-85v-89c0-46.9-38.1-85-85-85s-85 38.1-85 85 38.1 85 85 85c3.2 0 6.4-.2 10.1-.7 2.8-.3 5.5-.7 8.2-1.3 12-2.6 12.5-10.2 12.1-13.4-.1-1.4-1.2-8.2-8.2-8.2-1.9 0-4.2.5-6.6 1.4-3.7 1.5-8.2 2.1-15.6 2.1-35.8 0-65-29.2-65-65s29.2-65 65-65 65 29.2 65 65v89c0 35.8-29.2 65-65 65-10.5 0-14.2 5.5-14.2 10.3 0 6.1 5.4 9.8 14.2 9.8m-59.9 15.6c-13.9 0-25.1-11.3-25.1-25.1 0-13.9 11.3-25.1 25.1-25.1 13.9 0 25.1 11.3 25.1 25.1.1 13.8-11.2 25.1-25.1 25.1zm59.9-.6c-39.4 0-38.4-50 0-50 27.6 0 50-22.4 50-50v-89c0-27.6-22.4-50-50-50s-50 22.4-50 50 22.4 50 50 50c3.5 0 7.9-.1 10.1-1 4.4-1.7 8.4-2.5 12.1-2.5 27.7 0 34.6 43.4-.6 51.2-3.2.7-6.4 1.1-9.6 1.5-3.9.5-7.9.8-11.9.8-55.2 0-100-44.8-100-100s44.8-100 100-100 100 44.8 100 100v89c-.1 55.2-44.9 99.9-100.1 100z" style="fill:#637282"/></g></g></svg>
