<svg viewBox="0 0 334 341" fill="none" xmlns="http://www.w3.org/2000/svg"><path d="M89.541 136.4c4.264 21.313 14.213 41.204 28.426 59.675l133.207.003c.139 0 .058.143 0 .215-19.232 32.685-46.487 58.735-82.042 76.507 21.32 11.367 45.481 19.892 69.643 24.154 34.111-26.996 59.694-61.096 76.749-98.037 8.528-19.892 14.213-41.204 17.055-62.517H89.541Z" fill="#637282"/><path d="M177.66 336.738c21.319-11.367 41.217-24.155 59.693-38.363-24.162-4.263-48.323-12.788-71.064-24.154C106.596 238.7 68.221 187.55 61.115 130.717c-1.421-7.105-1.421-14.209-1.421-21.313V59.5H274.5V115H334V0H0v107.983c0 93.775 58.272 177.604 156.34 227.334l9.949 5.683 11.371-4.262Z" fill="#637282"/></svg>