<svg xmlns="http://www.w3.org/2000/svg" viewBox="0 0 52.77 48.28"><path data-name="Контур 664" d="m19.09 10.08-2.48 9.47L0 21.71Z" fill="#7a8691"/><path data-name="Контур 665" d="m23.6 48.28 4.14-17.2-5.38-2.22Z" fill="#5b6a79"/><path data-name="Контур 666" d="m16.61 19.54-4.38 9L0 21.71Z" fill="#5b6a79"/><path data-name="Контур 667" d="m23.6 48.28-1.23-19.42-10.14-.35Z" fill="#637281"/><path data-name="Контур 668" d="m16.61 19.54 5.76 9.31-10.14-.34Z" fill="#728291"/><g data-name="Сгруппировать 879" fill="#728291"><path data-name="Контур 669" d="m19.09 10.08 13.79 1.73-16.27 7.74Z"/><path data-name="Контур 670" d="m48 5.77-8.71 10.08.61-9.32Z"/><path data-name="Контур 671" d="M52.77 0 48 5.77l3.76.46Z"/></g><path data-name="Контур 672" d="m43.29 11 8.43-4.78L48 5.77Z" fill="#637281"/><path data-name="Контур 673" d="m27.74 31.08.41-11.57-5.79 9.35Z" fill="#728291"/><path data-name="Контур 674" d="m28.15 19.51-5.79 9.35-5.75-9.31Z" fill="#5b6a79"/><path data-name="Контур 675" d="m32.88 11.81-4.74 7.7H16.61Z" fill="#7a8691"/><path data-name="Контур 676" d="m28.14 19.51-.4 11.57L38.32 41.9Z" fill="#5b6a79"/><path data-name="Контур 677" d="M43.85 35.85 38.26 22l.06 19.91Z" fill="#5b6a79"/><path data-name="Контур 678" d="m39.29 15.85-1 6.14-10.15-2.48Z" fill="#7a8691"/><path data-name="Контур 679" d="M44.41 24.19 38.26 22l1-6.14Z" fill="#728291"/><path data-name="Контур 680" d="m46.61 35.47-6.7-10.74h3.83Z" fill="#728291"/><path data-name="Контур 681" d="m34.14 9.52 5.15 6.33.61-9.32Z" fill="#7a8691"/><path data-name="Контур 682" d="m38.26 22-10.12-2.49L38.32 41.9Z" fill="#637281"/><path data-name="Контур 683" d="m43.85 35.85 2.23 1.25-7.74 4.8Z" fill="#728291"/><path data-name="Контур 684" d="M46.61 35.34 38.26 22l5.59 13.86Z" fill="#637281"/><path data-name="Контур 685" d="m34.14 9.52-6 10 11.15-3.66Z" fill="#5b6a79"/></svg>