<svg width="200" height="202" viewBox="0 0 200 202" fill="none" xmlns="http://www.w3.org/2000/svg">
<path d="M120.873 62.0159C121.469 32.501 104.756 6.78218 96.0512 0.600995C96.0116 0.561193 95.2363 0.143865 95.2957 1.29664C95.2957 1.31644 95.2759 1.31644 95.2759 1.33634C94.3819 57.0871 65.7244 72.1129 50.164 92.5446C15.5848 137.979 44.4403 189.815 81.8215 199.633C82.4581 199.792 84.1868 200.309 87.466 200.984C89.1749 201.343 89.672 199.891 88.4195 197.725C83.9482 189.953 75.9987 176.836 74.4294 159.981C70.8522 120.847 120.177 96.3604 120.873 62.0159Z" fill="#667280"/>
<path d="M139.713 80.9178C139.415 80.699 138.998 80.7188 138.958 81.0961C138.163 88.1921 130.83 102.9 121.171 116.653C88.6583 163.023 105.035 184.051 117.753 198.64C120.098 201.343 121.27 200.747 122.503 198.819C123.655 196.99 125.404 194.664 132.917 191.107C134.089 190.551 162.468 175.485 165.548 141.18C168.51 107.988 147.225 86.999 139.713 80.9178Z" fill="#667280"/>
</svg>
