<svg width="202" height="200" viewBox="0 0 202 200" fill="none" xmlns="http://www.w3.org/2000/svg">
<path d="M201.141 99.2812C201.324 115.737 197.88 131.461 191.116 146.484C181.456 167.876 158.296 185.369 137.147 166.749C119.899 151.573 116.699 120.765 90.8582 116.255C56.6668 112.11 55.844 151.756 33.507 156.236C8.61021 161.295 0.351928 119.424 0.717609 100.409C1.08329 81.3931 6.14188 54.6679 27.778 54.6679C52.6748 54.6679 54.3508 92.3634 85.9519 90.3217C117.248 88.1886 117.796 48.9693 138.244 32.1785C155.888 17.6731 176.641 28.3084 187.032 45.7696C196.662 61.9205 200.898 80.875 201.111 99.2812H201.141Z" fill="#667280"/>
</svg>
