<svg xmlns="http://www.w3.org/2000/svg" xmlns:xlink="http://www.w3.org/1999/xlink" viewBox="0 0 1027 570" xml:space="preserve"><defs><path id="keep_SVGID_1_" d="M0 0h1026.1v569.9H0z"/></defs><clipPath id="keep_SVGID_00000085954471769807707620000010809929275257129147_"><use xlink:href="#keep_SVGID_1_" overflow="visible"/></clipPath><g clip-path="url(#keep_SVGID_00000085954471769807707620000010809929275257129147_)" fill="#637382"><path d="m473.4 78.1-124 74.4-83.4 24c-45.9 13.1-95.7 27.5-110.8 31.9l-27.5 7.9-31.9-.4-32-.5-7 6c-3.9 3.3-7 6.3-7 6.7 0 .4 8 10.8 17.7 23.2 9.7 12.4 17.7 22.8 17.9 23.2.1.4-2.1 6.8-4.9 14.4l-5.1 13.6-17 .2-17 .1-1.8-5c-1-2.8-3.9-11.3-6.5-19-2.6-7.7-5.1-14.4-5.7-14.9-.6-.6-5.6-1.9-13.7-3.5-7-1.3-12.9-2.5-13.1-2.5-.3 0-.5 1-.5 2.4 0 2.1.7 3.1 9.5 12.8l9.6 10.5 8.5 16.1 8.5 16.1 16.6-.1c9.1-.1 19.9-.3 24-.5l7.4-.4 10.6-21.6c5.8-11.8 10.5-22.2 10.5-22.9 0-.8-1.6-3.6-3.9-6.4-2.1-2.8-7.9-10.4-13-16.8l-9-11.8 5.3-1.6c2-.7 4-1.3 6.1-1.7.5 0 12.8 3.8 27.3 8.5l26.3 8.5 14.2 1.8c7.8 1 14.2 1.8 14.3 1.9.1.1-4.4 7.8-9.9 17.1l-10 16.9-22.9 63.1-4.8 58.7-31.7 66.6-6.8 5c-3.8 2.8-6.8 5.4-6.8 5.8 0 1 11.1 40.5 15.3 54.1 2 6.7 3.9 12.4 4.4 12.8.4.4 10.8 4.4 23.1 8.9 17.1 6.4 23.1 8.3 25.3 8.3 2.1 0 2.8-.2 2.8-.8 0-.5-5.3-10.4-11.9-22L127 526l3.2-23.6c2.6-19.4 3.4-23.9 4.4-25.4 2.5-3.6 36.3-44.9 37.2-45.6 1.5-1 113.1-36.3 127.5-40.3 8.1-2.2 12.1-3.1 12.3-2.6 1.8 4.8 8.7 26.3 8.7 27.1 0 .6-3.1 11.4-7 24.2l-7 23.1 1.8 11.3c1.1 7.4 2.8 14.7 5.1 21.7l3.3 10.5-2.1 10c-1.7 8.2-2.1 11.4-1.3 11.8 1.1.4 72.4 11.8 73.2 11.6.3-.1.6-.3.8-.6.2-.3.3-.6.3-1 0-1.8-10.2-21-11.8-22.2-.7-.6-6.9-6.9-13.9-14.1l-12.6-13.1.9-16.8.7-16.7 17.4-33.1c9.5-18.2 17.4-33.3 17.6-33.4.1-.2 7.1 1.4 15.5 3.4l15.3 3.8 60.1 27.9 36.6.1 36.5.1 72.9-37.7 23.8 4.9c13.1 2.7 24 5.1 24.3 5.4s-6.2 4.7-14.2 10l-14.7 9.6-25.7 6-25.7 6.1-8.4-1.4c-4.6-.7-8.6-1.1-9-.9-.5.8-.7 1.7-.6 2.6 0 2.8 6 68 6.4 69 .6 1.8 3.8.5 14-5.6 6-3.5 10.9-6.7 11-6.9.2-.5 21.3-31.7 21.8-32.2.5-.4 43.1-8.5 43.5-8.2.1.1 2.1 9 4.5 19.6 2.4 11.1 4.6 19.7 5.1 20.2 1 1 1.4.9 8.5-3.8l4.7-3.1 5.4-11.8c2.9-6.5 5.6-12.1 5.9-12.4.3-.4 14.7-7.9 31.9-16.7l31.3-16.1 5.6-13.3 5.5-13.3.1-21.2 30.8-23.9 56.3-29.2 4.3-12.5c9.2-26.8 10.1-29.2 10.4-29.2.2 0 5.4 5.7 11.6 12.6l11.3 12.5 41.4 21.6 31.6 6.4c27.9 5.7 31.6 6.3 32.4 5.5 2-2 .4-3-19.2-12.8l-19.4-9.7-16.5-12.4-16.5-12.4-11-12.8c-10.7-12.4-11-12.8-8.8-12.3 1.2.2 9.6 2 18.6 3.9l16.4 3.5 30.9.8c17 .5 33.8.8 37.4.9h6.5v-3.9l-33.5-10.8c-32.5-10.5-34-11.1-53.3-19.7l-19.9-8.8-6-7.2c-3.3-3.9-6.7-7.4-7.4-7.6-.7-.2-7.5-1.5-15.2-2.7-7.6-1.3-13.9-2.3-14-2.4-.1-.1-4.5-11.2-10-24.8-5.5-13.6-10.2-24.8-10.6-25-.4-.1-20.9-13.3-45.6-29.1-41-26.3-45.5-29.5-52.9-35.9-4.4-3.9-27-23.9-50.2-44.4l-42.1-37.3-32.2-6.7C602.7.7 600.7.3 594.2.4h-6.9L473.4 78.1zm134.1-53.6c8.7 11 15.6 20 15.4 20.2-.3.4-87.5 19.9-87.5 19.7 0-.2 37.4-41 48.4-52.8 3.8-4.1 7.2-7.3 7.5-7.3.3.1 7.6 9.2 16.2 20.2zm38.3-1.8 4.1 1.6-10.8 9c-5.9 5-10.8 9-11 9-.3 0-26.5-33-28.9-36.3-.6-.9 14.4 4.5 46.6 16.7zm-4.7-10c9.7 2 17.6 3.8 17.7 3.8-.7.9-1.6 1.7-2.5 2.4l-2.7 2.2-16.2-6.1c-15.6-5.9-18.7-7.1-15.4-6.4.9.2 9.5 2.1 19.1 4.1zm-73 8.3c-3.5 3.6-13.4 13.9-22 22.9-8.6 9-17.1 17.9-19.1 19.9l-3.4 3.5-18.7 4.2c-10.3 2.3-18.9 4.1-19.1 4.1-.4-.2 87.7-60.8 88.5-61 0-.1-2.7 2.8-6.2 6.4zm98.9 3.6 1.2 2-4.1-1.6c-2.3-.8-4.4-1.7-4.7-1.9-.2-.2.5-1.2 1.8-2.3l2.3-1.9 1.1 1.9c.7 1 1.7 2.8 2.4 3.8zm.2 6.1c3.9 1.5 4.5 1.9 6.2 4.6.7 1 1.2 2.1 1.7 3.2-.3.3-39.3 4.5-39.5 4.2-.1-.1 4.2-3.9 9.6-8.4l9.9-8.2 3.9 1.5c2.2.9 5.9 2.3 8.2 3.1zm20.9 9c0 .7-12.7-10.2-13.6-11.7-.6-.9 2.2 1.3 6.2 4.9 4 3.6 7.4 6.6 7.4 6.8zm2.1 1.4c.6.7 1 1.2.8 1.2-.5-.3-1-.7-1.4-1.2-.6-.7-1-1.2-.8-1.2.5.3 1 .7 1.4 1.2zm32 31.8c20.6 16.5 37.2 30.3 37.1 30.5-.2.2-8.2 2.2-17.6 4.4l-17.3 4-16.1-27c-29.9-50.2-26.9-45-25-43.3.8.7 18.3 14.8 38.9 31.4zm-26.5-.1c9.6 16.2 18.1 30.4 18.7 31.5l1.2 1.9-2.7-2c-1.5-1.1-19.9-14.3-40.9-29.4l-38.3-27.4 19.3-2.2c10.5-1.2 20.5-2.1 22.2-2.1l3 .1 17.5 29.6zm-85.4 8.9c-7 17-13 31-13.2 31.3-.4.4-41.5-26-43.3-27.8-.5-.5 7.6-4.7 33.9-17.4 19.1-9.2 34.8-16.8 35-16.8.3-.2-5.4 13.7-12.4 30.7zm65 1.2c23 16.5 41.7 30.2 41.4 30.3-.6.5-80.7 17.9-81 17.5-.1-.1-1.3-16.9-2.7-37.2-1.4-20.4-2.7-38.3-2.8-39.9l-.4-3 1.8 1.2c1 .6 20.6 14.6 43.7 31.1zm-70.8-28.1c-2.2 1.1-15.6 7.6-29.9 14.5-22.7 11-26 12.4-27.2 11.8-2.3-1.2-15.9-10.4-16.1-10.7-.2-.4 74.6-17.6 76.4-17.6.5-.1-1 .8-3.2 2zm24.3 38c1.4 19.9 2.4 36.4 2.1 36.6-.2.3-28.5-12.7-29.4-13.5-.1-.1 5.3-13.6 12.1-29.9 6.8-16.4 12.4-29.6 12.5-29.5.1 0 1.3 16.4 2.7 36.3zM503 91.3c-8.5 10.1-15.7 18.1-15.9 17.9-.7-.7-10.4-26.6-10.1-26.9.4-.4 41-9.7 41.3-9.4.2.2-6.7 8.5-15.3 18.4zm32.9-12.7 8.4 5.5L536 88c-4.5 2.2-13.9 6.7-20.9 10.1-7 3.4-14.2 6.8-16.1 7.7l-3.3 1.5 3-3.3c1.7-1.8 8.7-9.4 15.7-17s12.7-13.7 12.8-13.7c.2-.1 4.1 2.4 8.7 5.3zm-57.8 19.7c2.9 7.7 5.3 14.2 5.3 14.4 0 .2-.6.5-1.3.7-.8.2-25.9 7.4-55.9 16.2-30 8.7-55.1 16-55.7 16.2-.7.2 22-13.6 50.3-30.6 28.3-17 51.6-31 51.8-31 0-.1 2.5 6.3 5.5 14.1zm94.1 4.1c17.6 11.6 23.2 15.5 22.9 16.2-1.8 4.6-53.8 130.2-54.1 130.5-.2.2-11.9-29.7-26-66.5s-25.6-67.1-25.4-67.2c.6-.7 57.8-28.1 58.6-28.1.4-.1 11.2 6.7 24 15.1zm187.3 6.7c-.4.7-2.4 4-4.5 7.2l-3.8 5.9-3.8-1.5c-2.1-.8-6.7-2.5-10.3-3.8l-6.5-2.3 14.7-3.4c8.1-1.9 14.7-3.5 14.8-3.5-.2.6-.4 1-.6 1.4zm40.6 20.8c19 12.2 34.5 22.3 34.3 22.4-.2.2-74.3-26.7-77.8-28.2-1.3-.5-1.2-.8 3.6-8.4 2.7-4.4 5-7.9 5.1-7.9.2 0 15.8 10 34.8 22.1zm-70.7 7.4c4.2 11.3 7.6 20.5 7.5 20.6-.1.1-21.1-5.3-46.7-11.9-25.6-6.7-46.5-12.1-46.3-12.2.8-.3 76.7-16.9 77.2-16.9.3-.1 4 9.2 8.3 20.4zm-217.9 48c13.7 35.8 25 65.2 24.8 65.3-.1.2-142-75.2-142-75.6 0-.2 20.5-13.2 45.6-28.9 42.8-26.9 45.5-28.5 46-27.3.3.8 11.7 30.7 25.6 66.5zm-41.2-63.4c-1.2.7-78.6 49.4-80.1 50.3-.4.2-8-3.5-17.2-8.4s-16.1-9-15.6-9.1c1.7-.6 112.9-33.5 113.5-33.6.3 0 .1.3-.6.8zm155 10.2c3.6 1.7 6.5 3.4 6.5 3.8 0 .4 1.8 25.7 3.9 56.4 2.1 30.6 3.8 55.7 3.8 55.8-.2.2-37.4-125.9-37.4-126.5 0-.2 3.8 1.3 8.4 3.5 4.5 2.2 11.1 5.3 14.8 7zm176.2 25.3 50.8 26.3-5.9 6c-4.8 4.7-10 8.9-15.6 12.7-5.3 3.8-9.8 6.7-10 6.6-.5-.2-12.1-9.6-32.8-26.6l-18.7-15.3-17.4-21.3c-9.6-11.8-18-22-18.7-22.8-1.3-1.7-7-4.6 68.3 34.4zm-182.5 37c11.4 38.5 20.8 70.3 20.9 70.6.1.4-.5.5-1.7.4-1-.1-22.6-2.7-47.9-5.8-37.2-4.5-46-5.8-45.9-6.5.2-1 52-126.2 52.9-127.9.3-.6.7-1 .8-.9.1 0 9.5 31.6 20.9 70.1zm126.5-49.1c8.4 10.2 15 18.5 14.8 18.6-3.1-.6-6.2-1.3-9.2-2.2l-8.8-2.3-5-13.3c-2.7-7.3-5.6-14.8-6.2-16.6-.7-1.8-1.2-3.2-1-3 .1.2 7.1 8.6 15.4 18.8zm60.8 1.9 47.1 17.2v14.9l-12.5-6.5c-50-25.9-83.3-43.3-82.6-43.1.5.2 22.1 8 48 17.5zm-119.6 2.4 49.8 12.8-2.2 2.5c-1.2 1.4-21.9 24-45.9 50.3L644.8 263l-4-58.4c-2.2-32.1-4.2-60.5-4.4-63.1-.2-2.5-.2-4.7.1-4.7.2 0 22.8 5.8 50.2 12.8zm-320.4 15.9c8.7 4.7 15.7 8.5 15.7 8.7-.3.2-213.8 35.4-213.9 35.2-.1-.1 5.3-1.8 12-3.7 6.7-1.9 47.7-13.7 91-26.2 43.3-12.4 78.9-22.6 79-22.5s7.5 3.9 16.2 8.5zm387.4 1.4c4.7 1.2 8.7 2.4 9 2.5.2.2-10.5 15.9-23.7 34.8-21.3 30.4-26.1 37.1-24.7 34.5.2-.4 7.2-16.2 15.6-35.1 13.1-29.8 15.2-34.8 15-36.8-.2-1.2-.2-2.2.1-2.2.1.1 4.1 1.1 8.7 2.3zm-13.5 2.5c-.7 1.2-.8.8-.3-.7.2-.5.5-.8.7-.7.2.1 0 .8-.4 1.4zm-19.7 38.2c-7.5 19.4-13.6 35.4-13.7 35.5-.5.4-55.2 19.6-55.4 19.4-.1-.1 18.4-20.5 41.1-45.4s41.4-45.2 41.4-45.1c.1.3-5.9 16.2-13.4 35.6zm49.6-19c1.9 7.8 3.6 14.6 3.6 15.1.1.8-33.7 26.7-37.3 28.6-.9.5-4.7 1.9-8.4 3.3l-6.8 2.4 1.2-1.7c3.9-6 43.4-61.8 43.7-61.8.2-.1 2 6.3 4 14.1zm16.4-1.8c7.7 6.2 14.1 11.6 14.4 11.8.2.2-4.1 4.1-9.6 8.7-6.1 5-10.1 8-10.3 7.6-.4-1.2-10-39.7-10-40.2 0-.6-1-1.4 15.5 12.1zm78.4 5.3c3.8 9.3 6.7 16.9 6.6 17-.2.2-12.7-1.3-13-1.6-.1-.1-.2-7.5-.4-16.4-.1-8.8-.1-16.1-.1-16.1.1.2 3.2 7.9 6.9 17.1zm-405.8 22.7c38.6 20.5 70.2 37.4 70.1 37.6-.2.2-306.5-27.4-311-28l-2.6-.4 2.4-2.8c1.4-1.6 5.8-6.3 9.9-10.6l7.4-7.8 76.3-12.6c42-7 76.5-12.7 76.7-12.7.3 0 32.2 16.8 70.8 37.3zM854 196.9v7.4l-3.8-3.6c-2.1-2-3.9-3.7-4.1-3.8-.4-.2 6.7-7.4 7.3-7.4.4 0 .6 3.4.6 7.4zM843.7 218c-4.8 4.6-8.8 8.3-8.9 8.2-.1-.1 7.5-21.9 8.4-23.9.6-1.5.7-1.5 5 2.9l4.4 4.4-8.9 8.4zm-33.4-11.4 5.2 4.4-12.7 2.3c-7 1.3-13.1 2.2-13.5 2.1-.9-.1 14.2-13.1 15.3-13.1 2 1.2 3.9 2.7 5.7 4.3zm23.5 9.2-4.4 12.7-2.8-7.3c-1.5-3.9-2.8-7.4-2.8-7.8 0-.5 14.1-10.7 14.4-10.4 0 .2-2 5.9-4.4 12.8zm-609-8.3c-1.7 1.9-5.8 6.4-9 9.8l-5.9 6.3-32.4-3-32.3-2.9 40.6-6.8c22.4-3.7 40.9-6.8 41.4-6.8.3 0-.7 1.5-2.4 3.4zm551.9 10.6c-2.5 1.1-5.1 2.1-7.8 3-4 1.4-9.8 3.5-13 4.6-3.2 1.2-5.6 1.9-5.3 1.7.2-.2 5.8-4.4 12.4-9.3l12-8.9 1.1 4.2c.6 2.2.8 4.4.6 4.7zm93.6-4.6c4.3.5 2.8-.5 23.6 15.7 6.4 5 11.5 9.1 11.4 9.3-1.5-.1-2.9-.4-4.3-.8-3.8-1-5.5-2.1-20.2-12.8-18.2-13.3-17.1-12.5-15.5-12.1 1.6.3 3.3.5 5 .7zm-47.6 9.6c1.1 2.6 2 5.3 2.7 8-.1.1-30.2-9-35.8-10.8-.8-.3 26.4-5.1 28.3-5.1 1.7.1 1.9.4 4.8 7.9zm38.8 5.1c2.8 6.8 5.1 12.5 5 12.7-.2.1-3.5-2.1-7.4-4.8-3.9-2.7-7.3-5.1-7.6-5.3-.2-.2.7-3.6 2.1-7.7 1.4-4.1 2.6-7.3 2.7-7.3 0 0 2.4 5.6 5.2 12.4zm37.7-10.1c5 .7 5.4 1 8.8 5.5 1.2 1.5.4 1.3-7.4-2.4-9-4.1-10.3-4.8-7.8-4.2.8.1 3.7.6 6.4 1.1zm-50.3 5.4c-.6 1.8-1.2 3.5-2 5.1-.2.4-2.6 1.1-5.3 1.6l-4.8 1 6.6-6.4c3.6-3.5 6.7-6.2 6.8-6.1-.3 1.7-.7 3.3-1.3 4.8zM78.5 227c-.7.1-5.7-.1-11.1-.3l-9.8-.5L65 220l7.3 3.4c4.5 2 6.9 3.4 6.2 3.6zm31.7-6.7c2.6.4 2.4.5-8.2 3.6l-10.9 3.2-7.5-3.5c-4.2-1.9-7.7-3.5-7.8-3.6-.5-.4 31.6-.1 34.4.3zm24.2 2.9c.1.1-.4.2-1.2.2s-5.4.4-10.2.9c-4.8.5-9 .8-9.4.8 2.3-.9 4.6-1.7 7-2.3l7.6-2.4 3 1.2c1.1.6 2.1 1.1 3.2 1.6zM878 237.4c-1.5 2.1-5.2 6.2-5.4 5.9-.2-.3-9-21.2-9.3-22.4-.2-.5 3.2 2.8 7.6 7.3 6.5 6.9 7.7 8.5 7.1 9.2zm-57.2-3c20.9 6.4 37.9 11.8 37.8 11.9-.4.3-93.6 5-96.2 4.8l-2.2-.2 10.4-14.4c7.1-9.9 10.7-14.4 11.3-14.2.5.2 18 5.6 38.9 12.1zm83.4-6.8c11.9 5.5 11.4 5 10.5 9.8l-.4 2.2-9.7-7.6c-13-10.1-12.8-10-12.1-9.8.4.3 5.7 2.6 11.7 5.4zM189 225.9c8.5.7 15.7 1.6 16 1.8.6.5-10.2 12.1-11.9 12.8-.7.3-7.5-2.1-20-7-10.5-4.1-18.9-7.5-18.7-7.7.5-.5 13.7-1.7 16.5-1.5 1.4.2 9.6.9 18.1 1.6zm584.1-1.1c-.4.5-16.5 23.1-19.3 27-.1.1-8.8 1.2-19.4 2.5-10.7 1.4-20.5 2.7-21.8 2.8-2.2.3-1.1-.7 11.3-9.9 13-9.7 14.1-10.4 20-12.5 4.5-1.6 26.3-9.4 29.4-10.6.2 0 .1.3-.2.7zm-619.6 5.7c5.6 2.2 10.5 4.2 10.7 4.4.2.2-3.9 2.5-9.1 5.1l-9.6 4.8-20.2-6.5c-11-3.6-20.8-6.8-21.7-7.1-1.3-.5 2.1-1 18.4-2.6 11-1.1 20.2-2 20.6-2.1.3 0 5.3 1.8 10.9 4zm731.4 4.3c-1 .2-2.4-.8-5.3-3.8l-4-4.1 5.3 3.9c4.3 3.1 5.1 3.9 4 4zm-639.7 3c-22 1.7-41.6 3.2-43.3 3.3l-3.1.2 6.4-6.7 6.3-6.7 36.9 3.4 37 3.3-40.2 3.2zm-168.9-6.5c.7.5.7.6-.3.5-.9-.1-1.8-.3-2.7-.5-1.5-.5-1.5-.5.3-.5.9 0 1.9.1 2.7.5zm-1.2 5.3c.2.2 2.3 2.9 4.5 5.9 2.3 3 5.6 7.2 7.2 9.4 1.7 2.1 2.7 3.6 2.2 3.3-.9-.5-25.5-20.4-27.2-21.9-.5-.4 1.9-.1 6 1 3.8 1 7.1 2 7.3 2.3zm778.5.8c1.8 1.2 3.6 2.5 5.3 3.9 0 .2-1.2-.1-13.3-3.9l-7.5-2.3 3.6-.6c6.2-1.1 6.3-1 11.9 2.9zm84 5.3 17.3 7.8.2 4.7c.1 2.5-.1 4.7-.4 4.7s-8.7-3.9-18.5-8.7l-17.9-8.7.3-2.4c.5-3.8.8-5 1.3-5 .3-.1 8.2 3.4 17.7 7.6zm-596.8-3c10.1.9 18.5 1.8 18.7 1.9.4.5 15.5 66.7 15.3 67.4-.2.5-57.3-68.6-58.8-71-.4-.7.2-.7 3.1-.4 1.9.3 11.7 1.2 21.7 2.1zm-169.4 3.1c1.1 2.7 1.9 5 1.7 5.1-.2.3-15.3-1.3-18-1.9-1.3-.3-.3-1 6.1-4.2 4.2-2.1 7.8-3.9 7.9-3.9.2.1 1.2 2.3 2.3 4.9zm127.1-4.6c-.5.6-126.5 70.5-126.5 70.3 0-.7 23.1-61.8 23.6-62.2.2-.2 22.1-2.2 48.6-4.3 46.2-3.7 55-4.3 54.3-3.8zm-113.2 5.3c0 .2-.4.5-.7.7-.4.2-2.2.8-3.9 1.5l-3.2 1.3-1.2-3.2c-.7-1.8-1.4-3.6-1.6-4.2-.3-.8.7-.6 5.1 1.2 3.1 1.2 5.5 2.5 5.5 2.7zm123.1 19.1c.3 12.9.4 23.6.3 23.7-.3.3-127.1 23.1-127.4 23-.2-.2 126-70.5 126.3-70.3.2.1.5 10.7.8 23.6zm584.5-22.3c.6.2 2.7 3 4.6 6.2 1.9 3.2 3.7 6.1 3.9 6.5 1.1 1.7-.2.5-6.4-6.2-6.1-6.4-6.4-7-4.8-6.9.9 0 1.8.1 2.7.4zm6 17.2c9.1 9.4 20 20.6 24.2 24.8l7.5 7.8-1.7.7c-1 .4-6.7 2.4-12.7 4.5l-11 3.8-15-25.1c-8.2-13.8-14.9-25.3-14.8-25.6.3-.8 6.2-7.9 6.5-7.9.2-.1 7.8 7.6 17 17zm-557 20.2c15.6 19 28.6 34.8 28.9 35.3.3.4-12.5-4.9-28.5-11.8l-29-12.5-.4-7.3c-.2-4-.5-14.7-.6-23.6-.2-13.7-.2-16.2.5-15.4.5.4 13.6 16.2 29.1 35.3zm107.2-28.2c44.3 4 80.9 7.3 81.4 7.5.5.1-32.9 13.5-74.2 29.9-41.2 16.4-75.1 29.7-75.2 29.6-.1-.1-3.9-16.4-8.4-36.2s-8.3-36.6-8.5-37.3c-.2-1.2-.1-1.3 2-1 1.3.2 38.6 3.5 82.9 7.5zm274-7.1c-.1.1-2.5 1.9-5.3 4.1-4.2 3.2-4.9 3.5-4.1 2.1 2-3.3 2.7-3.9 5.6-5.1 2.8-1.1 4.5-1.6 3.8-1.1zm182.7.9 4.2 1.1-3 1.2c-1.6.7-3.2 1.3-3.3 1.4-.2.1-1.1-1-2-2.3-1.9-2.8-1.8-2.9 4.1-1.4zM84.7 257.9l15.9 12.9-7.7 9.8c-4.2 5.4-8 10.2-8.4 10.7-.4.4.7-3.2 2.6-8.2 2.8-7.6 3.2-9.2 2.6-10.2-.7-1.1-8.1-10.7-18.7-23.9-2.5-3.2-4-5.3-3.3-4.8.6.3 8.3 6.6 17 13.7zm846.5-4.3c8.2 3.9 14.8 7.1 14.7 7.2-.1 0-6.9-.4-15.3-1-8.3-.6-16.4-1.1-17.9-1.2-2.7 0-2.8-.1-5-3.8l-2.3-3.8 1.4-.6c.7-.3 3-1.3 5-2.2 1.3-.7 2.7-1.2 4.1-1.7.3 0 7.2 3.2 15.3 7.1zm-748.3 2.6c-3.1 4.7-5.7 8.4-5.8 8.4.1-2.3.4-4.5.8-6.8l1-6.6 4.5-1.9c1.5-.8 3.1-1.4 4.8-1.8-1.5 2.9-3.3 5.9-5.3 8.7zm520-3c-1.7 4.3-2.2 5-3.7 5.5-2.8.7-32.3 4.2-33.1 4-.4-.1 8.2-3.4 19-7.3s19.7-7 19.7-7.1c.1 0-.7 2.2-1.9 4.9zm160.8-2.3c0 .4-37.4 27-38.5 27.4-1 .4-59.2-22.2-58.7-22.7.3-.4 83.3-4.7 91.6-4.8 1.9-.1 3.8 0 5.6.1zm136.8 14.4c1.4.4 2.5.8 2.3 1-.2.3-39.2-3.8-42-4.4-1.3-.2-1.4-.6-1.4-5V252l19.3 6.3c10.5 3.5 20.3 6.6 21.8 7zm-128.1-7.9c.2.7.1 1.1-.2.8-.2-.1-.3-.3-.4-.5-.1-.2-.1-.4-.1-.7-.1-1.2.3-1 .7.4zm-129.6 6.1c-2.6 3.8-5.8 8.3-7.1 10.1l-2.4 3.3-2.3 20c-1.3 11-2.4 20.6-2.4 21.3 0 .7-5.2-11.6-11.5-27.2-6.4-15.6-11.4-28.5-11.3-28.6.1-.1 9.4-1.4 20.7-2.8 11.3-1.5 20.7-2.7 20.8-2.8.1 0-1.9 3.1-4.5 6.7zm-153.5.2c23.8 2.8 44.1 5.4 45 5.6 1.6.4-1.8 2.5-34.8 22.2-20 12-36.7 21.9-36.9 22-.4.1-18.7-53.8-18.7-55.1 0-.2.5-.2 1.1-.1.6.2 20.5 2.6 44.3 5.4zm271.4-3.3c-1.2 1.7-8.2 5.9-8.8 5.3-.3-.3 9.6-7.6 10-7.3.1.1-.5 1-1.2 2zm-82.2 18.3c9.6 9 17.4 16.5 17.4 16.7-.1.4-56 46-56.2 45.8-.1-.1 1.9-6 4.4-13.1l4.6-13 4-28.3 4.1-28.3 2.2 1.9c1.1 1.2 9.9 9.4 19.5 18.3zm-229.7 8.1c5.1 15.1 9.1 27.7 8.9 27.9-.3.2-105.9 2-106.2 1.8-.1-.1 87.5-57 88.1-57.2 0-.1 4.1 12.3 9.2 27.5zm249.5-13.7c11.1 4.4 20.5 8.2 20.8 8.4.5.5-17.4 10.7-18.7 10.7-.6 0-34.2-31-34.2-31.5 2 .6 4 1.3 5.9 2.1 3.3 1.3 15.1 5.9 26.2 10.3zm60.2 12.9c-4.1 13.7-7.6 25.3-7.6 25.6-.1.3-2.5-2.7-5.5-6.6-3.1-4.2-5.1-7.4-4.8-7.9.7-1.2 25.2-36 25.3-36s-3.3 11.2-7.4 24.9zm-679.6-9.1c-3.2 8.4-5.9 15.4-6.1 15.6-.2.2-.2-.5.1-1.5.2-1 .8-4.9 1.3-8.7l1-6.9 4.5-6.8c2.5-3.8 4.6-6.9 4.7-6.9.1-.1-2.4 6.8-5.5 15.2zm569.6 10-3.6 25.3-3.5 3.2c-5.5 5-5.6 5.1-5.3.6.2-2.1.5-11.1.7-20l.4-16.2 7.4-9.1c4-5 7.3-9.1 7.4-9.1 0 0-1.5 11.4-3.5 25.3zm135.7-14.6c3 5.1 5.4 9.3 5.3 9.3-.1 0-2.1-2.2-4.5-4.8-3.9-4.4-4.5-5.3-5.5-9.2-1.2-4.8-1.3-5.1-.9-4.7 0 .1 2.6 4.4 5.6 9.4zm-867.3-6.8c4.2.8 7.6 1.6 7.6 1.7.1.1 3 8.7 6.6 19.2 3.6 10.5 6.8 19.4 7.1 19.8.5.5 3.3.8 10.1.8l9.4.1-9.4 2.4c-7 1.8-9.4 2.1-9.8 1.6-.3-.4-3.9-7.3-8.2-15.3-8.2-15.5-7.4-14.5-22.2-30.5-1.9-2-1.9-2-.4-1.7 1 .3 5.1 1.1 9.2 1.9zm155.1 3.2-.7 4.7-3.9 2.9c-1.2 1.1-2.6 2-4.1 2.7-.3-.3 8.9-15.7 9.2-15.4 0 1.8-.2 3.4-.5 5.1zm524.6-5c0 .2-4.8 6.2-10.8 13.3L675 289.9l-13.1-10.1c-7.2-5.5-12.8-10.2-12.5-10.2.6-.2 44.2-6 46.2-6.1.5 0 1 0 1 .2zm177.1 5.7 2.3 3.8-8.4 13.5c-4.5 7.4-8.5 13.7-8.7 13.9-.4.4 9.1-32.2 10.7-36.5.2-1 .5-.7 4.1 5.3zm76.6-4.2c2.4 0 2.6.1 1.8.9s-1.5.8-6-.3c-4.6-1.1-4.8-1.2-1.8-.9 1.8.2 4.5.3 6 .3zm17.6 1.8c3.6.5 3.3.5-3.6.6-6.6.1-7.4-.1-6.7-.8.6-.7 1.5-.8 3.6-.6 1.5.2 4.5.6 6.7.8zm-449.1 0c-.4.2-17.7 11.6-38.5 25l-37.9 24.5-25.4.5c-14 .2-25.1.2-24.8.1.7-.4 126.5-50.5 126.9-50.5.1-.1 0 .1-.3.4zm185.3 23.6c1.6 12.8 2.8 23.3 2.7 23.4-.2.2-25.9-19.4-27.2-20.7-.5-.5 2.3-4.3 10.1-13.7 5.9-7.2 11-12.8 11.2-12.6.1.2 1.6 10.8 3.2 23.6zm142.3-9.8c-3.9 5.6-7.6 10.8-8.2 11.6l-1 1.3-4-5.4c-1.5-1.9-2.8-3.8-4-5.9 0-.5 23.7-12.3 24.1-11.9.1 0-3 4.7-6.9 10.3zm-208.2-6.4c-.2.4-5.9 14.9-12.7 32.2-6.8 17.3-12.5 31.6-12.7 31.7-.3.3-46.5-21.1-46.5-21.6 0-.4 71-42.9 71.7-42.9.3-.1.4.3.2.6zm12 16.5c3.5 8.6 6.4 15.9 6.2 16.2-.2.5-37 27.9-37.2 27.6-.1-.1 5.2-13.6 11.8-30.2 6.5-16.5 12.1-29.9 12.3-29.6.3.2 3.3 7.4 6.9 16zm67.9 14.3c5.1 12.8 9.3 23.6 9.2 24-.2.7-11.4-7.5-14.6-10.5-.8-.9-1.5-4.9-3.5-20.2-1.3-10.4-2.4-19.4-2.4-19.9.1-1.2.4-.5 11.3 26.6zM168.3 293c-1.1 7.1-2.1 12.8-2.3 12.8-.7 0-8.5-16.5-8.1-17 2.1-1.9 11.9-9.1 12.1-8.9.1.2-.6 6.1-1.7 13.1zm500.8-2.2 3.2 2.4-1.9 2.3-1.9 2.2-3.1-4c-1.7-2.2-4.8-6.3-6.9-9.1l-3.9-5.1 5.7 4.4c3.1 2.5 7.1 5.6 8.8 6.9zm-10.8 1.6c3 4.1 5.7 7.8 5.9 8.2.2.5-.6 1.6-1.9 2.5l-2.1 1.6-.5-1.4c-.3-.8-2.2-5.5-4.2-10.5-2.1-5-3.5-8.8-3.2-8.5.2.4 2.9 4 6 8.1zm177.7 7.5c6.2 8.4 11.4 15.6 11.6 16 .2.4-.8 1.3-2.8 2.3-2.4 1.2-6.5 2.1-16.7 3.8-7.4 1.3-13.6 2.1-13.7 2-.4-.4-11.9-27.4-11.7-27.5.7-.5 21.4-11.8 21.7-11.8s5.5 6.8 11.6 15.2zm-745.6-7.6c-.5 1.3-2.8 6.1-5.1 10.6l-4.2 8.4h-9.3c-5.1 0-10.2.1-11.3.3-1.2.1 2.4-.8 7.8-2.2l9.9-2.5 6.5-8.4c3.6-4.7 6.5-8.4 6.6-8.4-.2.7-.5 1.5-.9 2.2zm219.2 34.3c.4 21.3.5 35.2.1 35.5-.3.2-10.2 3-22 6.1l-21.5 5.6-46.6-29.3c-29.1-18.2-46.2-29.3-45.4-29.4.6-.1 31-5.6 67.5-12.2s66.5-11.8 66.7-11.6c.3.2.8 16.1 1.2 35.3zm558.1-28.2c-2.7 7.9-2.9 8.3-6.2 10.1-1.6.8-2.9 1.6-3 1.6-.1 0 2.3-4.1 5.4-9 3.1-5 5.6-9 5.7-8.9-.5 2.1-1.1 4.1-1.9 6.2zm-523.5 8.4c16.8 7.2 30.6 13.3 30.8 13.4.2.2-7.4 7.9-16.9 17.1l-17.2 16.8-13 3.4c-7.1 1.9-13.1 3.3-13.1 3.3-.2-.2-1.5-57.5-1.5-64 0-1.7.1-3.1.3-3.1 0 0 13.8 5.9 30.6 13.1zm591.7-12.1c.8 1 .7 1-.2.2-.4-.3-.8-.6-1.1-1 0-.4.5-.1 1.3.8zm-776.1 9.8 4.5 9.1-10.3 10.8c-12 12.5-15.6 16-15.2 14.7 2-6.2 16-44.1 16.2-43.9.2.1 2.4 4.3 4.8 9.3zm778.7-2.5c5.1 3.6 9.3 6.5 9.2 6.7-.1.1-8-1.5-17.5-3.6s-17.2-3.9-17-4.1c.4-.4 14.1-5.3 15.1-5.4.4 0 5 2.8 10.2 6.4zm-246.2 6.6 16.2 12.5 1.6 4.3c.8 2.4 3.5 9.5 5.8 15.9l4.2 11.5-3.8-4.1c-2.1-2.2-12.9-13.6-24-25.3S672 301.8 672 301.5c0-.6 3.3-5.2 3.8-5.3.2-.1 7.5 5.6 16.5 12.4zm117.2 15.5c.2.8-.2 1.1-2 1.4-2.1.3-2.9 1-6.8 5.8-4.2 5.1-5 5.8-13.3 10.7-4.8 2.8-9.4 5.6-10.2 6.1-1.2.7-.2-1.4 4.1-10.2 3.1-6.1 8.5-17 11.9-24.2l6.3-13 4.8 11.2c2.7 6.1 5 11.6 5.2 12.2zm-28.3 4.1c-7.9 16.1-11.9 23.6-12.5 23.6-.5 0-7.2-1-14.8-2.2-11.4-1.9-13.7-2.4-13-3 1.6-1.6 51.1-42 51.5-42 .2 0-4.8 10.6-11.2 23.6zm-106.4-12c3.7 6.1 7.2 11.7 7.7 12.4.5.8.7 1.4.6 1.4-.2 0-4.8-4.8-10.3-10.8l-10-10.8 2.2-1.6c.8-.6 1.7-1.2 2.6-1.7.2.1 3.5 5.1 7.2 11.1zm265-4.6c9.9 2.1 18.1 4 18.2 4.2.1.1-2.7 1.2-6.4 2.4l-6.7 2.2-11.9-6.1c-10.5-5.5-12.6-6.7-11.6-6.7.3 0 8.5 1.8 18.4 4zm-264.7 16.5c8.5 9.3 16.7 17.9 17.9 19.3l2.3 2.5 6.1 27.2c3.3 15 6.1 27.5 6.1 27.9 0 .3-10 5.8-22.2 12.1-41.7 21.4-46 23.6-44 21.7 1-.9 13-11.8 26.5-24 19.4-17.6 24.6-22.7 24.6-23.8 0-.8-8.7-18-19.4-38.2-10.7-20.2-19.4-36.9-19.4-37.1.1-.4 5-4.2 5.6-4.2.1-.2 7.3 7.3 15.9 16.6zm187-13.3c-.1.4-.3.8-.6 1.1-.3.3-.7.5-1.1.6-4.8 1-4.8 1-1.5-1.2 1.1-.8 2.2-1.4 3.5-1.9 0 .4-.1.9-.3 1.4zm-650.2 30.1c23.3 14.7 42.3 26.7 42.3 26.7-.4.4-96.4-18.5-96.4-18.9.2-1.9 10.8-34.8 11.2-34.6.2.1 19.6 12.1 42.9 26.8zm455.6 6.5 17.3 32.9-13.4-8.5c-7.3-4.7-22.2-14.2-33.1-21.3-11-7-19.8-12.8-19.7-13.1.2-.6 30.3-22.8 31-22.8.4 0 8.4 14.8 17.9 32.8zm307.2-27.6c5.9 2.5 10.7 4.7 10.6 4.8-.1.1-7.2-1.3-15.9-3.1-15.6-3.1-15.7-3.1-13.6-4.1 3.3-1.5 5.6-2.2 7-2.2.6-.1 6 2 11.9 4.6zm-443.8-3.6c-3.4.7-116.9 20.7-117 20.6-.1-.1 3.8-2.6 8.5-5.6 4.7-3 11.7-7.6 15.5-10l7-4.5 24.2-.4c29.4-.4 63.4-.5 61.8-.1zm58.1 30.9c15.3 16.8 27.6 30.6 27.5 30.8-.3.3-168.9-.7-169.2-1.1-.1-.1 25.3-13.9 56.5-30.6 31.2-16.7 56.9-30.2 57.1-30 .2.3 12.9 14.2 28.1 30.9zm110.6-13.2c6.8 7.1 13.2 13.9 14.2 15 1.8 1.9 1.6 1.9-6.6-2l-8.5-4-7-11.3c-3.8-6.2-7.6-12.4-8.4-13.7l-1.5-2.5 2.7 2.7c1.6 1.6 8.3 8.7 15.1 15.8zm-265.1-16.4c-.8.7-29.9 19.4-30.8 19.8-.4.1-4.8-4.2-9.8-9.6l-9-9.9 11.1-.3c20.1-.5 39.1-.5 38.5 0zm112.4.6c-4.7 2.7-107.7 57.5-108.2 57.7-.7.2-31.3-32.9-30.8-33.4.3-.3 137-24.7 139-24.8.8 0 .8.1 0 .5zm194.1 1.4c-.2.8-1.5 4.2-2.7 7.8l-2.3 6.4V332l-.1-5.6 2.3-2.1c2.6-2.4 3.4-2.7 2.8-.8zm107.3-.2c-.8.8-22.5 11.8-21.8 11.1 1-1 18.2-10.9 19.4-11.2 2-.5 3-.5 2.4.1zm-459.1 10.4c5.2 5.6 9.4 10.5 9.2 10.7s-17 7.8-37.4 16.9l-37.1 16.5 7.2-7.1c18-17.7 48.2-47.3 48.4-47.3 0 0 4.4 4.7 9.7 10.3zm202.9.2 20 9.3 3.2 16.3c1.7 9 3 16.4 3 16.5-.1.1-10.7-11.4-23.6-25.6-12.8-14.2-23.2-25.7-22.9-25.7.1-.1 9.3 4.1 20.3 9.2zm133.6 1.5c-.1.5-.4 4.7-.6 9.1l-.4 8.1-3.9-10.5c-2.1-5.8-4.4-11.9-5-13.5l-1.2-2.9 5.6 4.4c3.9 2.9 5.7 4.7 5.5 5.3zm95.1-2.9c-6.1 3.7-11.1 6.6-11.3 6.5-.2-1.6-.4-3.2-.4-4.8l-.2-4.7 1.8-.3c8.3-1.6 18.4-3.2 19.7-3.3.9-.1-2.7 2.5-9.6 6.6zm-665.9-1.4c-.2.3-2.7 4.7-5.6 9.9-3 5.1-5.4 9.4-5.5 9.6-1.2-.1-2.4-.3-3.6-.6l-3.5-.8 9-9.3c8-8.3 10-10.2 9.2-8.8zm1.4 11.7c-1.6 5.1-3.2 9.3-3.6 9.3-.4-.1-1.4-.1-2.2-.2-.9 0-1.5-.4-1.3-.8.2-1 9.8-17.9 10-17.7 0 0-1.2 4.3-2.9 9.4zm648.5-1c-.2.4-3.1 2.4-6.5 4.5-3.5 2.1-7 4.3-7.8 4.8-.8.5.8-1.8 3.6-5.1s6.4-7.5 7.9-9.3l2.7-3.2.2 3.8c.1 1.5.1 3-.1 4.5zm-74.6.4-.8 3.3-.1-3.4c-.1-3.5.4-4.6 1.3-3.7.3.3.2 1.9-.4 3.8zm-84.8 22.3c19.7 12.5 21.8 14 19.1 13-3.1-1.2-44.5-18.5-44.8-18.7-.2-.2-2.4-10.5-2.5-11.6 0-.4 2 .5 4.4 2.1 2.4 1.5 13.1 8.3 23.8 15.2zm-227.9 0 15.4 16.8-27 1.4c-24 1.2-30.1 1.3-55 .8l-28-.5 39.5-17.7 39.6-17.7s7 7.6 15.5 16.9zm365.3-12.2c-1.9 2.3-4.4 5.1-5.5 6.3l-1.9 2.2-1.9-5.2 5.9-3.6c2-1.3 4.2-2.6 6.4-3.6.3-.2-1.1 1.6-3 3.9zm-28.3 1.7c13.4 2.1 14.7 2.4 15.3 3.6.5 1.3.3 1.5-4.1 3.2-4.6 1.9-4.8 1.9-15.6 1.9h-10.9l-1.6-1.7c-.6-.6-1.1-1.3-1.3-2-.3-.8-.4-1.6-.3-2.4 0-4.4.5-5.6 2.4-5.2.7.2 8.1 1.4 16.1 2.6zm-614.5.2 1.7.4-1.5 2.4-1.5 2.4-1.3-2.5c-.5-.9-.9-1.9-1.3-2.8.2-.5 1.7-.4 3.9.1zm654.1.3c-1 1-2 1.8-3.1 2.6-1.8 1.3-5.8 4.4-8.8 6.8-3.1 2.4-5.5 4-5.3 3.6.2-.6 16.4-13.1 17.1-13.2 0 0 .1.1.1.2zm-642.6 2.1c.3.3-4.5 16.8-5.1 17.4-.1.1-1.3-2.1-2.7-4.8l-2.5-5 5-8.7 2.4.4c1 .1 2 .3 2.9.7zm564.3 12.5c7 6.5 11.5 11.1 11.3 11.5-1.9 3.1-15.6 20.3-15.9 19.9-.2-.2-2.5-10.2-5.1-22s-4.8-21.9-5-22.4c-.6-1.1-.2-.9 14.7 13zm15.6-9.6c-.8.8-1.5-.5-.8-1.7s.7-1.2.9.1c.2.6.2 1.1-.1 1.6zM206.5 367c26.5 5 48.4 9.2 48.6 9.3.2.1-20.9 5.3-46.9 11.6-26.1 6.3-47.9 11.6-48.5 11.7-.8.2-2.1-1.9-5.9-9.5l-4.8-9.8 3.3-10.7c1.9-5.9 3.5-11.1 3.6-11.5.1-.2.3-.4.6-.5.2-.1.5-.1.8 0 .6.1 22.8 4.4 49.2 9.4zm518.6.6c.5 1.3.8 2.7.9 4.1-.2.2-15.5-13.7-15.5-14.1 2.3.9 4.6 1.9 6.8 3l6.7 3.2 1.1 3.8zm-590.7 5c-1.1 4.6-2.1 8.2-2.1 8.2-.1-.1 1.2-17.7 1.6-21 .1-.2.6.8 1.3 2.1l1.3 2.4-2.1 8.3zm190.6-2.8-9.7 9.4-.4-3.5c-.2-1.9-.4-5-.5-6.8l-.1-3.3 9.6-2.5c5.2-1.4 9.8-2.5 10.1-2.5.4-.2-3.7 4-9 9.2zm323.6 5.7c14.8 6.1 26.5 11.2 26 11.3-1 .2-50.2-4.5-50.5-4.9-.7-.7-3.6-18-3-17.8.3.2 12.7 5.3 27.5 11.4zm88-5c4.2 3.6 4.9 4.4 5.8 7.2l.9 3.2 4.4 1.6c4.1 1.5 6.4 3 6.4 4.2 0 .2-3.3 6.6-7.4 14.1-6.4 11.6-7.6 13.5-8.7 13.3-.7-.1-4.7-.5-8.8-1l-7.6-.7 5.6-16.2L733 380l-1-6.2c-1-6.9-1-7.4-.6-7.4 1.8 1.2 3.5 2.6 5.2 4.1zm14.5-3.9c-1 .6-2 1-3.1 1.3-3 1-3.2 1-4.4-.2l-1.3-1.3h4.4c1.5-.1 2.9 0 4.4.2zm-440.4 8.2v7.8l-10.4-2c-5.8-1.2-13.7-2.7-17.6-3.4l-7.1-1.4 16.2-4.4c8.9-2.4 16.8-4.4 17.6-4.4 1.3 0 1.3.1 1.3 7.8zm458.5-6.7c-.5.7-3.2 3.9-6 7.2-4.8 5.6-5.2 6-6.7 5.4-.8-.3-3-2.2-4.7-4.1l-3.2-3.5 9-3c4.9-1.7 9.8-3.1 10.7-3.1 1.5 0 1.6.1.9 1.1zm-627.3 7.7 2.2 4.3-5.8 8.7c-3.1 4.8-5.6 8.2-5.5 7.5.2-.7 1.6-6.2 3.1-12.4 3-12.1 3.3-13 3.6-12.7.2.2 1.3 2.3 2.4 4.6zm631.3 13.4c-.4.4-8.2-4.1-8.2-4.7 0-.2 1.8-1.6 3.9-3 2.2-1.3 4-2.8 4.1-3.2.3 1.6.4 3.3.3 4.9.2 2.1.1 4.1-.1 6zM284.5 382c10.1 1.9 18.2 3.5 18.1 3.6-.1.1-4.4 1.4-9.5 2.8-7 2-87.4 27.3-99.5 31.3-1 .4-1.6.4-1.4.2.4-.4 73.1-41.2 73.7-41.4.2 0 8.5 1.5 18.6 3.5zm-34.9.7c-48.8 27.2-76.4 42.5-77.1 42.8-.8.2-2.2-2.1-6.5-10.6-3-6.1-5.4-11-5.3-11 4.4-1.1 88.8-21.6 89.2-21.7.3 0 .1.2-.3.5zm-99.7 27c-2.8 4-8 11.8-11.8 17.2-3.7 5.5-6.8 9.5-7 9.1-.1-.5-.5-6.4-1-13.1-.6-10.4-.6-12.5.1-13.6.5-.7 4.2-6.6 8.4-13l7.6-11.7 4.3 9 4.3 8.9-4.9 7.2zm455.6-23.4 6.8.4-32.1 16.5c-18.2 9.4-32.6 16.5-33.1 16.3-.8-.2-92-32.5-95.8-33.9-1.3-.4 145.6.2 154.2.7zm-180.3 1c-1.5.8-4 2.2-5.6 3l-2.8 1.5-9.2-2.2-9.2-2.3 11.4-.7c6.3-.4 13-.7 14.8-.7l3.3-.1-2.7 1.5zm38.7 24.8c1.9 2 .2 1.3-19.3-7.7-11.8-5.5-21.4-10.1-21.4-10.4s3-2.1 6.8-4.2l7-3.8 12.4 12c6.9 6.5 13.4 12.9 14.5 14.1zm-114.8-24.5c13.9 0 25.3.2 25.3.4 0 .4-46 22.8-49.7 24.3-.2.1-2.4-5.6-4.7-12.7l-4.2-12.8 4.1.4c2 .2 15.2.4 29.2.4zm418 3.5 4.1 2.4-4.1 2.7c-2.3 1.5-4.4 2.5-4.7 2.2-.3-.2-.7-2.7-.8-5.5-.5-5.6-.9-5.5 5.5-1.8zm-275.2 13.5c23.9 8.5 43.4 15.4 43.3 15.4-.1.1-13-.1-28.6-.2l-28.5-.3-15.7-15.4c-8.7-8.5-15.3-15.3-14.8-15.1.5.1 20.5 7.1 44.3 15.6zM664 390.4c-.5.1-1 .1-1.5 0-.4-.2-.1-.3.7-.3.9 0 1.2.2.8.3zm14.4 1.4 2.1.4-1.8.6c-1.4.5-3.2.3-7.9-.8l-6.1-1.4 5.8.4c2.6.1 5.3.4 7.9.8zm79 6.5.4 4.3-4.7 3c-2.5 1.6-5.1 3.2-5.6 3.5s-.2-.5.7-2.2c.8-1.5 3-5.3 4.7-8.7 2.1-3.9 3.3-5.7 3.6-5.1.5 1.7.7 3.5.9 5.2zm-35.8.6c-1.2 3.3-2.5 7.1-3 8.5l-1 2.6-2.1-1.7c-1.2-.9-1.9-1.9-1.8-2.4.3-.7 9.5-12.9 9.8-12.9.1 0-.7 2.7-1.9 5.9zm-346.6.3c-1.3 2.4-7.5 14.2-13.7 26.2-6.3 12-11.8 22.3-12.2 22.9-.6 1-1.4-.2-6.2-9.6l-5.6-10.8 1.7-1.3c.9-.7 9.9-8.2 19.9-16.5 10-8.4 18.3-15.2 18.4-15.2-.7 1.5-1.4 2.9-2.3 4.3zm-7.6-2c-.4.2-7.8 6.4-16.6 13.7l-15.9 13.2-8-8 12.4-5.9c6.8-3.3 15.7-7.6 19.9-9.7 7.2-3.6 9.4-4.5 8.2-3.3zm311.6.9c-.8.7-10.4 9.4-21.2 19.1-10.8 9.8-20.8 18.7-22 19.9l-2.4 2.2 2.5-4.7c1.4-2.5 3.9-7 5.5-9.9l3-5.2 13.5-8.8c15.5-10.1 21.9-14.1 22.4-14.1 0 .1-.5.7-1.3 1.5zm90.5 3.8c-.5 1.3-1.5 3.6-2.2 5.3-.4 1.2-1 2.4-1.6 3.5-.3.2-.8-1.2-1.3-3.3-.7-3.1-.7-3.8.1-4.2 1-.6 2-1.3 3-2 2.8-2 3.1-1.9 2 .7zm-8.5 9.7c.5 2.4 1 4.5 1 4.5 0 .3-14-1.2-14.3-1.5-.1-.1 2.4-2 5.6-4.2 3.3-2.2 6.1-3.8 6.3-3.6.7 1.6 1.1 3.2 1.4 4.8zm-593.6 18c-.8 1.4-28.8 35.6-29 35.4-.1-.1 4.2-13 9.6-28.6l9.8-28.3 5 10.4c2.7 5.7 4.8 10.7 4.6 11.1zm544.8-18c1 .8 1.9 1.8 1.9 2.1 0 .2-4.8 3.3-10.7 6.7-5.9 3.4-11.4 6.6-12.3 7.1-.8.5.4-.8 2.7-3 12.9-11.8 15.8-14.4 16.2-14.5.8.4 1.6 1 2.2 1.6zm22.9 6.5c.2.2-25 22.9-26.2 23.6-.4.2 1.1-3.6 3.3-8.5 2.3-5 5-10.8 5.9-13l1.8-3.9 7.5.8c4.2.4 7.6.9 7.7 1zm-41-.6c0 .6-25 22.8-25.7 22.8-.4.1-6.9 1.2-14.6 2.7-7.6 1.5-14 2.6-14.1 2.5-.1-.1 53.5-28 54.2-28.2.2 0 .2.1.2.2zm-552 22.5c-4.2 11.9-7.9 22.5-8.3 23.6-.7 1.6-.8.7-1.5-8.8l-.7-10.6 8.8-13.1c4.8-7.2 8.9-13.1 9-13 .1.1-3.2 10-7.3 21.9zm608.1-20.6c2.4.2 4.7.5 5.4.7 1.2.4-1 1.6-26 14.4l-13.9 7.1 3.3-3c1.8-1.6 7.6-6.8 12.7-11.5 9.2-8.4 9.4-8.6 11.8-8.3 1.3.1 4.4.4 6.7.6zm-37.5 2.2c-.4 1.1-3.9 8.8-7.8 17.1-3.8 8.3-9.1 19.9-11.7 25.6l-4.7 10.4-3.4 2.1c-1.2.8-2.4 1.5-3.7 2.1-.5 0-8.1-34.8-7.8-35.7.2-.5 38.8-23.5 39.8-23.7-.2.9-.4 1.5-.7 2.1zm-384.8 2.3c2.5 2.5 3.4 3.8 3 4.4-1.3 2.1-15.6 21.7-15.7 21.5-.3-.2 8.5-29.5 8.8-29.5 1.4 1.1 2.7 2.3 3.9 3.6zm309.9-2.1c0 .1-3.2 6-7.1 13l-7.1 12.7-3.4-2c-10.7-6.1-24.1-14.1-23.9-14.2.2-.2 40-9.7 41.1-9.8.2 0 .4.1.4.3zm-510.9 13 .4 8.1-6.8 10.1c-3.8 5.6-7 10.1-7.1 10-.1-.1 2.6-9.3 6.1-20.6 7-22.9 6.6-22.5 7.4-7.6zm455.4-3.5c1.5.2 3.1.5 4.6.8.3.2-7.4 22-7.8 22-.2 0-.7-3.9-1.2-8.7-.4-4.7-.9-10.1-1.1-11.8-.4-3.4-.7-3.3 5.5-2.3zm15 6c2 1.1 3.9 2.3 5.8 3.7.3.5-2.7 38.1-3.1 38.5-.1.1-4.5-3.1-9.8-7.2-5.3-4.1-9.6-7.5-9.7-7.5-.4-.2 10.5-30.6 11-30.6 1.9.9 3.9 1.9 5.8 3.1zm-486.7 19.3L105 475l-3-.2c-1.1 0-2.1-.1-3.2-.4-.1-.1 3.7-8.4 8.5-18.4 4.7-10 8.7-18.2 8.8-18.1.1.3-2.4 8.6-5.5 18.7zm214.1 9.5c-3 15.3-5.6 28.5-5.9 29.3-.7 2.7-4.4-10.1-6.2-21.4l-1.7-10.2 9.4-13c5.2-7.1 9.5-12.9 9.6-12.8.1.2-2.2 12.8-5.2 28.1zm19.9 22.2c.1.8-25.3 30.2-25.8 29.9-.1 0 3.5-18 7.9-40l7.9-40 5 24.5c2.7 13.5 5 25 5 25.6zm1.5-24.8-.4 7.9-2.5-12.4c-1.4-6.8-2.7-13.4-2.9-14.5-.2-1.4.7.1 3 4.5l3.4 6.7-.6 7.8zm267 .2c-4.5 6.7-8.4 12.2-8.4 12.1-.2-.1 2.1-26.2 2.6-29.9l.3-2.5 13.8 8-8.3 12.3zm-484.5-1.2c.4 6.7.7 12.1.7 12.2-.1.1-4.3.3-9.4.5-6.5.3-9.3.2-9.1-.2.4-1 16.6-24.8 16.8-24.7.1 0 .6 5.6 1 12.2zm460.7 15c4.2 3.3 7.6 6.1 7.8 6.4.2.5-14.4 9.4-14.7 9-.1-.1-.5-3.9-.9-8.4s-.8-9.6-1.1-11.2c-.3-2.5-.2-2.9.5-2.4.5.4 4.3 3.4 8.4 6.6zm-462 4.4c-.7 1.6-4.4 10.7-8.4 20.3l-7.2 17.3-5.8-7.1 1.3-16.2c.9-10.9 1.5-16.4 2.1-16.7.4-.2 4.9-.5 9.9-.5h9.3l-1.2 2.9zm-23.4 3.3c-.2 2.4-.7 8.5-1.1 13.4l-.7 9-16.5-20.4 8.5-3.1c4.7-1.7 8.9-3.2 9.3-3.2.7 0 .7 1 .5 4.3zm21.2 24.1c-1.2 8.2-2.1 15.6-2.1 16.4 0 1.3 3.9 9 9.3 18.1 1.6 2.7 1.2 2.2-5.7-6.1-10.6-12.8-11.6-14.1-11.3-15.2.4-1.6 11.6-28.4 11.7-28.2.1.1-.8 6.9-1.9 15zm244.2 7.4c-2.7.5-5.5.8-8.3.8-4.2.2-8.5.6-9.5.8l-2 .3v-11.7l.1-11.8 10.2 10.6c6.1 6.4 9.9 10.7 9.5 11zm-12.1 10.7c6.4 2.8 11.5 5.3 11.4 5.3-.1.1-11.3-1.6-24.8-3.8l-24.6-4.1 5.2-5.8c2.8-3.2 8.6-9.7 12.8-14.4l7.6-8.5.6 26 11.8 5.3zM94.7 505.3l7 8.7-.8 11.1c-.5 6.2-1 11.9-1 12.7-.2 1.3-2.7-7-11.4-37.4-.4-1.2-.7-2.5-.8-3.8-.1 0 3.2 3.9 7 8.7zm14.9 18.7c0 .8-5 12.7-5.3 12.4-.2-.1 0-3.7.4-7.9s.7-8.1.7-8.7c0-.7.7-.2 2.1 1.4.8.8 1.5 1.8 2.1 2.8zm267.7 2.7c1.2 1.9 2.1 3.9 2.9 6-.1.1-5.5-2.1-11.9-5s-11.5-5.4-11.3-5.5c.3-.4 9.1-1.1 14.1-1.3l3.1-.1 3.1 5.9zM128 546.8c7.5 9.4 13.3 17 12.9 16.9-14.8-5.3-36.8-13.7-36.8-14.1 0-.4 1.9-5.3 4.4-11.1 3.5-8.4 4.5-10.3 5.1-9.7.5.5 6.9 8.6 14.4 18z"/><path d="M821.5 290.2c-.6.8-7.5 22.8-7.5 23.9.1.6.5 1.1.9 1.5.7.6 2 .4 7-1.5 3.3-1.2 6.4-2.7 6.7-3.1.5-.7.2-3-1.5-10.6-1.2-5.4-2.5-10.1-3-10.3-1-.8-1.9-.8-2.6.1zm2.8 17.1c.1.9-.5 1.5-2.1 2.1-.8.4-1.6.5-2.4.5-.2-.2 1.5-5.9 2.6-9 .3-.8 1.8 4 1.9 6.4z"/></g></svg>