<svg xmlns="http://www.w3.org/2000/svg" viewBox="0 0 275.8 69.6" style="enable-background:new 0 0 275.8 69.6" xml:space="preserve"><path d="M1702.6 3259.1c0-10.7 7.8-19 19.2-19 10.5 0 18.3 8.1 18.3 19 0 1.5-.1 2.9-.4 4.3h-25.6c1.4 3.7 4.7 5 8.6 5 2.6.1 5.1-.9 6.9-2.7l8.6 5c-3.5 4.9-8.9 7.4-15.7 7.4-12.3 0-19.9-8.2-19.9-19zm11.2-3.7h15.5c-.8-3.5-4-5.9-7.6-5.7-4.1 0-6.9 2-7.9 5.7zm-78.5 3.7c0-10.7 7.8-19 19.2-19 10.5 0 18.3 8.1 18.3 19 0 1.5-.1 2.9-.4 4.3h-25.6c1.4 3.7 4.7 5 8.6 5 2.6.1 5.1-.9 6.9-2.7l8.6 5c-3.5 4.9-8.9 7.4-15.7 7.4-12.3 0-19.9-8.2-19.9-19zm11.2-3.7h15.5c-.8-3.5-4-5.9-7.6-5.7-4.1 0-6.9 2-7.9 5.7zm-44.9 14.2 9.4-5.3c.8 2.7 3.3 4.5 6.1 4.2 2.6 0 3.9-.8 3.9-2.2 0-4-17.7-1.9-17.7-14.3 0-7.8 6.6-11.8 14.1-11.8 5.7-.2 11.1 2.8 14 7.7l-9.2 5c-.8-1.9-2.7-3.2-4.8-3.2-1.9 0-3 .7-3 2 0 4.1 17.7 1.4 17.7 14.7 0 8.3-7.2 11.8-15 11.8-7.2-.1-12.7-2.8-15.5-8.6zm-56.5-2.5c0-8 6.1-10.7 13.4-11.3 6.1-.5 8.5-1 8.5-3.2v-.1c0-2.4-1.8-3.8-4.6-3.8-3 0-4.9 1.4-5.4 3.7l-10.6-.4c.9-6.6 6.4-11.4 16.1-11.4 9.2 0 15.9 4.4 15.9 12v24.5h-10.8v-5h-.3c-2 3.7-5.4 5.6-10.5 5.6-6.8 0-11.7-3.4-11.7-10.6zm15.9-4.7c-3.3.5-5.1 1.9-5.1 4.2 0 2.4 1.9 3.7 4.5 3.7 3.7 0 6.6-2.4 6.6-5.9v-3.4c-1.9.7-3.9 1.2-6 1.4zm204.8 14.7-6.7-9.5-6.7 9.5H1740l12.9-18.3-12.5-17.7h12.4l6.3 8.9 6.3-8.9h12.4l-12.5 17.7 12.9 18.3h-12.4zm-87 0v-36h10.8v6.4c1.4-4.8 6.3-7.1 10.8-7.1 0 0 3.6-.5 3.6 1.6-1.1 2.9-3.6 8.6-3.6 8.6-4.5-.7-10.8 1.1-10.8 8.2v18.3h-10.8zm-93.1 0v-36h10.8v36h-10.8zm-55.7 0-16.1-23.3v23.3h-11.5v-50.4h11.5v21.9l15.4-21.9h13.1l-17 24.6 17.7 25.9-13.1-.1zm123.5-42.3c-9.1 0-14.5 4.2-14.5 4.2l-4.7-18.8s5.6 8.5 11.7 7c7.3-1.8 8.4-13.1 8.4-13.1s3 13.6 8.9 13.6 10.8-7.5 10.8-7.5l-4.2 18.8c-5-2.7-10.6-4.1-16.4-4.2zm-68.8-3.3c0-3.6 2.9-6.5 6.5-6.5s6.5 2.9 6.5 6.5-2.9 6.5-6.5 6.5c-3.6-.1-6.5-3-6.5-6.5zm76.3-6.1 2.8-2.8s2.1 2.5 2.3 2.8c-.7.6-1.5.9-2.4.9-.9 0-1.9-.3-2.7-.9zm-18.3 0c.3-.4 2.3-2.8 2.3-2.8l2.8 2.8c-.8.6-1.7.9-2.7.9-.8 0-1.7-.3-2.4-.9zm19.3-6.3c0-1.2.9-2.1 2.1-2.1s2.1.9 2.1 2.1c0 1.2-.9 2.1-2.1 2.1-1.2 0-2.1-1-2.1-2.1zm-19.3 0c0-1.2.9-2.1 2.1-2.1s2.1.9 2.1 2.1c0 1.2-.9 2.1-2.1 2.1-1.1 0-2.1-1-2.1-2.1zm30.5-1.5c0-1.2.9-2.1 2.1-2.1s2.1.9 2.1 2.1c0 1.2-.9 2.1-2.1 2.1-1.1.1-2.1-.9-2.1-2.1 0 .1 0 .1 0 0zm-42.2 0c0-1.2.9-2.1 2.1-2.1s2.1.9 2.1 2.1c0 1.2-.9 2.1-2.1 2.1-1.2.1-2.1-.9-2.1-2.1 0 .1 0 .1 0 0zm21.1-7c0-1.2.9-2.1 2.1-2.1 1.2 0 2.1.9 2.1 2.1 0 1.2-.9 2.1-2.1 2.1-1.1 0-2.1-.9-2.1-2.1z" style="fill:#637282" transform="translate(-1502.384 -3208.5)"/></svg>