<svg viewBox="0 0 30 30" fill="none" xmlns="http://www.w3.org/2000/svg"><path fill-rule="evenodd" clip-rule="evenodd" d="M15.033 2.698c.624.003 1.248.05 1.866.141L19.17.566A15.257 15.257 0 0 0 15.034 0 15.06 15.06 0 0 0 1.197 9.137a14.96 14.96 0 0 0 3.01 16.264 15.092 15.092 0 0 0 16.195 3.62c.895-.34 1.754-.767 2.566-1.273l-1.987-1.969L10.164 15 20.982 4.22l1.987-1.968A14.816 14.816 0 0 0 20.403.979l-2.15 2.143-3.865 3.85L6.332 15l11.92 11.878c-1.05.28-2.132.422-3.22.424-6.818 0-12.346-5.508-12.346-12.302 0-6.795 5.528-12.302 12.347-12.302Zm8.939 3.828 1.922-1.917a15.958 15.958 0 0 0-2.031-1.796l-1.955 1.949-10.19 10.16 10.19 10.16 1.954 1.95a15.949 15.949 0 0 0 2.032-1.798 14.99 14.99 0 0 0 .764-19.743L24.725 7.42a12.265 12.265 0 0 1-.753 15.899l-8.42-8.396 3.407-3.387 5.013-5.01Z" fill="#637282"/></svg>