<svg width="200" height="200" viewBox="0 0 200 200" fill="none" xmlns="http://www.w3.org/2000/svg">
<g clip-path="url(#clip0_9358_31868)">
<path fill-rule="evenodd" clip-rule="evenodd" d="M66.4238 100.024L125.664 159.272L163.056 121.88C169.744 115.864 179.968 116.128 186.328 122.488C192.688 128.848 192.96 139.08 186.936 145.76L137.592 195.112C130.96 201.632 120.336 201.632 113.704 195.112L42.5198 123.904V166.224C42.5198 175.568 34.9518 183.136 25.6078 183.136C16.2638 183.136 8.6958 175.568 8.6958 166.224V33.76C8.6958 24.424 16.2638 16.848 25.6078 16.848C34.9518 16.848 42.5198 24.424 42.5198 33.76V76.08L113.696 4.88799C120.32 -1.63201 130.96 -1.63201 137.584 4.88799L186.96 54.232C192.976 60.92 192.712 71.144 186.352 77.504C179.992 83.864 169.76 84.136 163.08 78.112L125.688 40.72L66.4238 100.024ZM125.688 83.088C118.84 83.088 112.664 87.208 110.04 93.536C107.416 99.864 108.864 107.144 113.704 111.992C118.544 116.84 125.832 118.288 132.16 115.672C138.488 113.048 142.616 106.88 142.616 100.024C142.616 95.536 140.84 91.232 137.664 88.048C134.496 84.872 130.184 83.088 125.696 83.088H125.688Z" fill="#667280"/>
</g>
<defs>
<clipPath id="clip0_9358_31868">
<rect width="200" height="200" fill="white"/>
</clipPath>
</defs>
</svg>
