<svg xmlns="http://www.w3.org/2000/svg" viewBox="0 0 553.001 553.001"><path data-name="LAToken simple" d="M276.501 553a278.52 278.52 0 0 1-55.724-5.617 275.174 275.174 0 0 1-51.9-16.111 276.625 276.625 0 0 1-46.968-25.494 278.456 278.456 0 0 1-40.922-33.763 278.539 278.539 0 0 1-33.763-40.921 276.558 276.558 0 0 1-25.493-46.969 275.078 275.078 0 0 1-16.112-51.9A278.535 278.535 0 0 1 .001 276.5a278.537 278.537 0 0 1 5.618-55.725 275.077 275.077 0 0 1 16.112-51.9 276.489 276.489 0 0 1 25.493-46.969 278.452 278.452 0 0 1 33.763-40.921 278.4 278.4 0 0 1 40.922-33.763 276.516 276.516 0 0 1 46.968-25.493 275.174 275.174 0 0 1 51.9-16.111A278.52 278.52 0 0 1 276.501 0a278.526 278.526 0 0 1 55.725 5.617 275.122 275.122 0 0 1 51.9 16.111 276.516 276.516 0 0 1 46.968 25.493 278.488 278.488 0 0 1 40.921 33.763 278.47 278.47 0 0 1 33.763 40.921 276.521 276.521 0 0 1 25.493 46.969 275.08 275.08 0 0 1 16.111 51.9 278.546 278.546 0 0 1 5.619 55.726 278.529 278.529 0 0 1-5.617 55.724 275.089 275.089 0 0 1-16.111 51.9 276.582 276.582 0 0 1-25.493 46.969 278.6 278.6 0 0 1-33.763 40.921 278.484 278.484 0 0 1-40.921 33.763 276.534 276.534 0 0 1-46.968 25.494 275.122 275.122 0 0 1-51.9 16.111A278.526 278.526 0 0 1 276.501 553Zm12.714-199.136h92.849l18.931 53.128h55.915l-93.712-259.5h-56.222l-73 206.373h-56.4l75.7-206.373h-56.675l-93.249 259.5h167.781l18.084-53.128Zm75.4-51.868h-56.167l26.992-77.729 29.174 77.729Z" fill="#647182"/></svg>