<svg viewBox="0 0 254 192" fill="none" xmlns="http://www.w3.org/2000/svg"><path d="M156.163 7.657c-.145 1.289-8.653 65.578-8.814 66.466-.16.888.235 2.402 2.404 2.402h36.858c2.69 0 2.083 2.345.801 4.004-1.282 1.66-64.244 103.79-64.902 104.905-.658 1.114-3.647 1.291-3.205-1.602.442-2.893 8.676-65.394 8.814-66.466.138-1.072.16-3.203-2.404-3.203H88.857c-1.282 0-2.47-1.185-.801-4.004 1.67-2.82 63.653-102.245 64.902-104.103 1.249-1.859 3.35.313 3.205 1.601Z" fill="#667180"/><path d="M89.968 192a96.202 96.202 0 0 1-38.538-10.83 96.13 96.13 0 0 1-30.785-25.574 96.076 96.076 0 0 1-17.698-35.887 96.044 96.044 0 0 1 13.339-77.12A96.132 96.132 0 0 1 45.01 14.72a96.191 96.191 0 0 1 77.528-11.034c-4.275 6.551-9.522 14.95-12.39 19.62a74.167 74.167 0 0 0-57.926 13.257 74.094 74.094 0 0 0-20.176 22.668 74.052 74.052 0 0 0-6.424 59.043 74.067 74.067 0 0 0 14.83 26.472 74.126 74.126 0 0 0 53.72 25.391c-.562 2.06-3.552 18.659-4.204 21.862Z" fill="url(#keep_paint0_linear_505_16208)"/><path d="M174.45 31.933a64.136 64.136 0 0 1 56.504 13.121 64.083 64.083 0 0 1 17.766 23.94 64.027 64.027 0 0 1-3.836 57.849 64.08 64.08 0 0 1-20.771 21.387 64.136 64.136 0 0 1-57.742 5.556c3.376-5.717 8.345-12.227 9.876-15.446a46.126 46.126 0 0 0 55.828-25.134 46.063 46.063 0 0 0-18.369-58.376 46.127 46.127 0 0 0-42.851-2.397c1.126-7.985 2.992-17.49 3.595-20.5Z" fill="url(#keep_paint1_linear_505_16208)"/><defs><linearGradient id="keep_paint0_linear_505_16208" x1="86.917" y1="-5" x2="86.605" y2="192" gradientUnits="userSpaceOnUse"><stop stop-color="#667180"/><stop offset="1" stop-color="#fff" stop-opacity="0"/></linearGradient><linearGradient id="keep_paint1_linear_505_16208" x1="180.917" y1="158" x2="182.417" y2="30" gradientUnits="userSpaceOnUse"><stop stop-color="#667180"/><stop offset="1" stop-color="#fff" stop-opacity="0"/></linearGradient></defs></svg>