<svg width="394" height="361" fill="none" xmlns="http://www.w3.org/2000/svg" viewBox="0 0 394 361"><path d="M73.475 325.256c-15.128-26.2-10.2-54.9-9.68-56.765a3.514 3.514 0 0 1 2.964-2.867c1.293-.161 20.42-2.1 21.82-2.206 1.4-.106 1.865 1.823 1.5 2.6-7.483 15.946-4.636 33.972 1.814 45.141 14.333 24.825 44.214 33.362 69.667 18.667 9.461-5.462 14.142-10.393 14.954-12.1.812-1.707 2.2-2.389 2.6-1.5.4.889 7.683 16.18 8.768 19.187a4.576 4.576 0 0 1-1.464 5.464c-.9.768-2.687 2.706-14.223 9.366a78.34 78.34 0 0 1-38.658 10.265c-22.331 0-45.44-9.925-60.062-35.252Zm133.015 14.508a3.518 3.518 0 0 1-1-4c.506-1.2 8.372-18.738 8.983-20 .611-1.262 2.506-.7 2.993 0 10.047 14.452 27.05 21 39.921 21 28.608 0 50.9-21.61 50.9-51 0-10.924-1.926-17.445-2.994-19-1.068-1.555-.964-3.1 0-3 .964.1 17.819 1.435 20.959 2a4.576 4.576 0 0 1 3.991 4c.214 1.163 1 3.68 1 17 0 33.306-23.452 73-70.86 73-30.195 0-52.54-18.615-53.893-20Zm-33.137-64.378c17.255 8.364 32.72 7.018 48.373-.215-.554 15.828-24.168 60.141-24.168 60.141s-25.966-53.248-24.205-59.926Zm48.108 32.378a3.462 3.462 0 0 1-1.063-2.5 3.46 3.46 0 0 1 1.063-2.5c1.191-1.361 9.98-16.5 9.98-37s-14.971-51-14.971-51 25.2 47.234 71.858 48c3.882.064 4.046.36 4.99 2 .944 1.64 4.991 13.579 4.991 20 0 6.421-1 9-1 9s-10.389-15-28.942-15c-17.5 0-26.947 15.1-26.947 32a54.91 54.91 0 0 0 2 14c-12.872-3.415-20.326-15.215-21.959-17Zm-73.839-16.079c-8.766-15.184-26.581-15.83-41.213-7.383a54.79 54.79 0 0 0-11.124 8.733c-3.49-12.875 3-25.244 3.722-27.553a3.468 3.468 0 0 1 4.33-2.5c1.775.353 19.29.41 37.043-9.84s36.667-38.49 36.667-38.49-28.28 45.484-5.569 86.353c1.89 3.4 1.716 3.692.769 5.331-.947 1.639-9.26 11.12-14.82 14.33-5.56 3.21-8.294 3.634-8.294 3.634s7.784-16.515-1.511-32.615Zm-44.269-84.3c1.384 19.125 10.283 31.846 24.373 41.784-13.984 7.434-64.167 9.141-64.167 9.141s33.126-49.108 39.794-50.924v-.001Zm163.89 41.379c15.871-10.762 22.438-24.828 24-42 13.43 8.394 40 51 40 51s-59.093-4.132-64-9Zm-214.357 3.168c-1.114-.4-3.687-.974-15.223-7.634-28.844-16.654-51.47-56.85-27.72-97.988 15.128-26.2 42.446-36.288 44.32-36.766a3.523 3.523 0 0 1 3.965 1.134c.788 1.039 12.034 16.633 12.822 17.795.788 1.162-.647 2.525-1.5 2.6-17.551 1.491-31.74 12.971-38.188 24.14-14.332 24.825-6.785 54.972 18.667 69.667 9.46 5.462 16.072 7.051 17.955 6.9 1.883-.151 3.17.714 2.6 1.5-.571.786-10.173 14.746-12.235 17.184a4.555 4.555 0 0 1-3.576 1.824 5.658 5.658 0 0 1-1.887-.356Zm282.435-1.192c-.788-1.039-12.042-16.618-12.829-17.779-.787-1.161.644-2.522 1.5-2.593 17.539-1.474 31.712-12.927 38.147-24.072 14.3-24.776 6.735-54.885-18.718-69.58-9.461-5.462-16.07-7.054-17.951-6.908-1.881.146-3.17-.716-2.6-1.5.57-.784 10.153-14.714 12.211-17.151a4.582 4.582 0 0 1 5.46-1.457c1.114.4 3.685.976 15.222 7.636 28.844 16.654 51.493 56.811 27.79 97.866-15.1 26.15-42.394 36.2-44.267 36.673a5.162 5.162 0 0 1-1.267.17 3.24 3.24 0 0 1-2.698-1.304v-.001Zm-156.915-10.6c4.815-13.35 18.775-45.481 18.775-45.481s12.637 27.958 20.67 45.8a60.687 60.687 0 0 1-22.024 4.58c-10.606-.001-16.529-3.743-17.421-4.902v.003Zm-42-46c13.969-2.5 48.775-6.481 48.775-6.481s-17.895 24.923-29.33 40.8c-20.508-16.41-20.313-32.217-19.445-34.322v.003Zm72.837-6.376s30.531 3.036 50 5c-3.958 25.96-17.743 33.7-20 34-9.153-10.845-30-39-30-39Zm105.483 32.648c-.583-1.711-9.3-16.893-27.053-27.143s-51.653-12.535-51.653-12.535 53.506 1.793 77.5-38.23c2-3.33 2.335-3.325 4.227-3.322 1.892.003 14.255 2.468 19.815 5.679 5.56 3.211 7.3 5.364 7.3 5.364s-18.185 1.5-27.462 17.565c-8.749 15.153-.392 30.888 14.24 39.336a54.906 54.906 0 0 0 13.122 5.271c-9.392 9.436-23.339 9.993-25.7 10.515-.33.075-.668.114-1.006.116a3.463 3.463 0 0 1-3.33-2.616Zm-239.01 1.978c-1.894 0-14.26-2.46-19.821-5.67-5.561-3.21-7.294-5.366-7.294-5.366s18.2-1.516 27.49-17.615c8.767-15.184.419-30.935-14.213-39.383a54.832 54.832 0 0 0-13.124-5.268c9.4-9.459 23.359-10.028 25.722-10.553a3.469 3.469 0 0 1 4.33 2.5c.582 1.714 9.29 16.911 27.043 27.161s51.667 12.509 51.667 12.509-53.53-1.75-77.57 38.354c-1.964 3.277-2.326 3.33-4.133 3.33l-.097.001Zm162.92-89.32c20.5 16.409 20.313 32.215 19.444 34.321-13.968 2.5-48.775 6.481-48.775 6.481s17.894-24.923 29.331-40.802Zm-103.393 35.694c3.959-25.96 17.743-33.7 20-34 9.153 10.845 30 39 30 39s-30.531-3.036-50-5Zm41.393-47.694c24.461-9.553 38.056-1.484 39.444.32-4.815 13.35-18.775 45.481-18.775 45.481s-12.636-27.958-20.669-45.8v-.001ZM63.243 103.764s59.093 4.133 64 9c-15.871 10.762-22.437 24.828-24 42-13.43-8.394-40-51-40-51Zm203.517 8.594c13.985-7.434 64.167-9.141 64.167-9.141s-33.125 49.109-39.794 50.926c-1.385-19.126-10.283-31.847-24.373-41.785ZM105.243 98.764c-3.889-.064-4.054-.36-5-2-.946-1.64-5-13.58-5-20 0-6.421 1-9 1-9s10.409 15 29 15c17.533 0 27-15.1 27-32a54.862 54.862 0 0 0-2-14c12.894 3.416 20.364 15.215 22 17a3.46 3.46 0 0 1 1.065 2.5 3.467 3.467 0 0 1-1.065 2.5c-1.193 1.36-10 16.5-10 37s15 51 15 51-25.25-47.234-72-48Zm116.722-38.315c-1.885-3.394-1.712-3.685-.763-5.322s9.265-11.111 14.826-14.322c5.561-3.211 8.293-3.636 8.293-3.636s-7.8 16.5 1.481 32.566c8.749 15.153 26.554 15.784 41.186 7.336a54.898 54.898 0 0 0 11.127-8.728c3.476 12.852-3.016 25.208-3.745 27.515a3.475 3.475 0 0 1-4.33 2.5c-1.774-.35-19.28-.392-37.033 9.858s-36.682 38.464-36.682 38.464 28.305-45.442 5.64-86.231Zm81.329 34.866c7.493-15.926 4.662-33.926-1.774-45.073-14.304-24.778-44.164-33.278-69.617-18.578-9.46 5.46-14.144 10.389-14.96 12.09-.816 1.703-2.205 2.389-2.6 1.5-.395-.887-7.666-16.148-8.747-19.15a4.572 4.572 0 0 1 1.468-5.458c.9-.766 2.688-2.7 14.224-9.364 28.844-16.653 74.946-16.19 98.65 24.866 15.1 26.15 10.15 54.812 9.625 56.673a3.527 3.527 0 0 1-2.965 2.865c-1.293.162-20.413 2.119-21.811 2.22h-.106c-1.312.006-1.738-1.837-1.388-2.591h.001ZM88.243 97.764c-.967-.1-17.854-1.436-21-2a4.581 4.581 0 0 1-4-4c-.214-1.163-1-3.68-1-17 0-33.306 23.5-73 71-73 30.255 0 52.648 18.615 54 20a3.517 3.517 0 0 1 1 4c-.507 1.2-8.388 18.738-9 20-.612 1.262-2.51.7-3 0-10.066-14.452-27.1-21-40-21-28.665 0-51 21.61-51 51 0 10.924 1.93 17.445 3 19 1.036 1.507.972 3.006.089 3.005a.852.852 0 0 1-.09-.005Zm108.684-71.547s25.968 53.242 24.206 59.926c-17.255-8.364-32.72-7.018-48.372.215.554-15.83 24.166-60.141 24.166-60.141Z" fill="#637282"/></svg>