<svg width="29" height="28" viewBox="0 0 29 28" fill="none" xmlns="http://www.w3.org/2000/svg">
<g opacity="0.5">
<path fill-rule="evenodd" clip-rule="evenodd" d="M1.33537 16.0879C2.29968 16.1376 3.2399 15.7778 3.92248 15.0981L11.2582 7.79798C11.9898 7.07002 13.09 6.85229 14.0458 7.24631C15.0016 7.64033 15.6248 8.56851 15.6249 9.59808V16.5014L21.7019 10.4537C23.0895 9.07339 25.0069 8.35416 26.9648 8.47956L26.9988 8.4817C24.2129 2.02128 17.0449 -1.38143 10.2465 0.529215C3.44815 2.43986 -0.872347 9.07134 0.149086 16.0277L1.33537 16.0879Z" fill="#637282"/>
<path fill-rule="evenodd" clip-rule="evenodd" d="M26.7464 11.8663C25.7671 11.8028 24.8078 12.1629 24.1146 12.8542L16.5812 20.3525C16.1029 20.8303 15.4531 21.099 14.7753 21.0992C13.3616 21.0992 12.2156 19.9587 12.2156 18.5518V11.6466L6.33557 17.4998C4.96932 18.8579 3.08932 19.5771 1.16076 19.4794L1.12402 19.4775C3.89462 25.9591 11.0725 29.3833 17.8852 27.4733C24.6979 25.5633 29.0241 18.9138 27.9874 11.9461L26.7464 11.8663Z" fill="#637282"/>
</g>
</svg>
