<svg width="201" height="201" viewBox="0 0 201 201" fill="none" xmlns="http://www.w3.org/2000/svg">
<path d="M21.0846 124.389C6.0455 73.329 39.5197 24.3305 89.2459 17.4173C101.374 15.7194 113.745 16.8109 125.388 20.4494L126.116 20.692C138.366 24.5731 149.402 31.3649 158.377 40.4612C158.135 41.3101 157.892 42.1591 157.407 43.0081C153.405 50.1638 148.917 56.9557 143.945 63.3837C141.276 66.9009 139.093 70.6607 135.576 73.4502C135.091 72.8438 134.485 72.2374 133.999 71.5097C118.475 52.9533 90.8225 50.5277 72.2662 66.1732C60.2591 76.361 54.5588 92.1279 57.3483 107.652C59.4102 118.81 65.2318 127.785 74.0854 134.941C73.7216 135.547 73.2365 136.154 72.63 136.639C62.5635 144.401 52.3757 152.042 41.0964 157.985C31.8788 148.403 25.087 137.003 21.0846 124.389Z" fill="#667280"/>
<path d="M135.576 73.4501C139.093 70.7818 141.276 66.9008 143.945 63.3836C148.917 56.9555 153.526 50.0424 157.407 43.008C157.892 42.2803 158.256 41.31 158.377 40.461C161.288 42.4015 163.229 45.3123 165.29 47.8593C171.719 55.9853 176.691 65.2028 179.844 75.148C182.634 84.972 183.726 95.2811 183.119 105.469C182.27 120.993 176.812 135.911 167.595 148.524C147.219 176.783 111.441 189.276 77.8452 179.937C76.9962 179.694 76.2685 179.573 75.4196 179.33C72.7513 178.239 69.9618 177.269 67.2936 176.177C57.3484 171.932 48.3734 165.747 40.9751 157.863C52.2544 151.92 62.4422 144.28 72.5088 136.517C72.9939 136.032 73.479 135.426 73.9642 134.819L74.9344 134.941C84.8796 142.703 96.2803 144.886 108.409 142.703C140.064 137.003 154.739 99.7685 135.576 73.9352C135.576 73.6926 135.576 73.5714 135.576 73.4501Z" fill="#7F91A7"/>
<path d="M41.0968 157.742C48.4951 165.626 57.47 171.811 67.4153 176.056C70.0835 177.269 72.873 178.239 75.5412 179.209C62.9278 187.82 49.9505 195.582 34.7901 198.493C23.0256 200.798 12.5952 198.493 5.19692 188.184C0.103025 181.15 -0.503398 173.024 1.31585 164.777C4.46922 149.616 11.9888 136.639 20.9638 124.268C24.9661 137.003 31.8793 148.403 41.0968 157.742Z" fill="#95A9C0"/>
<path d="M180.088 75.1482C176.934 65.203 171.962 55.9855 165.534 47.8595C163.35 45.3125 161.41 42.4017 158.62 40.4612C149.524 31.365 138.487 24.6944 126.359 20.692L125.631 20.4495C135.213 14.264 144.915 8.32114 155.588 4.31879C163.472 1.40799 171.476 -0.41127 179.966 1.16541C190.639 3.22723 199.129 12.8086 200.221 23.7241C200.948 31.6075 199.129 38.8845 196.34 46.1615C192.095 56.4706 186.637 66.1733 180.088 75.1482Z" fill="#95A9C0"/>
<path d="M75.0559 134.941C80.0285 130.575 85.0011 126.208 89.9738 121.721C101.738 111.291 112.775 100.133 123.327 88.4893C127.572 83.7593 131.817 79.0292 135.698 73.9353C154.739 99.8899 140.064 137.003 108.53 142.703C96.2805 144.886 84.8799 142.582 75.0559 134.941Z" fill="#95A9C0"/>
</svg>
