<svg version="1.1" id="p2pb2b" xmlns="http://www.w3.org/2000/svg" x="0" y="0" viewBox="0 0 50 50" style="enable-background:new 0 0 50 50" xml:space="preserve"><style>.st0{fill:#637282}</style><path id="Path_109" class="st0" d="M7 .3h17.3c14 0 25.4 11.4 25.4 25.4V43c0 3.7-3 6.8-6.8 6.8H25.8C11.7 49.8.3 38.4.3 24.3V7C.3 3.3 3.3.3 7 .3z"/><path id="Path_110" class="st0" d="M47.7 47.8C36.9 30.2 20 17.2.3 11.4v12.9c0 14.1 11.4 25.4 25.5 25.5H43c1.7-.1 3.4-.8 4.7-2z"/><path id="Path_111" d="M25.1 17.6c-3.9 0-7.1 3-7.4 6.9v1.1c.3 4.1 3.9 7.2 8 6.8 4.1-.3 7.2-3.9 6.8-8-.3-3.8-3.5-6.8-7.4-6.8z" style="fill:none"/><path id="Path_112" d="M14.9 9.6c-3 0-5.4 2.4-5.4 5.4v28.8c2.4 2 5.2 3.6 8.2 4.6v-9.9c7.5 4.1 16.8 1.4 20.9-6.1s1.4-16.8-6.1-20.9c-2.3-1.2-4.8-1.9-7.4-1.9H14.9zm10.2 22.8c-3.9 0-7.1-3-7.4-6.9v-1.1c.3-4.1 3.9-7.2 8-6.9 4.1.3 7.2 3.9 6.9 8-.3 3.9-3.6 6.9-7.5 6.9z" style="fill:#f1f2f2"/></svg>