<svg width="200" height="200" viewBox="0 0 200 200" fill="none" xmlns="http://www.w3.org/2000/svg">
<path d="M35.7144 150C35.7144 177.614 58.0072 200 85.5072 200V100C85.5072 127.614 63.2144 150 35.7215 150" fill="#95A9C0"/>
<path d="M35.7144 50V150C63.2144 150 85.5072 127.614 85.5072 100C85.5072 72.3857 63.2144 50 35.7215 50M110.4 100C110.4 127.614 132.693 150 160.193 150V50C160.193 77.6143 137.9 100 110.4 100Z" fill="#667280"/>
<path d="M110.4 0V100C137.9 100 160.193 77.6143 160.193 50C160.193 22.3857 137.9 0 110.4 0Z" fill="#95A9C0"/>
</svg>
