<svg xmlns="http://www.w3.org/2000/svg" viewBox="0 0 130.6 150.5" style="enable-background:new 0 0 130.6 150.5" xml:space="preserve"><path d="m522.5 3857.8-65.3-37.6v-75.3l65.3-37.6 65.3 37.6v75.3l-65.3 37.6zm-.2-126.9c-1.1 0-2.2.2-3.1.8l-35.9 21.8c-1.9 1.4-3.1 3.7-3.2 6.1v39.4c0 1.2 0 3.3 1.9 4.5 2.3 1.3 4.7 2.4 7.2 3.4l.6.3c.9.4 1.8.7 2.8.8.5 0 1-.2 1.4-.6.4-.6.6-1.4.6-2.2v-40.5l24.6 14.4c1.9 1 4.3 1 6.2 0l35.9-21.8c1-.4 1.6-1.6 1.2-2.6-.2-.5-.6-.9-1.2-1.2l-35.9-21.8c-.9-.5-2-.8-3.1-.8zm-.9 33.8c-.9 0-1.7-.2-2.5-.6l-12.6-7.2c-.8-.3-1.2-1.1-1-1.9.2-.5.5-.8 1-1l12.6-7.2c1.6-.8 3.4-.8 5 0l12.6 7.2c.8.3 1.2 1.1 1 1.9-.2.5-.5.8-1 1l-12.6 7.2c-.7.4-1.6.6-2.5.6z" style="fill:#637282" transform="translate(-457.182 -3707.244)"/></svg>