<svg viewBox="0 0 28 33" fill="none" xmlns="http://www.w3.org/2000/svg"><path d="m5.86 24.4-.075.17a5.72 5.72 0 0 0 0 4.435 5.79 5.79 0 0 0 1.274 1.88c.548.54 1.196.966 1.908 1.256a5.955 5.955 0 0 0 4.5 0 5.884 5.884 0 0 0 1.907-1.256l10.82-10.661a5.881 5.881 0 0 0 1.76-4.189c0-1.41-.443-2.77-1.41-3.837a2.647 2.647 0 0 0-1.518-.17c-.457.084-.876.351-1.225.665L13.522 23.088c-.19.194-.41.355-.648.479.126-.077.25-.157.373-.24l-.032.013.03-.02-.03.02A8.69 8.69 0 0 1 5.86 24.4Z" fill="#7E8A9C"/><path d="m13.216 23.34.062-.042a2.588 2.588 0 0 1-2.424-.27 2.583 2.583 0 0 1-.757-.817 2.543 2.543 0 0 1 .402-3.089l3.42-3.4 4.998-4.924.02-.018a.924.924 0 0 1 .044-.035l.752-.742c.382-.074.772-.11 1.162-.107.879 0 1.626.085 2.37.297a5.793 5.793 0 0 1 3.289 2.01 2.649 2.649 0 0 0-1.527-.176c-.458.085-.877.352-1.226.666L13.523 23.088a2.56 2.56 0 0 1-.65.479 9.87 9.87 0 0 0 .374-.24l-.031.013Z" fill="#637282"/><path d="M21.509 3.564a5.357 5.357 0 0 0-1.183-1.742A6.313 6.313 0 0 0 18.28.474a6.389 6.389 0 0 0-4.83 0c-.764.311-1.46.77-2.047 1.348l-8.908 8.776A8.331 8.331 0 0 0 0 16.4a8.324 8.324 0 0 0 2.307 5.876l.093.089.096.098c.088.085.18.165.276.24a8.69 8.69 0 0 0 10.504.595 2.588 2.588 0 0 1-2.424-.27 2.582 2.582 0 0 1-.757-.817 2.543 2.543 0 0 1 .402-3.089l3.42-3.4 4.998-4.924.064-.053 1.345-1.327a5.343 5.343 0 0 0 1.493-2.75 5.295 5.295 0 0 0-.31-3.102v-.002Z" fill="#A5ADB9"/></svg>