<svg xmlns="http://www.w3.org/2000/svg" viewBox="0 0 267.357 251.691"><path data-name="swapuz simple" d="M192.957 251.69a14.718 14.718 0 0 1-4.826-.815c-4.433-1.536-12.348-4.138-19.332-6.434l-.017-.005c-6.852-2.253-12.769-4.2-13.651-4.561a7.011 7.011 0 0 0-2.643-.528 5.006 5.006 0 0 0-2.357.528 68.957 68.957 0 0 1-13 4.753 115.072 115.072 0 0 1-14.211 2.936 132.968 132.968 0 0 1-18.789 1.311 106.339 106.339 0 0 1-34.2-5.469 97.14 97.14 0 0 1-24-12.031 90.745 90.745 0 0 1-14.151-12.031 53.821 53.821 0 0 1-4.649-5.469 52.257 52.257 0 0 0 9.275 2.5 155.45 155.45 0 0 0 29.725 2.5 90.626 90.626 0 0 0 20.208-2.434 118.515 118.515 0 0 0 18.4-5.89c11.552-4.747 20.074-10.289 23.392-13.676a7.619 7.619 0 0 0 2.177-4.4 9.04 9.04 0 0 0-.684-4.677 10.818 10.818 0 0 0-3.428-4.4 8.68 8.68 0 0 0-5.213-1.819 9.056 9.056 0 0 0-5.852 2.296l-.264.22a51.78 51.78 0 0 1-14.6 8.849c-9.622 3.931-21.444 5.931-35.136 5.931a156.894 156.894 0 0 1-25.965-1.994 91.8 91.8 0 0 1-17.623-4.657 47.9 47.9 0 0 1-10.329-5.332 13.538 13.538 0 0 1-4.083-4.017c-.822-1.695-2.844-8.1-4.573-16.469-1.44-6.972-3.027-17.06-2.427-25.531a128.134 128.134 0 0 1 4.937-27.67 104.927 104.927 0 0 1 9.616-22.392 98.777 98.777 0 0 1 28.162-30.91 109.43 109.43 0 0 1 15.992-9.5 113.893 113.893 0 0 1 15.563-6.177c8.823-2.764 17.836-4.351 24.73-4.351h18l.225-.139c9.209-5.661 55.464-34.072 61.775-37.861A13.991 13.991 0 0 1 186.245 0a13.415 13.415 0 0 1 8.016 2.488 9.468 9.468 0 0 1 3.87 7.387c.3 6.745.783 39.423.942 50.161.033 2.215.053 3.585.058 3.839a2.865 2.865 0 0 0 2 3c.626.146 13.771 2.4 27.688 4.78 12.672 2.17 25.776 4.413 30.312 5.22a9.54 9.54 0 0 1 4.847 2.306 9.9 9.9 0 0 1 2.637 4.067 13.87 13.87 0 0 1 .606 6.446 10.165 10.165 0 0 1-2.09 5.181c-1.811 2.1-10.849 12.829-19.59 23.2l-.043.051-.03.035c-9.212 10.936-17.913 21.264-18.337 21.714a1.229 1.229 0 0 0-.323 1.023 3.087 3.087 0 0 0 1.323 1.977c.464.313 5.836 4.754 12.057 9.9l.015.012c6.22 5.143 13.271 10.971 15.928 13.09 2.318 1.848 3.355 5.505 2.707 9.545a14.426 14.426 0 0 1-2.213 5.748 9.486 9.486 0 0 1-4.494 3.705c-4.452 1.65-22.949 8.951-36.454 14.281l-.037.014c-7.853 3.1-14.056 5.548-14.509 5.7-.8.277-2.6 1.123-2 3 .52 1.63 4.134 19.539 6 30a11.218 11.218 0 0 1-2.275 9.477 11.853 11.853 0 0 1-4.359 3.209 14 14 0 0 1-5.54 1.134ZM83.631 83.875a20.436 20.436 0 1 0 7.98 1.611 20.369 20.369 0 0 0-7.98-1.611Z" fill="#637282"/></svg>