<svg viewBox="0 0 37 49" fill="none" xmlns="http://www.w3.org/2000/svg"><path d="M11.124 27.063h3.404c.365 0 .714-.143.973-.4l3.223-3.209a.685.685 0 0 0-.486-1.168h-6.037a4.823 4.823 0 0 1-3.389-1.398A4.778 4.778 0 0 1 7.4 17.52c0-2.42 2.016-4.794 4.803-4.794H26.62l-3.331 3.316a1.606 1.606 0 0 0-.428 1.66c.265.823 1.233 1.757 2.307 2.001a2.068 2.068 0 0 0 1.834-.525l7.672-7.638a1.688 1.688 0 0 0 0-2.405L27 1.497a2.19 2.19 0 0 0-1.847-.62c-1.058.09-2.216 1.21-2.375 2.258a1.752 1.752 0 0 0 .514 1.5l3.326 3.31H11.124a9.627 9.627 0 0 0-6.79 2.799 9.537 9.537 0 0 0-2.814 6.76 9.537 9.537 0 0 0 2.813 6.76 9.63 9.63 0 0 0 6.791 2.799Z" fill="#637282"/><path d="M27.169 22.286h-2.75a1.38 1.38 0 0 0-.973.401l-3.224 3.207a.683.683 0 0 0 .486 1.169h5.58c2.337 0 4.988 1.452 4.988 4.78 0 3.327-2.904 4.78-4.802 4.78H9.475l3.327-3.314a1.755 1.755 0 0 0 .513-1.498c-.159-1.045-1.317-2.178-2.375-2.26a2.214 2.214 0 0 0-1.846.62L1.42 37.81a1.694 1.694 0 0 0 0 2.402l7.674 7.639a2.06 2.06 0 0 0 1.834.525c1.074-.242 2.041-1.179 2.306-2.002a1.601 1.601 0 0 0-.428-1.657l-3.33-3.319H27.17a9.489 9.489 0 0 0 6.825-2.763 9.43 9.43 0 0 0 2.776-6.793 9.546 9.546 0 0 0-2.815-6.755 9.634 9.634 0 0 0-6.786-2.801Z" fill="#637282"/></svg>