<svg xmlns="http://www.w3.org/2000/svg" viewBox="0 0 50 50" style="enable-background:new 0 0 50 50" xml:space="preserve"><circle cx="25" cy="25" r="25" style="fill:#637282"/><path d="m23.5 35.3 4.3-15.6 2.1.8-1.5-5.9h12.7c2.3 0 3.5 2.5 2.7 5.5l-.8 3v.2c-.2.7-.5 1.4-.9 2-1.2 2-3.1 3.3-4.7 3.3H31l-1.8 6.7h-5.7zm8.4-10.1h3.4c1-.2 1.9-1 2.1-2l.8-3.1c.3-1.1-.1-2-1-2h-3.4l-1.9 7.1zM8.8 35.4h-.4c-.7-.1-1.4-.5-1.9-1.2-.2-.3-.3-.6-.4-.9 0-.2-.1-.4-.1-.6-.1-.9-.1-1.8.1-2.7 0-.1.1-.4.1-.4l4.1-15h5.6l-4.2 15.2c-.3.7-.1 1.4.4 1.9.2.1.3.2.5.2h2.8l4.7-17.2h6.4l-4.7 5.9 2.5-.8L20 35.4H8.8z" style="fill:#fff"/></svg>