<svg xmlns="http://www.w3.org/2000/svg" viewBox="0 0 134 151" style="enable-background:new 0 0 134 151" xml:space="preserve"><path d="M1801 4884.9c-1 0-2-.2-2.9-.7-2.4-1.3-58-33.1-60.5-34.5-2.2-1.3-3.6-3.7-3.6-6.2v-67.9c-.1-1.5.3-3 1.2-4.3.7-.9 1.6-1.7 2.6-2.2l6.5-3.7 1.3-.7c16.2-9.3 50-28.6 51.8-29.6 1-.6 2.1-1 3.3-1 1.5.1 2.9.5 4.1 1.2 1.7.9 16.7 9.4 30.2 17.1 13.6 7.7 28.3 16.2 29.6 17 2.2 1.1 3.6 3.5 3.4 6v68.6c-.1 2.5-1.6 4.8-3.8 6-.7.4-15 8.6-30.1 17.3-6.8 3.9-29.2 16.7-29.9 17.1-1 .3-2.1.5-3.2.5zm23-108.9c-1.9 0-3.6 1.4-5 4-.3.6-5.1 11.1-10.7 23.4v.1c-7.1 15.6-15.1 33.3-16.3 35.6-.7 1.3-1.1 2.8-1 4.4.1 1 .4 2 .8 2.9.1.2.2.5.3.7.9 2 1.9 3.9 3.1 5.7 1.1 1.9 2.2 3.9 2.9 5.3.5 1.2 1.6 2.1 3 2.2 1.3-.1 2.5-.9 3-2.2.3-.6 2.2-4.5 5-10.4l.1-.1c9.8-20.4 30.3-62.7 31.9-65.4 1-1.8 1.3-3.5.6-4.7-.6-.9-1.5-1.4-2.6-1.3H1824v-.2zm-60 1c-.9-.1-1.7.3-2.2 1-.6.9-.5 2.3.2 4 .5 1.1 3.5 7.7 7.4 16.1v.1c6.7 14.4 15 32.3 15.5 33.8.3 1.4 1.5 2.4 2.9 2.6.4 0 .9-.2 1.1-.6.5-.9 3.8-7.5 5.9-11.8 1-2 1.8-3.7 2.1-4.2.7-1.3 1.5-3.8 1-5-1.9-4.7-14-30.2-15-32-1-1.9-2.9-4-5-4H1764z" style="fill:#637282" transform="translate(-1733.998 -4733.958)"/></svg>