<svg width="335" height="335" viewBox="0 0 335 335" fill="none" xmlns="http://www.w3.org/2000/svg">
<path fill-rule="evenodd" clip-rule="evenodd" d="M335 167.5C335 260.008 260.008 335 167.5 335C74.9923 335 0 260.008 0 167.5C0 74.9923 74.9923 0 167.5 0C260.008 0 335 74.9923 335 167.5ZM63.7793 268.779C59.5802 272.313 55.2446 275.963 53.9283 277.4C51.4567 280.1 51.2628 282 53.9191 282H53.9283C56.5939 282 62.1454 279.961 66.6269 276.25C71.1083 272.539 87.8762 258.6 89.7151 256.699C90.4519 255.938 91.5794 255.452 93.0155 254.835C95.1642 253.91 98.0037 252.689 101.259 249.799C106.691 244.978 118.435 233.896 120.884 231.398C123.334 228.9 125.697 227.955 127.811 227.948C128.883 228.003 129.953 227.825 130.95 227.428C131.946 227.031 132.844 226.424 133.583 225.648C134.575 224.594 137.164 222.043 139.388 219.851C140.912 218.35 142.266 217.017 142.818 216.448C144.177 215.048 146.37 215.098 147.436 217.598C148.501 220.098 154.958 229.074 168.215 238.299C169.299 239.053 169.276 240.17 169.252 241.373C169.226 242.661 169.198 244.049 170.524 245.199C170.777 245.418 171.107 245.705 171.497 246.045C175.068 249.149 183.735 256.686 185.531 257.849C187.131 258.885 188.98 258.519 190.969 258.124C191.457 258.028 191.954 257.929 192.458 257.849C195.013 257.444 200.512 257.058 202.848 258.999C205.183 260.941 215.948 268.482 221.318 270.5C226.689 272.517 236.753 271.962 238.634 271.65C240.516 271.337 242.385 268.815 238.634 267.049C234.884 265.284 202.128 242.126 192.458 219.898C191.704 218.165 191.083 218.072 190.333 217.958C189.666 217.857 188.897 217.741 187.84 216.448C180.657 207.659 175.34 190.666 175.142 177.347C175.127 176.36 175.959 176.116 177.143 175.77C178.232 175.451 179.617 175.046 180.914 173.896C181.571 173.314 182.52 172.36 183.647 171.229C187.16 167.701 192.4 162.438 195.921 161.246C200.572 159.672 199.897 156.626 197.076 156.646C194.254 156.665 197 153.874 199.384 152.046C200.815 150.948 228.285 126.235 250.834 105.95C265.861 92.4305 278.703 80.878 280.193 79.5934C283.92 76.3813 283.541 72.4367 281.348 70.3931C279.154 68.3495 268.475 58.9249 255.951 58.8927C257.168 54.7733 261.723 53.1425 261.723 53.1425C261.723 53.1425 252.914 51.567 247.87 58.8927C246.492 60.2302 246.34 58.7845 246.193 57.3748C246.096 56.4488 246.001 55.5383 245.561 55.4426C243.512 54.7916 241.313 54.7728 239.253 55.3884C237.193 56.0041 235.368 57.2256 234.017 58.8927C229.358 64.4129 176.65 119.564 175.142 120.995C173.633 122.425 170.921 119.45 172.833 117.545C174.745 115.639 175.026 114.735 175.142 109.494C175.257 104.254 176.705 90.8442 182.068 83.0435C183.217 81.3736 184.916 76.8184 182.068 74.9932C179.22 73.1681 164.208 61.3503 161.289 58.8927C158.369 56.4351 152.15 55.1102 150.899 57.7427C149.648 60.3751 145.82 68.4311 145.127 70.3931C144.434 72.3551 141.145 72.2262 142.818 66.943C144.491 61.6597 146.323 58.8605 147.436 57.7427C148.549 56.6248 147.121 52.8424 142.818 55.4426C138.516 58.0428 126.656 71.2706 126.656 108.344C126.656 145.418 137.046 168.146 137.046 168.146C134.536 168.066 132.08 168.882 130.12 170.446C127.3 172.982 116.959 182.326 115.112 185.397C114.462 186.477 114.217 187.597 113.938 188.864C113.425 191.2 112.803 194.036 109.34 198.047C103.999 204.236 90.6121 218.609 88.5607 219.898C87.6257 220.485 86.5907 220.11 85.52 219.722L85.4761 219.706C84.2086 219.249 82.8937 218.79 81.6342 219.898C79.178 222.16 77.2135 224.9 75.8622 227.948C75.5888 228.658 75.477 229.334 75.3672 229.997C75.1035 231.592 74.8519 233.113 72.3989 234.848C68.9253 237.306 63.7004 241.156 63.1636 246.349C62.7402 250.445 61.8577 255.51 61.2597 258.943C61.0996 259.862 60.9599 260.664 60.8548 261.299C60.3573 264.307 63.2548 264.955 65.4725 262.449C66.9379 260.793 68.3525 259.461 69.5629 258.321C70.1841 257.735 70.7516 257.201 71.2445 256.699C72.6979 255.22 75.2446 258.424 72.3989 261.299C71.0667 262.645 67.4759 265.668 63.7793 268.779ZM193.612 260.149C191.031 260.812 191.597 262.94 195.921 264.749C197.787 265.633 199.81 266.144 201.873 266.251C202.598 266.259 203.319 266.14 204.002 265.899C205.513 265.36 203.35 264.094 200.615 262.494L200.539 262.449C200.134 262.212 199.755 261.982 199.394 261.762C197.287 260.479 195.816 259.584 193.612 260.149ZM90.6222 209.289C89.1392 210.39 87.4688 211.63 86.2519 212.998C84.8331 214.593 85.3284 216.823 86.963 216.824C88.0437 216.688 89.0299 216.141 89.7151 215.298C91.2852 213.724 92.317 212.733 93.0983 211.983C94.1052 211.015 94.6961 210.448 95.4872 209.548C95.7767 209.239 95.9346 208.831 95.9276 208.409C95.9205 207.987 95.749 207.584 95.4493 207.285C95.1497 206.987 94.7453 206.816 94.3215 206.809C93.8978 206.802 93.4879 206.959 93.1784 207.248C92.5449 207.862 91.6265 208.544 90.6222 209.289ZM102.414 200.347C101.836 199.393 100.321 200.186 98.9504 201.497C96.8425 203.513 96.8355 204.806 97.8918 204.806C98.7146 204.7 99.486 204.348 100.105 203.797L100.328 203.628C102.889 201.683 103.113 201.513 102.414 200.347ZM187.795 170.358C187.078 171.166 186.349 171.987 185.531 172.746C184.341 173.849 184.529 174.88 185.978 174.88C187.909 174.642 189.745 173.906 191.303 172.746C197.024 169.111 197.751 162.6 191.303 166.996C189.974 167.903 188.898 169.114 187.795 170.358Z" fill="#637282"/>
</svg>
