<svg width="151" height="136" viewBox="0 0 151 136" fill="none" xmlns="http://www.w3.org/2000/svg">
<path d="M51 56C51 51.5817 54.5817 48 59 48H89C93.4183 48 97 51.5817 97 56C97 60.4183 93.4183 64 89 64H59C54.5817 64 51 60.4183 51 56Z" fill="#637282"/>
<path d="M12 32C12 27.5817 15.5817 24 20 24H128C132.418 24 136 27.5817 136 32C136 36.4183 132.418 40 128 40H20C15.5817 40 12 36.4183 12 32Z" fill="#637282"/>
<path d="M0 8C0 3.58172 3.58172 0 8 0H143C147.418 0 151 3.58172 151 8C151 12.4183 147.418 16 143 16H8C3.58172 16 0 12.4183 0 8Z" fill="#637282"/>
<path d="M49 78C49 73.5817 52.5817 70 57 70H87C91.4183 70 95 73.5817 95 78C95 82.4183 91.4183 86 87 86H57C52.5817 86 49 82.4183 49 78Z" fill="#637282"/>
<path d="M45 102C45 97.5817 48.5817 94 53 94H83C87.4183 94 91 97.5817 91 102C91 106.418 87.4183 110 83 110H53C48.5817 110 45 106.418 45 102Z" fill="#637282"/>
<path d="M39 128C39 123.582 42.5817 120 47 120H77C81.4183 120 85 123.582 85 128C85 132.418 81.4183 136 77 136H47C42.5817 136 39 132.418 39 128Z" fill="#637282"/>
</svg>
