<?xml version="1.0" encoding="utf-8"?>
<!-- Generator: Adobe Illustrator 23.0.3, SVG Export Plug-In . SVG Version: 6.00 Build 0)  -->
<svg version="1.1" id="Слой_1" xmlns="http://www.w3.org/2000/svg" xmlns:xlink="http://www.w3.org/1999/xlink" x="0px" y="0px"
	 viewBox="0 0 412 386" style="enable-background:new 0 0 412 386;" xml:space="preserve">
<style type="text/css">
	
		.st0{opacity:0.839;fill:url(#Прямоугольник_скругл._углы_504_копия_17_1_);enable-background:new    ;}
	.st1{fill:#E4A658;}
	.st2{clip-path:url(#SVGID_2_);}
	.st3{fill:#FFEED8;}
	.st4{fill:#B16537;}
	.st5{clip-path:url(#SVGID_4_);}
	.st6{fill:#FFD9A8;}
	.st7{clip-path:url(#SVGID_6_);}
	.st8{fill:#E8BB82;}
	.st9{fill:#A7A6C0;}
	.st10{clip-path:url(#SVGID_8_);}
	.st11{opacity:0.361;fill:#C2CFE0;enable-background:new    ;}
	.st12{fill:#C2CFE0;}
	.st13{fill:#5D5988;}
	.st14{clip-path:url(#SVGID_10_);}
	.st15{clip-path:url(#SVGID_12_);}
	.st16{fill:#C4D0E1;}
	.st17{clip-path:url(#SVGID_14_);}
	.st18{clip-path:url(#SVGID_16_);}
	.st19{clip-path:url(#SVGID_18_);}
	.st20{fill:#9795B6;}
	.st21{fill:#A9AAC8;}
	.st22{clip-path:url(#SVGID_20_);}
	.st23{fill:#696999;}
	.st24{opacity:0.631;enable-background:new    ;}
	.st25{fill:#4286A1;}
	.st26{fill:#BED9CF;}
	.st27{fill:#1C6789;}
	.st28{fill:#65A8C2;}
	.st29{clip-path:url(#SVGID_22_);}
	.st30{fill:#EBF6F2;}
	.st31{fill:#2A88B2;}
	.st32{fill:#E8F4EE;}
	.st33{fill:#BAD9D9;}
	.st34{clip-path:url(#SVGID_24_);}
	.st35{fill:#383852;}
	.st36{opacity:0.4;enable-background:new    ;}
	.st37{clip-path:url(#SVGID_26_);}
	.st38{clip-path:url(#SVGID_28_);}
	.st39{clip-path:url(#SVGID_30_);}
	.st40{fill:#F7B6A4;}
	.st41{clip-path:url(#SVGID_32_);}
	.st42{opacity:0.361;fill:#FEE9DF;enable-background:new    ;}
	.st43{fill:#FEE9DF;}
	.st44{fill:#D3708D;}
	.st45{fill:#494775;}
	.st46{fill:#FF584E;}
	.st47{fill:#6C6A96;}
	.st48{clip-path:url(#SVGID_34_);}
	.st49{clip-path:url(#SVGID_36_);}
	.st50{fill:#FFE3C0;}
	.st51{fill:#FFDEA9;}
	.st52{clip-path:url(#SVGID_38_);}
	.st53{fill:#DFA963;}
	.st54{fill:#845234;}
</style>
<g>
	<g id="Canvas">
		<g id="Prepare">
			
				<linearGradient id="Прямоугольник_скругл._углы_504_копия_17_1_" gradientUnits="userSpaceOnUse" x1="-84.932" y1="4.3408" x2="-85.336" y2="5.3408" gradientTransform="matrix(235.0104 0 0 140.9886 20132.8906 -402.0036)">
				<stop  offset="0" style="stop-color:#364D88;stop-opacity:0.58"/>
				<stop  offset="0.647" style="stop-color:#233A73;stop-opacity:0"/>
				<stop  offset="1" style="stop-color:#192F67;stop-opacity:0"/>
			</linearGradient>
			<path id="Прямоугольник_скругл._углы_504_копия_17" class="st0" d="M123.7,210.2L242.6,281
				c0.5,0.3,0.5,0.7,0.1,1L129,350.8c-0.5,0.3-1.2,0.3-1.7,0L8.4,280c-0.5-0.3-0.5-0.7-0.1-1L122,210.2
				C122.5,209.9,123.1,209.9,123.7,210.2z"/>
			<g id="Фигура_1900-2">
				<path id="Фигура_1900-3" class="st1" d="M353,113l51,21l2-4L264,48l-56-22L353,113z"/>
				<g>
					<g>
						<defs>
							<polygon id="SVGID_1_" points="353,113 404,134 406,130 264,48 208,26 							"/>
						</defs>
						<clipPath id="SVGID_2_">
							<use xlink:href="#SVGID_1_"  style="overflow:visible;"/>
						</clipPath>
						<g id="Clip" class="st2">
							<path id="Фигура_1901" class="st3" d="M406,130L262,38l-55-13l12,9c0,0,109.2,66.9,129,78c1.9,1.1,4-3,4-3L406,130z"/>
						</g>
					</g>
				</g>
			</g>
			<g id="Фигура_1900_копия-2">
				<path id="Фигура_1900_копия-3" class="st4" d="M103,114l-51,21l-2-4l142-82l56-22L103,114z"/>
				<g>
					<g>
						<defs>
							<polygon id="SVGID_3_" points="103,114 52,135 50,131 192,49 248,27 							"/>
						</defs>
						<clipPath id="SVGID_4_">
							<use xlink:href="#SVGID_3_"  style="overflow:visible;"/>
						</clipPath>
						<g id="Clip-2" class="st5">
							<path id="Фигура_1901_копия" class="st6" d="M50,131l144-92l55-13l-12,9c0,0-109.2,66.9-129,78c-1.9,1.1-5-3-5-3
								L50,131z"/>
						</g>
					</g>
				</g>
			</g>
			<g id="Фигура_1892-2">
				<path id="Фигура_1892-3" class="st1" d="M104.7,108.2c-1.3,0.6-1.7,0.9-1.7,3.5v107L226.1,290L351,217.8V111.7
					c-0.5-1.4-1.4-2.6-2.6-3.5c-1.5-0.9-118.9-69-119.7-69.6c-1.6-0.8-3.6-0.8-5.2,0C221.9,39.6,106.1,107.6,104.7,108.2z"/>
				<g>
					<g>
						<defs>
							<path id="SVGID_5_" d="M104.7,108.2c-1.3,0.6-1.7,0.9-1.7,3.5v107L226.1,290L351,217.8V111.7c-0.5-1.4-1.4-2.6-2.6-3.5
								c-1.5-0.9-118.9-69-119.7-69.6c-1.6-0.8-3.6-0.8-5.2,0C221.9,39.6,106.1,107.6,104.7,108.2z"/>
						</defs>
						<clipPath id="SVGID_6_">
							<use xlink:href="#SVGID_5_"  style="overflow:visible;"/>
						</clipPath>
						<g id="Clip-3" class="st7">
							<path id="Фигура_1894" class="st4" d="M227,42.1v111.6l32.9,18.3l56.2-14.8l36.3-30.5l2.6-16.6
								c0,0-128.7-74.9-128-74.1S227,42.1,227,42.1z"/>
							<path id="Фигура_1893" class="st6" d="M108.5,111.4c0,0,115.5-67.4,116.3-67.8c1.1-0.6,2.4-0.6,3.5,0
								c1.3,0.8,119.8,69.6,119.8,69.6l5.2-3.5L226.6,34L99,109.7l6.9,3.5L108.5,111.4z"/>
							<path id="Фигура_1895" class="st8" d="M111.1,216.6l115.4-67l116.3,67l-116.3,69.6L111.1,216.6z"/>
						</g>
					</g>
				</g>
			</g>
			<g id="Группа_200">
				<g id="_2">
					<g id="Группа_195_копия_4">
						<g id="Фигура_2180_копия_2-6">
							<path id="Фигура_2180_копия_2-7" class="st9" d="M184.3,162.7c1.1,0.5,2.3,0.4,3.3-0.2c1.3-0.8,23.3-14.4,24.2-15
								c1.4-0.7,2.2-2.2,2.1-3.8V63.1c-0.1-3.3-1.8-6.4-4.6-8.2c-3-1.8-5.4-2.7-6.8-3.5c-1-0.6-2.3-0.6-3.2,0.1
								c-0.9,0.5-23.5,14.6-24.5,15.2c-1.2,0.5-2,1.7-1.9,3v81.6c-0.2,3.3,1.6,6.4,4.6,7.8C179.8,160.5,182,161.6,184.3,162.7z"/>
							<g>
								<g>
									<defs>
										<path id="SVGID_7_" d="M184.3,162.7c1.1,0.5,2.3,0.4,3.3-0.2c1.3-0.8,23.3-14.4,24.2-15c1.4-0.7,2.2-2.2,2.1-3.8V63.1
											c-0.1-3.3-1.8-6.4-4.6-8.2c-3-1.8-5.4-2.7-6.8-3.5c-1-0.6-2.3-0.6-3.2,0.1c-0.9,0.5-23.5,14.6-24.5,15.2
											c-1.2,0.5-2,1.7-1.9,3v81.6c-0.2,3.3,1.6,6.4,4.6,7.8C179.8,160.5,182,161.6,184.3,162.7z"/>
									</defs>
									<clipPath id="SVGID_8_">
										<use xlink:href="#SVGID_7_"  style="overflow:visible;"/>
									</clipPath>
									<g id="Clip-4" class="st10">
										<path id="Фигура_2183_копия_2" class="st11" d="M187,72.2L212.6,56l2.4,4.5L188.1,77L187,72.2z"/>
										<path id="Фигура_2182_копия_2" class="st12" d="M186.5,72.6l26.4-16.1c-0.9-1.1-2-2.1-3.3-2.7
											c-2.5-1.4-5.6-2.6-7.1-3.4c-1-0.6-2.2-0.7-3.3-0.1c-0.8,0.4-24.8,15.3-25.8,15.9s-1.9,2.8-0.3,2.8s1.6-1,4.3,0.3
											s2.9,1.4,5,2.6C183.7,72.7,185.1,72.9,186.5,72.6z"/>
										<path id="Фигура_2181_копия_5" class="st13" d="M184.2,163.4c1.3,0.7,4.8,1.7,4.8-2.8V79.1
											c0-3.7-1.2-6.5-4.3-8.3c-3.2-1.9-4.7-1.9-7.1-3.3s-4.8-0.5-4.8,2.7l0.2,82.6c0,1.3,0.5,5.1,3.5,7S182.9,162.6,184.2,163.4
											z"/>
									</g>
								</g>
							</g>
						</g>
					</g>
					<g id="Группа_195_копия_3">
						<g id="Фигура_2180_копия_2-8">
							<path id="Фигура_2180_копия_2-9" class="st9" d="M208.3,177.7c1.1,0.5,2.3,0.4,3.3-0.2c1.3-0.8,23.3-14.4,24.2-15
								c1.4-0.7,2.2-2.2,2.1-3.8V54.1c-0.1-3.3-1.8-6.4-4.6-8.2c-3-1.8-9.4-5.7-10.8-6.5c-1-0.6-2.3-0.6-3.2,0.1
								c-0.9,0.5-23.5,14.6-24.5,15.2c-1.2,0.5-2,1.7-1.9,3v105.6c-0.2,3.3,1.6,6.4,4.6,7.8C201.2,173.3,207.4,177.3,208.3,177.7z"
								/>
							<g>
								<g>
									<defs>
										<path id="SVGID_9_" d="M208.3,177.7c1.1,0.5,2.3,0.4,3.3-0.2c1.3-0.8,23.3-14.4,24.2-15c1.4-0.7,2.2-2.2,2.1-3.8V54.1
											c-0.1-3.3-1.8-6.4-4.6-8.2c-3-1.8-9.4-5.7-10.8-6.5c-1-0.6-2.3-0.6-3.2,0.1c-0.9,0.5-23.5,14.6-24.5,15.2
											c-1.2,0.5-2,1.7-1.9,3v105.6c-0.2,3.3,1.6,6.4,4.6,7.8C201.2,173.3,207.4,177.3,208.3,177.7z"/>
									</defs>
									<clipPath id="SVGID_10_">
										<use xlink:href="#SVGID_9_"  style="overflow:visible;"/>
									</clipPath>
									<g id="Clip-5" class="st14">
										<path id="Фигура_2183_копия_2-2" class="st11" d="M211,64.2L236.6,48l2.4,4.5L212.1,69L211,64.2z"/>
										<path id="Фигура_2182_копия_2-2" class="st12" d="M210.5,63.6l26.4-16.1c-0.9-1.1-2-2.1-3.3-2.7
											c-2.5-1.4-9.6-5.6-11.1-6.4c-1-0.6-2.2-0.7-3.3-0.1c-0.8,0.4-24.8,15.3-25.8,15.9s-1.9,2.8-0.3,2.8s1.6-1,4.3,0.3
											s6.9,4.4,9,5.6C207.7,63.7,209.1,63.9,210.5,63.6z"/>
										<path id="Фигура_2181_копия_5-2" class="st13" d="M208.2,178.4c1.3,0.7,4.8,1.7,4.8-2.8V70.1
											c0-3.7-1.2-6.5-4.3-8.3c-3.2-1.9-8.7-5-11.1-6.3s-4.6-0.3-4.6,2.9v106.4c0,1.3,0.5,5.1,3.5,7S206.9,177.6,208.2,178.4z"/>
									</g>
								</g>
							</g>
						</g>
					</g>
					<g id="Группа_203">
						<g id="Фигура_1826-2">
							<path id="Фигура_1826-3" class="st13" d="M195,59c-1.3-1.1-2.3-2.5-3-4c-1.1-2.1-6.7-11.3-7-12c-0.5-0.9-0.9-1.9-1-3
								V21c0-1.3-0.1-2.8,2-4s19.9-11.4,21-12c1.5-1,3.5-1,5,0c1.9,1.3,23,13.4,24,14c1.4,0.9,2.1,2.4,2,4v35c0,0-20.5,9.4-22,10
								s-4,0.2-6-1S195.7,59.4,195,59z"/>
							<g>
								<g>
									<defs>
										<path id="SVGID_11_" d="M195,59c-1.3-1.1-2.3-2.5-3-4c-1.1-2.1-6.7-11.3-7-12c-0.5-0.9-0.9-1.9-1-3V21c0-1.3-0.1-2.8,2-4
											s19.9-11.4,21-12c1.5-1,3.5-1,5,0c1.9,1.3,23,13.4,24,14c1.4,0.9,2.1,2.4,2,4v35c0,0-20.5,9.4-22,10s-4,0.2-6-1
											S195.7,59.4,195,59z"/>
									</defs>
									<clipPath id="SVGID_12_">
										<use xlink:href="#SVGID_11_"  style="overflow:visible;"/>
									</clipPath>
									<g id="Clip-6" class="st15">
										<path id="Фигура_1828" class="st16" d="M214,35l-32-18l28-17l33,19l-3,5L214,35z"/>
										<path id="Фигура_1827" class="st9" d="M213,69V38c0.2-2,1.3-3.9,3-5c2.1-1.2,24-14,24-14l-1,12v37L213,69z"/>
									</g>
								</g>
							</g>
						</g>
					</g>
				</g>
				<g id="_1">
					<g id="Группа_195_копия_3-2">
						<g id="Фигура_2180_копия_2-10">
							<path id="Фигура_2180_копия_2-11" class="st9" d="M236.3,196.7c1.1,0.5,2.3,0.4,3.3-0.2
								c1.3-0.8,23.3-14.4,24.2-15c1.4-0.7,2.2-2.2,2.1-3.8V61.1c-0.1-3.3-1.8-6.4-4.6-8.2c-3-1.8-9.4-5.7-10.8-6.5
								c-1-0.6-2.3-0.6-3.2,0.1c-0.9,0.5-23.5,14.6-24.5,15.2c-1.2,0.5-2,1.7-1.9,3v117.6c-0.2,3.3,1.6,6.4,4.6,7.8
								C229.2,192.3,235.4,196.3,236.3,196.7z"/>
							<g>
								<g>
									<defs>
										<path id="SVGID_13_" d="M236.3,196.7c1.1,0.5,2.3,0.4,3.3-0.2c1.3-0.8,23.3-14.4,24.2-15c1.4-0.7,2.2-2.2,2.1-3.8V61.1
											c-0.1-3.3-1.8-6.4-4.6-8.2c-3-1.8-9.4-5.7-10.8-6.5c-1-0.6-2.3-0.6-3.2,0.1c-0.9,0.5-23.5,14.6-24.5,15.2
											c-1.2,0.5-2,1.7-1.9,3v117.6c-0.2,3.3,1.6,6.4,4.6,7.8C229.2,192.3,235.4,196.3,236.3,196.7z"/>
									</defs>
									<clipPath id="SVGID_14_">
										<use xlink:href="#SVGID_13_"  style="overflow:visible;"/>
									</clipPath>
									<g id="Clip-7" class="st17">
										<path id="Фигура_2183_копия_2-3" class="st11" d="M239,71.2L264.6,55l2.4,4.5L240.1,76L239,71.2z"/>
										<path id="Фигура_2182_копия_2-3" class="st12" d="M238.5,70.6l26.4-16.1c-0.9-1.1-2-2.1-3.3-2.7
											c-2.5-1.4-9.6-5.6-11.1-6.4c-1-0.6-2.2-0.7-3.3-0.1c-0.8,0.4-24.8,15.3-25.8,15.9s-1.9,2.8-0.3,2.8s1.6-1,4.3,0.3
											c2.8,1.3,6.9,4.4,9,5.6C235.7,70.7,237.1,70.9,238.5,70.6z"/>
										<path id="Фигура_2181_копия_5-3" class="st13" d="M236.2,197.4c1.3,0.7,4.8,1.7,4.8-2.8V77.1
											c0-3.7-1.2-6.5-4.3-8.3c-3.2-1.9-8.7-5-11.1-6.3s-4.6-0.3-4.6,2.9v118.4c0,1.3,0.5,5.1,3.5,7S234.9,196.6,236.2,197.4z"/>
									</g>
								</g>
							</g>
						</g>
					</g>
					<g id="Группа_195_копия_4-2">
						<g id="Фигура_2180_копия_2-12">
							<path id="Фигура_2180_копия_2-13" class="st9" d="M257.3,208.7c1.1,0.5,2.3,0.4,3.3-0.2
								c1.3-0.8,23.3-14.4,24.2-15c1.4-0.7,2.2-2.2,2.1-3.8V97.1c-0.1-3.3-1.8-6.4-4.6-8.2c-3-1.8-5.4-2.7-6.8-3.5
								c-1-0.6-2.3-0.6-3.2,0.1c-0.9,0.5-23.5,14.6-24.5,15.2c-1.2,0.5-2,1.7-1.9,3v93.6c-0.2,3.3,1.6,6.4,4.6,7.8
								C252.8,206.5,255,207.6,257.3,208.7z"/>
							<g>
								<g>
									<defs>
										<path id="SVGID_15_" d="M257.3,208.7c1.1,0.5,2.3,0.4,3.3-0.2c1.3-0.8,23.3-14.4,24.2-15c1.4-0.7,2.2-2.2,2.1-3.8V97.1
											c-0.1-3.3-1.8-6.4-4.6-8.2c-3-1.8-5.4-2.7-6.8-3.5c-1-0.6-2.3-0.6-3.2,0.1c-0.9,0.5-23.5,14.6-24.5,15.2
											c-1.2,0.5-2,1.7-1.9,3v93.6c-0.2,3.3,1.6,6.4,4.6,7.8C252.8,206.5,255,207.6,257.3,208.7z"/>
									</defs>
									<clipPath id="SVGID_16_">
										<use xlink:href="#SVGID_15_"  style="overflow:visible;"/>
									</clipPath>
									<g id="Clip-8" class="st18">
										<path id="Фигура_2183_копия_2-4" class="st11" d="M260,106.2L285.6,90l2.4,4.5L261.1,111L260,106.2z"/>
										<path id="Фигура_2182_копия_2-4" class="st12" d="M259.5,106.6l26.4-16.1c-0.9-1.1-2-2.1-3.3-2.7
											c-2.5-1.4-5.6-2.6-7.1-3.4c-1-0.6-2.2-0.7-3.3-0.1c-0.8,0.4-24.8,15.3-25.8,15.9s-1.9,2.8-0.3,2.8s1.6-1,4.3,0.3
											s2.9,1.4,5,2.6C256.7,106.7,258.1,106.9,259.5,106.6z"/>
										<path id="Фигура_2181_копия_5-4" class="st13" d="M257.2,209.4c1.3,0.7,4.8,1.7,4.8-2.8v-93.4
											c0-3.7-1.2-6.5-4.3-8.3c-3.2-1.9-4.7-1.9-7.1-3.3s-4.6-0.3-4.6,2.9v94.4c0,1.3,0.5,5.1,3.5,7S255.9,208.6,257.2,209.4z"/>
									</g>
								</g>
							</g>
						</g>
					</g>
					<g id="Группа_202">
						<g id="Фигура_1744-2">
							<path id="Фигура_1744-3" class="st13" d="M221,72c0,0.8-0.1,2,2,3s12.7,7.2,14,8c1.6,0.9,3.4,0.9,5,0c1.4-0.9,8-5,8-5
								s21.1-12.5,22-13c1.2-0.5,2.1-1.7,2-3V44c0-1.5,0.1-2.6-2-4s-21.8-13.3-23-14c-1.2-0.9-2.8-0.9-4,0c-1.4,1-21.1,12.4-22,13
								s-2,1.2-2,3V72z"/>
							<g>
								<g>
									<defs>
										<path id="SVGID_17_" d="M221,72c0,0.8-0.1,2,2,3s12.7,7.2,14,8c1.6,0.9,3.4,0.9,5,0c1.4-0.9,8-5,8-5s21.1-12.5,22-13
											c1.2-0.5,2.1-1.7,2-3V44c0-1.5,0.1-2.6-2-4s-21.8-13.3-23-14c-1.2-0.9-2.8-0.9-4,0c-1.4,1-21.1,12.4-22,13s-2,1.2-2,3V72z
											"/>
									</defs>
									<clipPath id="SVGID_18_">
										<use xlink:href="#SVGID_17_"  style="overflow:visible;"/>
									</clipPath>
									<g id="Clip-9" class="st19">
										<path id="Фигура_1746" class="st16" d="M250,57c0,0-27.6-16.1-29-17s-0.4-2.8,2-4s23-14,23-14l30,17v3l-25,16
											L250,57z"/>
										<path id="Фигура_1745" class="st20" d="M249,79V58c0-0.8-0.1-2,2-3s21.3-13,23-14s2,0,2,3v19c0,0.7-0.9,1.3-2,2
											s-24,15-24,15L249,79z"/>
									</g>
								</g>
							</g>
						</g>
					</g>
					<g id="Группа_204">
						<g id="Фигура_753_копия_11-2">
							<path id="Фигура_753_копия_11-3" class="st21" d="M265.4,120.8c0.1-0.6,0.3-1.2,0.7-1.7c0.5-0.7,7.4-9.8,7.9-10.5
								s1-1.3,1.9-1.1s7.5,1.5,7.9,1.6s0.7,0.1,0.7,1.2V130c0.1,0.7-0.2,1.5-0.7,2c-0.7,0.9-7.3,9.7-7.9,10.5s-1.2,1.3-1.9,1.1
								s-7.3-1.4-7.9-1.6s-0.7-0.2-0.7-1.2V120.8z"/>
							<g>
								<g>
									<defs>
										<path id="SVGID_19_" d="M265.4,120.8c0.1-0.6,0.3-1.2,0.7-1.7c0.5-0.7,7.4-9.8,7.9-10.5s1-1.3,1.9-1.1s7.5,1.5,7.9,1.6
											s0.7,0.1,0.7,1.2V130c0.1,0.7-0.2,1.5-0.7,2c-0.7,0.9-7.3,9.7-7.9,10.5s-1.2,1.3-1.9,1.1s-7.3-1.4-7.9-1.6
											s-0.7-0.2-0.7-1.2V120.8z"/>
									</defs>
									<clipPath id="SVGID_20_">
										<use xlink:href="#SVGID_19_"  style="overflow:visible;"/>
									</clipPath>
									<g id="Clip-10" class="st22">
										<path id="Фигура_570_копия" class="st23" d="M275.4,144l-11.4-6l-0.7-19.1l7.1-8.4l5-6.4l8.7,3.4l3.4,4.4
											l-0.3,27.6L275.4,144z"/>
										<path id="Фигура_571_копия" class="st24" d="M264.7,140.6l7.4,1.7l4-7.1l-11.1-2.7l-4,4.7L264.7,140.6z"/>
										<path id="Фигура_753_копия_9" class="st25" d="M277.7,137.9c-0.8-0.2-7.3-1.4-7.9-1.5
											c-0.3-0.1-0.5-0.1-0.6-0.3c-0.3,0-0.5-0.1-0.7-0.2c-0.5-0.2-3.4-1.7-3.8-1.9c-0.4-0.3-0.7-0.8-0.6-1.2
											c0-0.7-0.3-12-0.3-12.5c0-0.6,0.3-1.1,0.6-1.6c0.4-0.6,6-11.5,6.3-11.9c0.6-0.5,1.4-0.7,2.2-0.6c0.5,0.1,3.4,0.1,4.1,0.2
											c0.6,0.1,1.1,0.3,1.5,0.6c0.5,0.3,7.8,3.4,8.2,3.6c0.2,0.1,0.3,0.2,0.4,0.4c0.3,0.2,0.5,0.6,0.5,1.4
											c0,1.1,0.7,10.8,0.7,11.6c0.1,0.9-0.2,1.9-0.7,2.6c-0.7,0.9-7.3,9.6-7.9,10.4c-0.5,0.6-1,1.1-1.6,1.1
											C277.9,138,277.8,138,277.7,137.9z"/>
										<path id="Фигура_764_копия_3" class="st26" d="M271.3,106l7.4,3.2c0.3,0.2,0.6,0.5,0.9,0.6s8,1.6,8,1.6
											l-9.7-5.5c0,0-4.1-0.1-4.7-0.2C272.5,105.7,271.8,105.8,271.3,106z"/>
										<path id="Фигура_763_копия_3" class="st27" d="M270,137.1c-0.2-0.1-0.4-0.4-0.3-0.6c0-0.2-0.7-13.7-0.7-13.7
											l-5.7-2.8l0.7,13.7c0,0-0.1,0.7,1.2,1.2S270.3,137.2,270,137.1z"/>
									</g>
								</g>
							</g>
						</g>
						<g id="Фигура_753_копия_13-2">
							<path id="Фигура_753_копия_13-3" class="st28" d="M279.7,139.6c-0.8-0.2-7.3-1.4-7.9-1.5
								c-0.3-0.1-0.5-0.1-0.6-0.3c-0.3,0-0.5-0.1-0.7-0.2c-0.5-0.2-3.4-1.7-3.8-1.9c-0.4-0.3-0.7-0.8-0.6-1.2v-13.1
								c0-0.6,0.3-1.1,0.6-1.6c0.4-0.6,8-10.5,8.3-10.9c0.6-0.5,1.4-0.7,2.2-0.6c0.5,0.1,6.4,1.4,7.1,1.6c0.6,0.1,1.1,0.3,1.5,0.6
								c0.5,0.3,3.1,1.7,3.5,1.9c0.2,0.1,0.4,0.2,0.5,0.4c0.2,0.1,0.4,0.3,0.4,1.1v11.9c0.1,0.9-0.2,1.9-0.7,2.6
								c-0.7,0.9-7.3,9.6-7.9,10.4c-0.5,0.6-1,1.1-1.6,1.1C279.9,139.7,279.8,139.6,279.7,139.6z"/>
							<g>
								<g>
									<defs>
										<path id="SVGID_21_" d="M279.7,139.6c-0.8-0.2-7.3-1.4-7.9-1.5c-0.3-0.1-0.5-0.1-0.6-0.3c-0.3,0-0.5-0.1-0.7-0.2
											c-0.5-0.2-3.4-1.7-3.8-1.9c-0.4-0.3-0.7-0.8-0.6-1.2v-13.1c0-0.6,0.3-1.1,0.6-1.6c0.4-0.6,8-10.5,8.3-10.9
											c0.6-0.5,1.4-0.7,2.2-0.6c0.5,0.1,6.4,1.4,7.1,1.6c0.6,0.1,1.1,0.3,1.5,0.6c0.5,0.3,3.1,1.7,3.5,1.9
											c0.2,0.1,0.4,0.2,0.5,0.4c0.2,0.1,0.4,0.3,0.4,1.1v11.9c0.1,0.9-0.2,1.9-0.7,2.6c-0.7,0.9-7.3,9.6-7.9,10.4
											c-0.5,0.6-1,1.1-1.6,1.1C279.9,139.7,279.8,139.6,279.7,139.6z"/>
									</defs>
									<clipPath id="SVGID_22_">
										<use xlink:href="#SVGID_21_"  style="overflow:visible;"/>
									</clipPath>
									<g id="Clip-11" class="st29">
										<path id="Фигура_764_копия_4" class="st30" d="M275.6,108.1l5,2.9c0,0,1.3,0.2,1.5,0.3s9,1.9,9,1.9l-6-3.8
											c0,0-7.1-1.4-7.7-1.6C276.8,107.7,276.2,107.8,275.6,108.1z"/>
										<path id="Фигура_763_копия_4" class="st31" d="M272.1,138.8c-0.2-0.1-0.4-0.4-0.3-0.6c0-0.2-0.3-14.4-0.3-14.4
											l-5.7-2.8l0.3,14.4c0,0-0.1,0.7,1.2,1.2S272.4,138.9,272.1,138.8z"/>
										<path id="Фигура_753_копия_14" class="st32" d="M271.1,124.2c0.1-0.6,0.3-1.2,0.7-1.7
											c0.5-0.7,7.4-9.8,7.9-10.5s1-1.3,1.9-1.1s7.5,1.5,7.9,1.6s0.7,0.1,0.7,1.2v12.7c0.1,0.7-0.2,1.5-0.7,2
											c-0.7,0.9-7.3,9.7-7.9,10.5s-1.2,1.3-1.9,1.1s-7.3-1.4-7.9-1.6s-0.7-0.2-0.7-1.2V124.2z"/>
										<path id="Фигура_753_копия_15" class="st33" d="M271.4,124.5c0.1-0.6,0.3-1.2,0.7-1.7
											c0.5-0.7,7.4-9.8,7.9-10.5s1-1.3,1.9-1.1s7.5,1.5,7.9,1.6s0.7,0.1,0.7,1.2v12.7c0.1,0.7-0.2,1.5-0.7,2
											c-0.7,0.9-7.3,9.7-7.9,10.5s-1.2,1.3-1.9,1.1s-7.3-1.4-7.9-1.6s-0.7-0.2-0.7-1.2V124.5z"/>
									</g>
								</g>
							</g>
						</g>
						<g id="Фигура_753_копия_16-2">
							<path id="Фигура_753_копия_16-3" class="st31" d="M274.1,124.3c0-0.4,0.2-0.8,0.5-1.2c0.4-0.5,5.2-6.8,5.5-7.3
								s0.7-0.9,1.3-0.8s5.3,1,5.5,1.1s0.5,0.1,0.5,0.8v8.8c0.1,0.5-0.1,1-0.5,1.4c-0.5,0.7-5.1,6.7-5.5,7.3s-0.8,0.9-1.3,0.8
								s-5.2-1-5.5-1.1s-0.5-0.1-0.5-0.8V124.3z"/>
							<g>
								<g>
									<defs>
										<path id="SVGID_23_" d="M274.1,124.3c0-0.4,0.2-0.8,0.5-1.2c0.4-0.5,5.2-6.8,5.5-7.3s0.7-0.9,1.3-0.8s5.3,1,5.5,1.1
											s0.5,0.1,0.5,0.8v8.8c0.1,0.5-0.1,1-0.5,1.4c-0.5,0.7-5.1,6.7-5.5,7.3s-0.8,0.9-1.3,0.8s-5.2-1-5.5-1.1s-0.5-0.1-0.5-0.8
											V124.3z"/>
									</defs>
									<clipPath id="SVGID_24_">
										<use xlink:href="#SVGID_23_"  style="overflow:visible;"/>
									</clipPath>
									<g id="Clip-12" class="st34">
										<path id="Фигура_568_копия" class="st30" d="M281.8,135.6l-5.7-4l-3-0.3v4.4l7.1,0.7L281.8,135.6z"/>
										<path id="Фигура_567_копия" class="st28" d="M287.9,126.5l-6.4-2.7l-6.4,8.7l7.4,3.4L287.9,126.5z"/>
										<path id="Фигура_753_копия_17" class="st35" d="M269.1,122c0-0.4,0.2-0.8,0.5-1.2c0.4-0.5,5.2-6.8,5.5-7.3
											s0.7-0.9,1.3-0.8s5.3,1,5.5,1.1s0.5,0.1,0.5,0.8v8.8c0.1,0.5-0.1,1-0.5,1.4c-0.5,0.7-5.1,6.7-5.5,7.3s-0.8,0.9-1.3,0.8
											s-5.2-1-5.5-1.1s-0.5-0.1-0.5-0.8V122z"/>
										<path id="Фигура_753_копия_18" class="st36" d="M271.4,123c0-0.4,0.2-0.8,0.5-1.2c0.4-0.5,5.2-6.8,5.5-7.3
											s0.7-0.9,1.3-0.8s5.3,1,5.5,1.1s0.5,0.1,0.5,0.8v8.8c0.1,0.5-0.1,1-0.5,1.4c-0.5,0.7-5.1,6.7-5.5,7.3s-0.8,0.9-1.3,0.8
											s-5.2-1-5.5-1.1s-0.5-0.1-0.5-0.8V123z"/>
									</g>
								</g>
							</g>
						</g>
						<g id="Фигура_753_копия_19-2">
							<path id="Фигура_753_копия_19-3" class="st21" d="M257.5,57.9c0-0.3,0.1-0.6,0.3-0.8c0.2-0.3,3.6-4.7,3.8-5
								s0.5-0.6,0.9-0.5s3.6,0.7,3.8,0.8s0.3,0,0.3,0.6v9.5c0,0.4-0.1,0.7-0.3,1c-0.4,0.5-3.5,4.7-3.8,5s-0.6,0.6-0.9,0.5
								s-3.5-0.7-3.8-0.8s-0.3-0.1-0.3-0.6V57.9z"/>
							<g>
								<g>
									<defs>
										<path id="SVGID_25_" d="M257.5,57.9c0-0.3,0.1-0.6,0.3-0.8c0.2-0.3,3.6-4.7,3.8-5s0.5-0.6,0.9-0.5s3.6,0.7,3.8,0.8
											s0.3,0,0.3,0.6v9.5c0,0.4-0.1,0.7-0.3,1c-0.4,0.5-3.5,4.7-3.8,5s-0.6,0.6-0.9,0.5s-3.5-0.7-3.8-0.8s-0.3-0.1-0.3-0.6V57.9
											z"/>
									</defs>
									<clipPath id="SVGID_26_">
										<use xlink:href="#SVGID_25_"  style="overflow:visible;"/>
									</clipPath>
									<g id="Clip-13" class="st37">
										<path id="Фигура_570_копия_2" class="st23" d="M262.3,69.1l-5.5-2.9l-0.3-9.2l3.4-4l2.4-3.1l4.2,1.6l1.6,2.1
											L268,66.8L262.3,69.1z"/>
										<path id="Фигура_571_копия_2" class="st24" d="M257.2,67.5l3.6,0.8l1.9-3.4l-5.3-1.3l-1.9,2.3L257.2,67.5z"/>
										<path id="Фигура_753_копия_20" class="st25" d="M263.4,66.2c-0.4-0.1-3.5-0.7-3.8-0.7c-0.2,0-0.2-0.1-0.3-0.2
											c-0.1,0-0.2-0.1-0.3-0.1c-0.2-0.1-1.7-0.8-1.8-0.9c-0.2-0.1-0.3-0.4-0.3-0.6c0-0.3-0.2-5.8-0.2-6c0-0.3,0.1-0.5,0.3-0.8
											c0.2-0.3,2.9-5.5,3-5.8c0.3-0.2,0.7-0.3,1-0.3c0.3,0.1,1.6,0,2,0.1c0.3,0,0.5,0.2,0.7,0.3s3.7,1.6,3.9,1.7
											c0.1,0,0.2,0.1,0.2,0.2c0.1,0.1,0.2,0.3,0.2,0.7c0,0.5,0.3,5.2,0.3,5.6c0,0.4-0.1,0.9-0.3,1.2c-0.4,0.4-3.5,4.6-3.8,5
											C264,65.9,263.7,66.1,263.4,66.2C263.5,66.2,263.5,66.2,263.4,66.2z"/>
										<path id="Фигура_764_копия_5" class="st26" d="M260.3,50.8l3.6,1.5c0.1,0.1,0.3,0.2,0.4,0.3
											c0.1,0,3.9,0.8,3.9,0.8l-4.7-2.6c0,0-2,0-2.3-0.1C260.9,50.7,260.6,50.7,260.3,50.8z"/>
										<path id="Фигура_763_копия_5" class="st27" d="M259.7,65.8c-0.1-0.1-0.2-0.2-0.1-0.3c0-0.1-0.3-6.6-0.3-6.6
											l-2.7-1.4l0.3,6.6c0,0-0.1,0.3,0.6,0.6S259.9,65.8,259.7,65.8z"/>
									</g>
								</g>
							</g>
						</g>
						<g id="Фигура_753_копия_21-2">
							<path id="Фигура_753_копия_21-3" class="st28" d="M264.4,67c-0.4-0.1-3.5-0.7-3.8-0.7c-0.2,0-0.2-0.1-0.3-0.2
								c-0.1,0-0.2-0.1-0.3-0.1c-0.2-0.1-1.7-0.8-1.8-0.9c-0.2-0.1-0.3-0.4-0.3-0.6v-6.3c0-0.3,0.1-0.5,0.3-0.8
								c0.2-0.3,3.9-5.1,4-5.3c0.3-0.2,0.7-0.3,1-0.3c0.3,0.1,3.1,0.7,3.4,0.8c0.3,0,0.5,0.2,0.7,0.3s1.5,0.8,1.7,0.9
								c0.1,0,0.2,0.1,0.2,0.2c0.1,0,0.2,0.1,0.2,0.5v5.7c0,0.4-0.1,0.9-0.3,1.2c-0.4,0.4-3.5,4.6-3.8,5c-0.2,0.3-0.5,0.5-0.8,0.5
								C264.5,67,264.4,67,264.4,67z"/>
							<g>
								<g>
									<defs>
										<path id="SVGID_27_" d="M264.4,67c-0.4-0.1-3.5-0.7-3.8-0.7c-0.2,0-0.2-0.1-0.3-0.2c-0.1,0-0.2-0.1-0.3-0.1
											c-0.2-0.1-1.7-0.8-1.8-0.9c-0.2-0.1-0.3-0.4-0.3-0.6v-6.3c0-0.3,0.1-0.5,0.3-0.8c0.2-0.3,3.9-5.1,4-5.3
											c0.3-0.2,0.7-0.3,1-0.3c0.3,0.1,3.1,0.7,3.4,0.8c0.3,0,0.5,0.2,0.7,0.3s1.5,0.8,1.7,0.9c0.1,0,0.2,0.1,0.2,0.2
											c0.1,0,0.2,0.1,0.2,0.5v5.7c0,0.4-0.1,0.9-0.3,1.2c-0.4,0.4-3.5,4.6-3.8,5c-0.2,0.3-0.5,0.5-0.8,0.5
											C264.5,67,264.4,67,264.4,67z"/>
									</defs>
									<clipPath id="SVGID_28_">
										<use xlink:href="#SVGID_27_"  style="overflow:visible;"/>
									</clipPath>
									<g id="Clip-14" class="st38">
										<path id="Фигура_764_копия_6" class="st30" d="M262.4,51.8l2.4,1.4c0,0,0.6,0.1,0.7,0.2s3.9,0.8,3.9,0.8
											l-2.4-1.7c0,0-3.4-0.7-3.7-0.8C263,51.6,262.7,51.7,262.4,51.8z"/>
										<path id="Фигура_763_копия_6" class="st31" d="M260.7,66.6c-0.1-0.1-0.2-0.2-0.1-0.3c0-0.1-0.2-6.9-0.2-6.9
											l-2.7-1.4l0.2,6.9c0,0-0.1,0.3,0.6,0.6S260.9,66.6,260.7,66.6z"/>
										<path id="Фигура_753_копия_22" class="st32" d="M260.2,59.5c0-0.3,0.1-0.6,0.3-0.8c0.3-0.3,3.6-4.7,3.8-5
											s0.5-0.6,0.9-0.5s3.6,0.7,3.8,0.8s0.3,0,0.3,0.6v6.1c0,0.4-0.1,0.7-0.3,1c-0.4,0.5-3.5,4.7-3.8,5s-0.6,0.6-0.9,0.5
											s-3.5-0.7-3.8-0.8s-0.3-0.1-0.3-0.6V59.5z"/>
										<path id="Фигура_753_копия_23" class="st33" d="M260.4,59.7c0-0.3,0.1-0.6,0.3-0.8c0.2-0.3,3.6-4.7,3.8-5
											s0.5-0.6,0.9-0.5s3.6,0.7,3.8,0.8s0.3,0,0.3,0.6v6.1c0,0.4-0.1,0.7-0.3,1c-0.4,0.5-3.5,4.7-3.8,5s-0.6,0.6-0.9,0.5
											s-3.5-0.7-3.8-0.8s-0.3-0.1-0.3-0.6V59.7z"/>
									</g>
								</g>
							</g>
						</g>
						<g id="Фигура_753_копия_24-2">
							<path id="Фигура_753_копия_24-3" class="st31" d="M261.7,59.6c0-0.2,0.1-0.4,0.2-0.6c0.2-0.2,2.5-3.3,2.7-3.5
								s0.3-0.4,0.6-0.4s2.5,0.5,2.7,0.5s0.2,0,0.2,0.4v4.2c0,0.2-0.1,0.5-0.2,0.7c-0.3,0.3-2.5,3.2-2.7,3.5s-0.4,0.4-0.6,0.4
								s-2.5-0.5-2.7-0.5s-0.2-0.1-0.2-0.4V59.6z"/>
							<g>
								<g>
									<defs>
										<path id="SVGID_29_" d="M261.7,59.6c0-0.2,0.1-0.4,0.2-0.6c0.2-0.2,2.5-3.3,2.7-3.5s0.3-0.4,0.6-0.4s2.5,0.5,2.7,0.5
											s0.2,0,0.2,0.4v4.2c0,0.2-0.1,0.5-0.2,0.7c-0.3,0.3-2.5,3.2-2.7,3.5s-0.4,0.4-0.6,0.4s-2.5-0.5-2.7-0.5s-0.2-0.1-0.2-0.4
											V59.6z"/>
									</defs>
									<clipPath id="SVGID_30_">
										<use xlink:href="#SVGID_29_"  style="overflow:visible;"/>
									</clipPath>
									<g id="Clip-15" class="st39">
										<path id="Фигура_568_копия_2" class="st30" d="M265.4,65l-2.7-1.9l-1.5-0.2V65l3.4,0.3L265.4,65z"/>
										<path id="Фигура_567_копия_2" class="st28" d="M268.3,60.7l-3.1-1.3l-3.1,4.2l3.6,1.6L268.3,60.7z"/>
										<path id="Фигура_753_копия_25" class="st35" d="M259.3,58.5c0-0.2,0.1-0.4,0.2-0.6c0.2-0.2,2.5-3.3,2.7-3.5
											s0.3-0.4,0.6-0.4s2.5,0.5,2.7,0.5s0.2,0,0.2,0.4v4.2c0,0.2-0.1,0.5-0.2,0.7c-0.3,0.3-2.5,3.2-2.7,3.5s-0.4,0.4-0.6,0.4
											s-2.5-0.5-2.7-0.5s-0.2-0.1-0.2-0.4V58.5z"/>
										<path id="Фигура_753_копия_26" class="st36" d="M260.4,59c0-0.2,0.1-0.4,0.2-0.6c0.2-0.2,2.5-3.3,2.7-3.5
											s0.3-0.4,0.6-0.4s2.5,0.5,2.7,0.5s0.2,0,0.2,0.4v4.2c0,0.2-0.1,0.5-0.2,0.7c-0.3,0.3-2.5,3.2-2.7,3.5
											c-0.2,0.3-0.4,0.4-0.6,0.4s-2.5-0.5-2.7-0.5s-0.2-0.1-0.2-0.4V59z"/>
									</g>
								</g>
							</g>
						</g>
					</g>
				</g>
			</g>
			<g id="_c_копия_2">
				<g id="Фигура_2180-2">
					<path id="Фигура_2180-3" class="st40" d="M247.1,218c3.2,1.6,7,1.3,10-0.7c3.9-2.4,1.6-0.1,4.4-1.8s6.5-4.5,6.5-11.4v-57
						c-0.2-10-5.5-19.2-13.9-24.4c-9-5.5-71.5-43.1-75.5-45.4s-7-1.3-9.7,0.3s-2,0.7-5,2.4s-5.8,4-5.8,9.1v60.3
						c0,9.9,3.3,17.5,13.9,23.5S244.5,216.8,247.1,218z"/>
					<g>
						<g>
							<defs>
								<path id="SVGID_31_" d="M247.1,218c3.2,1.6,7,1.3,10-0.7c3.9-2.4,1.6-0.1,4.4-1.8s6.5-4.5,6.5-11.4v-57
									c-0.2-10-5.5-19.2-13.9-24.4c-9-5.5-71.5-43.1-75.5-45.4s-7-1.3-9.7,0.3s-2,0.7-5,2.4s-5.8,4-5.8,9.1v60.3
									c0,9.9,3.3,17.5,13.9,23.5S244.5,216.8,247.1,218z"/>
							</defs>
							<clipPath id="SVGID_32_">
								<use xlink:href="#SVGID_31_"  style="overflow:visible;"/>
							</clipPath>
							<g id="Clip-16" class="st41">
								<path id="Фигура_2183" class="st42" d="M254,132.9l9-5l7.2,13.3l-12.9,6L254,132.9z"/>
								<path id="Фигура_2182" class="st43" d="M254,132.9l10-5.3c0,0-2.4-3.9-9.8-8.1S182.4,76.6,178,74.4s-7.4-1.6-9.8-0.3
									s-5.1,2.7-8.3,4.7s-5.8,8.5-1,8.4s4.7-3.1,13,1s63.5,39.2,70.1,42.9S254,132.9,254,132.9z"/>
								<path id="Фигура_2181" class="st44" d="M245.7,218.1c3.9,2.2,14.4,5.1,14.4-8.5v-59.2c0-11.2-3.6-19.6-13.1-25
									c-9.8-5.6-69.2-40.9-76.3-44.8S157,79.9,157,89.4v60.1c0,3.9,1.5,15.3,10.4,20.9S241.8,216,245.7,218.1z"/>
							</g>
						</g>
					</g>
				</g>
				<path id="Фигура_2181_копия" class="st45" d="M243.3,211.2c3.7,2.1,13.7,4.9,13.7-8.1v-50.8
					c0-10.7-3.5-18.7-12.5-23.9c-9.3-5.4-64.7-38.1-71.4-41.8S160,85.8,160,94.9v53.6c0,3.7,1.4,14.6,10,20S239.6,209.1,243.3,211.2
					z"/>
				<path id="Эллипс_3848" class="st46" d="M175.4,93.8c1.4,0.9,2.3,2.5,2.4,4.2c0,1.5-1.1,2.1-2.4,1.4
					c-1.4-0.9-2.3-2.5-2.4-4.2C173,93.6,174,93,175.4,93.8z"/>
				<path id="Эллипс_3848_копия_2" class="st47" d="M192.6,109.2c-1.4-0.9-2.3-2.5-2.4-4.2c0-1.5,1.1-2.1,2.4-1.4
					c1.4,0.9,2.3,2.5,2.4,4.2c0,1.1-0.5,1.7-1.3,1.7C193.3,109.5,192.9,109.4,192.6,109.2z M184,104.2c-1.4-0.9-2.3-2.5-2.4-4.2
					c0-1.5,1.1-2.1,2.4-1.4c1.4,0.9,2.3,2.5,2.4,4.2c0,1.1-0.5,1.7-1.3,1.7C184.7,104.6,184.3,104.4,184,104.2L184,104.2z"/>
			</g>
			<g id="Фигура_1889-2">
				<path id="Фигура_1889-3" class="st1" d="M103.7,222c-1.5-0.8-1.7-2.9-1.7-5.2V112.5c0-1.3-0.1-2.4,1.7-3.5
					s3.1-2.3,5.2-0.9s113.3,66.2,114.6,66.9s4.8,1.4,6.9,0s113.5-66.3,114.6-66.9s2.3-1.7,3.5-0.9c0.8,0.6,1.7,1.2,2.6,1.7
					c1,0.5,1.7,1.5,1.7,2.6v105.1c0,1.1,0.1,2.4-1.7,3.5S229.7,291,228.8,291.5c-1,0.7-2.4,0.7-3.5,0
					C223.9,290.5,105.2,222.7,103.7,222z"/>
				<g>
					<g>
						<defs>
							<path id="SVGID_33_" d="M103.7,222c-1.5-0.8-1.7-2.9-1.7-5.2V112.5c0-1.3-0.1-2.4,1.7-3.5s3.1-2.3,5.2-0.9
								s113.3,66.2,114.6,66.9s4.8,1.4,6.9,0s113.5-66.3,114.6-66.9s2.3-1.7,3.5-0.9c0.8,0.6,1.7,1.2,2.6,1.7c1,0.5,1.7,1.5,1.7,2.6
								v105.1c0,1.1,0.1,2.4-1.7,3.5S229.7,291,228.8,291.5c-1,0.7-2.4,0.7-3.5,0C223.9,290.5,105.2,222.7,103.7,222z"/>
						</defs>
						<clipPath id="SVGID_34_">
							<use xlink:href="#SVGID_33_"  style="overflow:visible;"/>
						</clipPath>
						<g id="Clip-17" class="st48">
							<path id="Фигура_1891" class="st4" d="M227,180.9V294l-127-72.2v-113l1.7-1.7L227,180.9z"/>
							<path id="Фигура_1890" class="st6" d="M103.3,111.4c-1.2-0.4-5.2-1.8-2.6-3.5s6.1-3.5,6.1-3.5l119.8,68.7l120.6-68.7
								l4.3,2.6l1.7,2.6c0,0-122.7,70.6-124.1,71.3c-1.6,0.9-3.6,0.9-5.2,0C222,179.7,104.5,111.8,103.3,111.4z"/>
						</g>
					</g>
				</g>
			</g>
			<g id="Фигура_1896-2">
				<path id="Фигура_1896-3" class="st4" d="M227,181.3v9.7l31.9,61l4.4-2.6c0,0,124.2-71,125-71.4s0.9-0.9,0-2.6
					S352,109,352,109L227,181.3z"/>
				<g>
					<g>
						<defs>
							<path id="SVGID_35_" d="M227,181.3v9.7l31.9,61l4.4-2.6c0,0,124.2-71,125-71.4s0.9-0.9,0-2.6S352,109,352,109L227,181.3z"/>
						</defs>
						<clipPath id="SVGID_36_">
							<use xlink:href="#SVGID_35_"  style="overflow:visible;"/>
						</clipPath>
						<g id="Clip-18" class="st49">
							<path id="Фигура_1897" class="st50" d="M225.4,180.2l38.2,70.9L391,177.8v-3.5L352,107L225.4,180.2z"/>
						</g>
					</g>
				</g>
			</g>
			<g id="Фигура_1898-2">
				<path id="Фигура_1898-3" class="st51" d="M227,182.1v8L194.3,252l-3.5-2.7c0,0-123.7-71-124.6-71.5
					c-1.1-0.8-1.5-2.3-0.9-3.5c0.6-1.6,35-62.7,35.4-63.7s1.9-0.7,2.7,0S227,182.1,227,182.1z"/>
				<g>
					<g>
						<defs>
							<path id="SVGID_37_" d="M227,182.1v8L194.3,252l-3.5-2.7c0,0-123.7-71-124.6-71.5c-1.1-0.8-1.5-2.3-0.9-3.5
								c0.6-1.6,35-62.7,35.4-63.7s1.9-0.7,2.7,0S227,182.1,227,182.1z"/>
						</defs>
						<clipPath id="SVGID_38_">
							<use xlink:href="#SVGID_37_"  style="overflow:visible;"/>
						</clipPath>
						<g id="Clip-19" class="st52">
							<path id="Фигура_1899" class="st53" d="M227.4,181.2l-37.2,69L62,176.9l39-69L227.4,181.2z"/>
						</g>
					</g>
				</g>
			</g>
			<path id="Prepare-2" class="st54" d="M168.6,205.1c-3-1.8-4-5.6-1.8-9.5c1.9-3.5,5.6-5.1,8.6-3.3c2.9,1.7,3.5,5.6,1.2,9.7
				l-0.5,0.8l-6.9-4.1c-0.5,1.3,0,2.9,1.2,3.6c0.9,0.5,2,0.6,3,0.4v3.2c-0.5,0.1-1,0.2-1.4,0.2C170.9,206,169.7,205.7,168.6,205.1z
				 M170.7,196.1l4,2.4c0.6-1.1,0.2-2.6-0.9-3.3c-0.3-0.2-0.7-0.3-1.1-0.3C171.9,195,171.1,195.4,170.7,196.1z M156.6,197.5
				l6.6-12.1l3.1,1.8l-0.8,1.5c1.3-0.6,2.7-0.7,4,0l-2,3.7c-0.2-0.2-0.4-0.4-0.7-0.6c-0.9-0.5-1.9-0.6-2.9-0.2l-4.2,7.7L156.6,197.5
				z M151.3,194.4l0.7-1.2c-1.2,0.5-2.7,0.4-3.8-0.3c-1.5-0.9-2.6-3.2-1.1-6c1.6-2.9,4-2.8,5.5-1.9c1.2,0.6,2.1,1.8,2.2,3.2l0.8-1.5
				c0.6-1,0.2-2.3-0.8-2.8c-0.1,0-0.1-0.1-0.2-0.1c-1.1-0.6-2.3-0.7-3.4-0.3l0.2-3.1c1.8-0.5,3.8-0.3,5.4,0.7
				c2.3,1.4,3.9,3.8,1.9,7.5l-4.2,7.6L151.3,194.4z M150,188.8c-0.4,0.8-0.1,1.8,0.7,2.3c0,0,0.1,0,0.1,0.1c0.7,0.4,1.5,0.5,2.2,0.1
				l0.6-1.1c-0.1-0.8-0.6-1.5-1.3-1.9c-0.3-0.2-0.7-0.3-1-0.3C150.8,188,150.3,188.3,150,188.8L150,188.8z M131.3,188.6l9.2-16.8
				l3.1,1.8l-0.8,1.4c1.2-0.7,2.6-0.7,3.8,0c2.4,1.4,3,4.8,0.8,8.9c-2.3,4.1-5.3,5.3-7.7,3.9c-1.2-0.7-1.9-2-1.9-3.4l-3.3,6.1
				L131.3,188.6z M141.2,177.9l-2,3.7c0.1,0.9,0.5,1.7,1.2,2.2c1.2,0.7,2.7,0.1,3.7-1.7s0.7-3.5-0.5-4.2c-0.4-0.2-0.8-0.3-1.2-0.3
				C142,177.6,141.6,177.7,141.2,177.9L141.2,177.9z M127.3,180.6c-3-1.8-4-5.6-1.8-9.5c1.9-3.5,5.6-5.1,8.6-3.3
				c2.9,1.7,3.5,5.6,1.2,9.7l-0.5,0.8l-6.9-4.1c-0.5,1.3,0,2.9,1.2,3.6c0.9,0.5,2,0.6,3,0.4v3.2c-0.5,0.1-1,0.2-1.4,0.2
				C129.6,181.6,128.4,181.2,127.3,180.6L127.3,180.6z M129.4,171.7l4,2.4c0.6-1.1,0.2-2.6-0.9-3.3c-0.3-0.2-0.7-0.3-1.1-0.3
				C130.6,170.5,129.9,171,129.4,171.7L129.4,171.7z M115.4,173.1L122,161l3.1,1.8l-0.8,1.5c1.3-0.6,2.7-0.7,4,0l-2,3.7
				c-0.2-0.2-0.4-0.4-0.7-0.6c-0.9-0.5-1.9-0.6-2.9-0.2l-4.2,7.7L115.4,173.1z M102.6,165.5l9.2-16.8l6.7,4c3,1.8,3.3,5.3,1.6,8.3
				c-1.7,3-4.7,4.6-7.7,2.8l-3.2-1.9l-3.1,5.6L102.6,165.5z M111.2,158.1l2.8,1.7c0.8,0.5,1.9,0.3,2.4-0.5c0.1-0.1,0.1-0.2,0.1-0.3
				c0.6-0.9,0.4-2.1-0.5-2.7l-0.1-0.1l-2.8-1.6L111.2,158.1z"/>
			<path id="Фигура_1905" class="st6" d="M225.8,182.1c1.5,0.6,2.4,0,2.4,0s118.7-69,120.8-70.1s5-1.9,2.2-3.5
				S273,64.4,273,64.4l-4.5,2.7c0,0,67.4,40,69.4,41s2.9,1.9,1,3s-108.1,63.6-109,64s-2.6,1.3-7-1c-1.7-0.9-107.9-62.4-109-63
				s-0.7-2.1,1-3s58-34,58-34s0-3.2,0-5s3-3,3-3s-35.6,21-72,42c-0.8,0.4-2.1,1.1-1.7,1.9c0.2,0.3,1.4,0.9,1.7,1.1
				C105.5,111.9,222.7,181,225.8,182.1z"/>
		</g>
	</g>
</g>
</svg>
